<svg width="69" height="71" viewBox="0 0 69 71" fill="none" xmlns="http://www.w3.org/2000/svg">
<rect width="69" height="70.8039" rx="15.9059" fill="black"/>
<path d="M39.1279 17.8106C39.2623 17.9197 39.3956 18.03 39.5279 18.1414C39.601 18.2002 39.674 18.2589 39.7493 18.3193C41.6318 19.8926 42.7081 22.1275 42.9596 24.5299C43.1621 27.17 42.2821 29.6427 40.5481 31.6484C39.9507 32.3205 39.2616 32.8061 38.5077 33.2912C38.6168 33.3256 38.726 33.3601 38.8385 33.3956C41.2128 34.1668 43.3475 35.2873 45.2783 36.8504C45.3299 36.8919 45.3815 36.9333 45.4347 36.976C46.4214 37.7775 46.4214 37.7775 46.5709 38.2422C46.5778 38.6502 46.5138 38.8748 46.2985 39.2233C46.0072 39.4771 45.6993 39.5726 45.3065 39.5587C44.8134 39.4165 44.4441 39.0093 44.0725 38.6757C43.5855 38.239 43.087 37.8512 42.5364 37.495C42.4635 37.4478 42.3906 37.4006 42.3155 37.3519C39.8313 35.7636 37.0165 34.8961 34.0558 34.7514C33.8973 34.7433 33.8973 34.7433 33.7355 34.735C30.1135 34.6527 26.4219 35.835 23.5753 38.0369C23.4919 38.0989 23.4084 38.1609 23.3224 38.2247C20.1564 40.6555 17.9625 44.3449 17.3612 48.2584C17.3043 48.7476 17.2577 49.2375 17.212 49.7278C17.1993 49.8601 17.1867 49.9924 17.174 50.1247C17.1432 50.4456 17.113 50.7666 17.083 51.0875C17.1834 51.0873 17.2838 51.087 17.3873 51.0868C19.8294 51.0807 22.2716 51.0762 24.7137 51.0733C25.8947 51.0719 27.0757 51.07 28.2566 51.0669C29.2858 51.0641 30.315 51.0624 31.3442 51.0618C31.8893 51.0614 32.4344 51.0606 32.9795 51.0586C33.4923 51.0567 34.0052 51.0561 34.518 51.0565C34.7064 51.0565 34.8948 51.0559 35.0832 51.0549C35.3402 51.0535 35.5971 51.0538 35.854 51.0546C35.9288 51.0538 36.0036 51.053 36.0807 51.0522C36.606 51.0563 36.8987 51.1692 37.2846 51.5096C37.4572 51.8494 37.4574 52.1759 37.3947 52.5477C37.2283 52.8097 37.1181 52.9576 36.8382 53.0953C36.5635 53.1049 36.291 53.1088 36.0162 53.1087C35.9301 53.1091 35.8439 53.1094 35.7551 53.1098C35.4645 53.1108 35.1739 53.1111 34.8833 53.1115C34.6757 53.112 34.4681 53.1126 34.2605 53.1133C33.6952 53.1149 33.1299 53.1158 32.5646 53.1166C32.2117 53.1171 31.8588 53.1176 31.5059 53.1182C30.5291 53.1197 29.5523 53.1211 28.5755 53.1217C28.322 53.1219 28.0685 53.1221 27.815 53.1222C27.7204 53.1223 27.7204 53.1223 27.624 53.1224C26.6029 53.1231 25.5819 53.1255 24.5608 53.1284C23.5129 53.1314 22.4649 53.133 21.4169 53.1334C20.8284 53.1336 20.2399 53.1344 19.6514 53.1367C19.0978 53.1388 18.5444 53.1392 17.9908 53.1383C17.7875 53.1382 17.5841 53.1388 17.3808 53.1401C17.1035 53.1417 16.8263 53.141 16.5491 53.1398C16.4683 53.1408 16.3875 53.1418 16.3042 53.1429C15.9262 53.1389 15.7385 53.1244 15.4116 52.9209C14.8937 52.383 15.0101 51.4496 15.0135 50.7567C15.014 50.6487 15.0145 50.5408 15.0149 50.4296C15.0765 45.7898 16.9801 41.5264 20.1996 38.172C20.3224 38.0439 20.4441 37.9149 20.5657 37.7859C21.6026 36.7207 22.8275 35.8389 24.1318 35.1164C24.1951 35.0811 24.2584 35.0457 24.3235 35.0093C25.6256 34.2875 26.9786 33.7469 28.3982 33.2912C28.3243 33.2372 28.2504 33.1832 28.1743 33.1275C26.0302 31.5567 24.5388 29.5415 24.0759 26.9062C23.7243 24.2582 24.3031 21.8399 25.894 19.6929C26.1583 19.3739 26.4376 19.0756 26.7287 18.7803C26.8121 18.6882 26.8121 18.6882 26.8972 18.5942C29.941 15.3468 35.6507 15.2205 39.1279 17.8106ZM28.1199 20.3318C28.055 20.3945 27.9901 20.4572 27.9232 20.5218C26.6913 21.7954 26.0199 23.5483 25.9636 25.2942C26.0335 27.5081 26.9165 29.4202 28.5283 30.9468C30.0492 32.2218 32.0642 32.8638 34.0528 32.7184C36.1343 32.5197 37.8486 31.541 39.2171 30.0064C40.4306 28.479 40.9513 26.639 40.8264 24.7124C40.5842 22.7837 39.6821 20.966 38.1077 19.75C35.0369 17.3974 30.9132 17.6291 28.1199 20.3318Z" fill="white" stroke="white" stroke-width="0.3"/>
<path d="M42.7552 41.4093C43.15 41.9509 43.4711 42.5302 43.7941 43.1112C43.8815 43.2678 43.9699 43.4239 44.0585 43.58C44.1141 43.6799 44.1698 43.7797 44.2272 43.8827C44.2777 43.9728 44.3282 44.0629 44.3802 44.1557C44.5593 44.5406 44.6282 44.8147 44.5072 45.2217C44.3005 45.6292 43.9335 45.9204 43.5824 46.2205C43.9927 47.7034 45.1184 48.8037 46.4868 49.5808C46.8628 49.776 47.2109 49.9002 47.6263 50.0007C47.6841 49.9396 47.7419 49.8786 47.8015 49.8157C47.8802 49.7368 47.9588 49.6578 48.0399 49.5765C48.1167 49.4977 48.1934 49.419 48.2725 49.3379C48.6069 49.0973 48.8659 49.0108 49.2806 49.0556C49.6414 49.1672 49.9717 49.3223 50.3088 49.4852C50.4486 49.5505 50.4486 49.5505 50.5911 49.6171C50.8598 49.7434 51.1272 49.8719 51.3945 50.0007C51.5246 50.0614 51.6548 50.1221 51.7851 50.1826C52.8122 50.6735 52.8122 50.6735 53.024 51.1977C53.1584 52.1606 53.026 53.0018 52.4284 53.8077C51.8755 54.443 51.1578 54.8518 50.2916 54.9837C47.1676 55.1478 44.2521 54.065 41.9281 52.1485C41.163 51.4996 40.5634 50.8039 39.998 50.0007C39.9405 49.9207 39.8829 49.8407 39.8236 49.7584C39.062 48.6277 38.5651 47.2797 38.3437 45.9627C38.3188 45.8263 38.3188 45.8263 38.2935 45.6872C38.2399 45.2679 38.2277 44.8543 38.2231 44.4324C38.2204 44.3521 38.2178 44.2719 38.215 44.1892C38.206 43.2526 38.5421 42.6125 39.229 41.9419C40.1131 41.1742 41.6769 40.723 42.7552 41.4093ZM40.5208 43.4766C39.9901 44.3402 40.3406 45.5776 40.5883 46.497C41.0078 47.917 41.818 49.1553 42.8472 50.2584C42.8994 50.3159 42.9516 50.3734 43.0055 50.4326C44.5349 51.9866 46.7568 52.8029 48.9532 53.0452C49.0675 53.0588 49.0675 53.0588 49.184 53.0727C49.7225 53.1223 50.0769 53.0527 50.5673 52.8358C50.8194 52.612 50.9312 52.5046 50.9436 52.1774C50.9407 52.1111 50.9379 52.0449 50.9349 51.9767C50.6835 51.842 50.4303 51.7104 50.1767 51.5793C50.1053 51.541 50.0338 51.5027 49.9602 51.4632C49.8909 51.4278 49.8216 51.3923 49.7502 51.3558C49.6867 51.3225 49.6231 51.2892 49.5577 51.2549C49.3691 51.1838 49.3691 51.1838 49.1745 51.2708C48.9831 51.3887 48.8555 51.5191 48.7062 51.6813C48.4411 51.9312 48.2356 52.0716 47.8417 52.0851C45.8663 51.8789 44.081 50.5803 42.8507 49.1966C42.1276 48.285 41.2026 46.88 41.3766 45.705C41.5343 45.353 41.7945 45.1403 42.1018 44.8995C42.2238 44.7621 42.2238 44.7621 42.197 44.571C42.082 44.2457 41.9157 43.9582 41.7385 43.6592C41.7039 43.5996 41.6692 43.5401 41.6335 43.4788C41.5484 43.3328 41.4626 43.1872 41.3766 43.0417C41.0547 43.0417 40.7474 43.2876 40.5208 43.4766Z" fill="white"/>
</svg>
