<svg width="41" height="41" viewBox="0 0 41 41" fill="none" xmlns="http://www.w3.org/2000/svg">
<path d="M28.0611 28.3164C27.8884 28.4835 27.6563 28.5752 27.416 28.5712C27.1757 28.5673 26.9468 28.468 26.7797 28.2952L20.4784 21.782L13.9651 28.0833C13.7924 28.2504 13.5603 28.342 13.32 28.3381C13.0797 28.3341 12.8508 28.2348 12.6836 28.0621C12.5165 27.8893 12.4249 27.6573 12.4288 27.417C12.4328 27.1766 12.5321 26.9477 12.7048 26.7806L19.2181 20.4793L12.9168 13.9661C12.7497 13.7933 12.658 13.5613 12.662 13.3209C12.666 13.0806 12.7653 12.8517 12.938 12.6846C13.1107 12.5175 13.3428 12.4258 13.5831 12.4298C13.8234 12.4338 14.0523 12.5331 14.2195 12.7058L20.5208 19.2191L27.034 12.9178C27.2068 12.7506 27.4388 12.659 27.6791 12.663C27.9194 12.6669 28.1483 12.7662 28.3155 12.939C28.4826 13.1117 28.5742 13.3438 28.5703 13.5841C28.5663 13.8244 28.467 14.0533 28.2943 14.2204L21.781 20.5217L28.0823 27.035C28.2494 27.2077 28.3411 27.4398 28.3371 27.6801C28.3331 27.9204 28.2339 28.1493 28.0611 28.3164Z" fill="black"/>
</svg>
