<svg width="16" height="16" viewBox="0 0 16 16" fill="none" xmlns="http://www.w3.org/2000/svg">
<path d="M0.305625 14.2187C-0.101875 14.6263 -0.101875 15.2869 0.305625 15.6944C0.713125 16.1019 1.37383 16.1019 1.78133 15.6944L0.305625 14.2187ZM8.73783 8.73783C9.14534 8.33031 9.14534 7.66972 8.73783 7.2622C8.33031 6.85469 7.66972 6.85469 7.2622 7.2622L8.73783 8.73783ZM7.2622 7.2622C6.85469 7.66972 6.85469 8.33031 7.2622 8.73783C7.66972 9.14534 8.33031 9.14534 8.73783 8.73783L7.2622 7.2622ZM15.6944 1.78133C16.1019 1.37383 16.1019 0.713125 15.6944 0.305625C15.2869 -0.101875 14.6263 -0.101875 14.2187 0.305625L15.6944 1.78133ZM8.73783 7.2622C8.33031 6.85469 7.66972 6.85469 7.2622 7.2622C6.85469 7.66972 6.85469 8.33031 7.2622 8.73783L8.73783 7.2622ZM14.2187 15.6944C14.6263 16.1019 15.2869 16.1019 15.6944 15.6944C16.1019 15.2869 16.1019 14.6263 15.6944 14.2187L14.2187 15.6944ZM7.2622 8.73783C7.66972 9.14534 8.33031 9.14534 8.73783 8.73783C9.14534 8.33031 9.14534 7.66972 8.73783 7.2622L7.2622 8.73783ZM1.78133 0.305625C1.37383 -0.101875 0.713125 -0.101875 0.305625 0.305625C-0.101875 0.713125 -0.101875 1.37383 0.305625 1.78133L1.78133 0.305625ZM1.78133 15.6944L8.73783 8.73783L7.2622 7.2622L0.305625 14.2187L1.78133 15.6944ZM8.73783 8.73783L15.6944 1.78133L14.2187 0.305625L7.2622 7.2622L8.73783 8.73783ZM7.2622 8.73783L14.2187 15.6944L15.6944 14.2187L8.73783 7.2622L7.2622 8.73783ZM8.73783 7.2622L1.78133 0.305625L0.305625 1.78133L7.2622 8.73783L8.73783 7.2622Z" fill="#3A3A3A"/>
</svg>
