<svg width="19" height="19" viewBox="0 0 19 19" fill="none" xmlns="http://www.w3.org/2000/svg">
<path fill-rule="evenodd" clip-rule="evenodd" d="M16.3 15.4576C16.3 15.926 15.8809 16.3 15.4117 16.3H12.8617C12.3934 16.3 12.05 15.926 12.05 15.4576V12.9076C12.05 12.4393 12.3934 12.05 12.8617 12.05H15.4117C15.8809 12.05 16.3 12.4393 16.3 12.9076V15.4576ZM15.4117 10.35H12.8617C11.4533 10.35 10.35 11.4992 10.35 12.9076V15.4576C10.35 16.8661 11.4533 18 12.8617 18H15.4117C16.8202 18 18 16.8661 18 15.4576V12.9076C18 11.4992 16.8202 10.35 15.4117 10.35ZM6.95 15.4576C6.95 15.926 6.53095 16.3 6.06175 16.3H3.51175C3.0434 16.3 2.7 15.926 2.7 15.4576V12.9076C2.7 12.4393 3.0434 12.05 3.51175 12.05H6.06175C6.53095 12.05 6.95 12.4393 6.95 12.9076V15.4576ZM6.06175 10.35H3.51175C2.1033 10.35 1 11.4992 1 12.9076V15.4576C1 16.8661 2.1033 18 3.51175 18H6.06175C7.4702 18 8.65 16.8661 8.65 15.4576V12.9076C8.65 11.4992 7.4702 10.35 6.06175 10.35ZM16.3 6.10765C16.3 6.576 15.8809 6.95 15.4117 6.95H12.8617C12.3934 6.95 12.05 6.576 12.05 6.10765V3.55765C12.05 3.0893 12.3934 2.7 12.8617 2.7H15.4117C15.8809 2.7 16.3 3.0893 16.3 3.55765V6.10765ZM15.4117 1H12.8617C11.4533 1 10.35 2.1492 10.35 3.55765V6.10765C10.35 7.5161 11.4533 8.65 12.8617 8.65H15.4117C16.8202 8.65 18 7.5161 18 6.10765V3.55765C18 2.1492 16.8202 1 15.4117 1ZM6.95 6.10765C6.95 6.576 6.53095 6.95 6.06175 6.95H3.51175C3.0434 6.95 2.7 6.576 2.7 6.10765V3.55765C2.7 3.0893 3.0434 2.7 3.51175 2.7H6.06175C6.53095 2.7 6.95 3.0893 6.95 3.55765V6.10765ZM6.06175 1H3.51175C2.1033 1 1 2.1492 1 3.55765V6.10765C1 7.5161 2.1033 8.65 3.51175 8.65H6.06175C7.4702 8.65 8.65 7.5161 8.65 6.10765V3.55765C8.65 2.1492 7.4702 1 6.06175 1Z" fill="black" stroke="black" stroke-width="0.2"/>
</svg>
