<svg width="18" height="18" viewBox="0 0 18 18" fill="none" xmlns="http://www.w3.org/2000/svg">
<path fill-rule="evenodd" clip-rule="evenodd" d="M9.8461 17.1326C9.63992 17.4916 9.31409 17.7643 8.92718 17.9017C8.54027 18.0391 8.11765 18.0323 7.73528 17.8824C7.35291 17.7324 7.03588 17.4493 6.84117 17.0839C6.64645 16.7184 6.58682 16.2946 6.673 15.8886L7.56177 11.6773L2.64483 11.6773C2.26001 11.6773 1.8804 11.5872 1.53566 11.414C1.19091 11.2408 0.89036 10.9892 0.657479 10.6789C0.424597 10.3686 0.265691 10.008 0.193169 9.62526C0.120648 9.24249 0.136479 8.84791 0.239419 8.47236L1.33665 4.47472C1.65533 3.3117 2.37421 2.30247 3.3634 1.62938C4.35259 0.956282 5.54686 0.663714 6.73042 0.804534L13.0916 1.5631L13.7157 10.413L9.8461 17.1326ZM15.2773 9.84789C15.2839 9.97369 15.3151 10.0969 15.3691 10.2104C15.4232 10.3238 15.4991 10.4252 15.5923 10.5086C15.6855 10.5921 15.7941 10.6558 15.9119 10.6962C16.0298 10.7366 16.1543 10.7529 16.2784 10.744C16.4025 10.7351 16.5235 10.7012 16.6346 10.6444C16.7456 10.5876 16.8443 10.5089 16.9249 10.413C17.0056 10.3171 17.0666 10.2059 17.1043 10.0858C17.142 9.96581 17.1558 9.83936 17.1447 9.71388L16.5206 0.863954C16.4988 0.616451 16.3819 0.387508 16.1952 0.226377C16.0084 0.0652465 15.7667 -0.0151902 15.5219 0.0023726C15.2772 0.0199354 15.0491 0.134092 14.8866 0.320286C14.7241 0.506479 14.6403 0.749824 14.6532 0.997968L15.2773 9.84789Z" fill="#D8D7D7"/>
</svg>
