<svg width="15" height="15" viewBox="0 0 15 15" fill="none" xmlns="http://www.w3.org/2000/svg">
<path d="M7.5 15C3.36429 15 0 11.6357 0 7.5C0 3.36429 3.36429 0 7.5 0C11.6357 0 15 3.36429 15 7.5C15 11.6357 11.6357 15 7.5 15ZM7.5 1.07143C3.95357 1.07143 1.07143 3.95357 1.07143 7.5C1.07143 11.0464 3.95357 13.9286 7.5 13.9286C11.0464 13.9286 13.9286 11.0464 13.9286 7.5C13.9286 3.95357 11.0464 1.07143 7.5 1.07143Z" fill="white" fill-opacity="0.7"/>
<path d="M7.37991 11.7853C5.93348 11.7853 4.76562 10.6068 4.76562 9.17104V5.83889C4.76562 4.39247 5.9442 3.22461 7.37991 3.22461C8.81563 3.22461 9.9942 4.40318 9.9942 5.83889C9.9942 6.13889 9.75848 6.37461 9.45848 6.37461C9.15848 6.37461 8.92277 6.13889 8.92277 5.83889C8.92277 4.98175 8.22634 4.29604 7.37991 4.29604C6.53348 4.29604 5.83705 4.99247 5.83705 5.83889V9.17104C5.83705 10.0282 6.53348 10.7139 7.37991 10.7139C8.22634 10.7139 8.92277 10.0175 8.92277 9.17104C8.92277 8.87104 9.15848 8.63532 9.45848 8.63532C9.75848 8.63532 9.9942 8.87104 9.9942 9.17104C9.9942 10.6175 8.81563 11.7853 7.37991 11.7853Z" fill="white" fill-opacity="0.7"/>
<path d="M6.96574 6.96449H4.46931C4.16931 6.96449 3.93359 6.72878 3.93359 6.42878C3.93359 6.12878 4.16931 5.89307 4.46931 5.89307H6.96574C7.26574 5.89307 7.50145 6.12878 7.50145 6.42878C7.50145 6.72878 7.26574 6.96449 6.96574 6.96449ZM6.96574 9.10735H4.46931C4.16931 9.10735 3.93359 8.87164 3.93359 8.57164C3.93359 8.27164 4.16931 8.03592 4.46931 8.03592H6.96574C7.26574 8.03592 7.50145 8.27164 7.50145 8.57164C7.50145 8.87164 7.26574 9.10735 6.96574 9.10735Z" fill="white" fill-opacity="0.7"/>
</svg>
