<svg width="13" height="14" viewBox="0 0 13 14" fill="none" xmlns="http://www.w3.org/2000/svg">
<path d="M10.1136 4.80207H8.8186V1.06127C8.8186 0.649783 8.45209 0.31311 8.00412 0.31311H4.74621C4.29825 0.31311 3.93174 0.649783 3.93174 1.06127V4.80207H2.63672C1.91183 4.80207 1.54532 5.61009 2.05844 6.08143L5.79689 9.51549C6.11454 9.80727 6.62766 9.80727 6.9453 9.51549L10.6838 6.08143C11.1969 5.61009 10.8385 4.80207 10.1136 4.80207ZM0.673828 12.2837C0.673828 12.6952 1.04034 13.0318 1.48831 13.0318H11.262C11.71 13.0318 12.0765 12.6952 12.0765 12.2837C12.0765 11.8722 11.71 11.5355 11.262 11.5355H1.48831C1.04034 11.5355 0.673828 11.8722 0.673828 12.2837Z" fill="#737373"/>
</svg>
