<svg width="11" height="11" viewBox="0 0 11 11" fill="none" xmlns="http://www.w3.org/2000/svg">
<path d="M10.4154 4.56968L8.66939 6.60611L8.98438 9.35647C9.01411 9.61677 8.90423 9.87262 8.6974 10.024C8.49099 10.1749 8.22125 10.1968 7.99459 10.0807L5.73928 8.92519L3.48562 10.0794C3.25854 10.196 2.98879 10.1741 2.78196 10.0227C2.57512 9.87136 2.46524 9.61507 2.49497 9.35475L2.8091 6.60611L1.06266 4.57014C0.898912 4.37904 0.845918 4.11159 0.924339 3.86914C1.00276 3.62669 1.20012 3.44586 1.44185 3.39541L3.92209 2.87479L5.12867 0.486088V0.486535C5.24803 0.25123 5.48287 0.103882 5.73927 0.103882C5.99567 0.103882 6.2305 0.25123 6.34986 0.486535L7.55645 2.8749L10.0385 3.39551V3.39507C10.2802 3.44552 10.4775 3.62635 10.5555 3.8688C10.634 4.11125 10.5814 4.37825 10.4176 4.56935L10.4154 4.56968Z" fill="#F4F4F4"/>
</svg>
