<svg width="27" height="26" viewBox="0 0 27 26" fill="none" xmlns="http://www.w3.org/2000/svg">
<path d="M2.18359 13.0002C2.18359 9.16841 2.18359 7.252 3.33226 5.97258C3.51626 5.76747 3.7177 5.57897 3.9366 5.40708C5.30562 4.3335 7.35534 4.3335 11.4559 4.3335H14.7284C18.829 4.3335 20.8787 4.3335 22.2466 5.406C22.4662 5.57933 22.668 5.76819 22.852 5.97258C24.0007 7.25091 24.0007 9.16841 24.0007 13.0002C24.0007 16.8319 24.0007 18.7483 22.852 20.0277C22.6671 20.2333 22.4645 20.4225 22.2466 20.5932C20.8787 21.6668 18.83 21.6668 14.7284 21.6668H11.4559C7.35534 21.6668 5.30562 21.6668 3.9366 20.5943C3.71904 20.4232 3.51683 20.2336 3.33226 20.0277C2.18359 18.7494 2.18359 16.8319 2.18359 13.0002Z" stroke="black" stroke-width="1.3" stroke-linecap="round" stroke-linejoin="round"/>
<path d="M5.45703 13.0001H6.54789M19.6381 13.0001H20.729M15.8758 13.0001C15.8758 13.7184 15.5885 14.4073 15.077 14.9152C14.5656 15.4231 13.8719 15.7084 13.1486 15.7084C12.4254 15.7084 11.7317 15.4231 11.2203 14.9152C10.7088 14.4073 10.4215 13.7184 10.4215 13.0001C10.4215 12.2818 10.7088 11.5929 11.2203 11.085C11.7317 10.5771 12.4254 10.2917 13.1486 10.2917C13.8719 10.2917 14.5656 10.5771 15.077 11.085C15.5885 11.5929 15.8758 12.2818 15.8758 13.0001Z" stroke="black" stroke-width="1.3" stroke-linecap="round" stroke-linejoin="round"/>
</svg>
