<svg width="133" height="60" viewBox="0 0 133 60" fill="none" xmlns="http://www.w3.org/2000/svg">
<g style="mix-blend-mode:luminosity">
<path d="M106.06 51.3041V50.145L111.174 42.0541H112.015V43.8495H111.447L107.583 49.9632V50.0541H114.469V51.3041H106.06ZM111.538 53.6904V50.9518V50.412V42.0541H112.878V53.6904H111.538ZM117.052 53.7813C116.771 53.7813 116.531 53.681 116.33 53.4802C116.129 53.2794 116.029 53.0389 116.029 52.7586C116.029 52.4783 116.129 52.2378 116.33 52.037C116.531 51.8363 116.771 51.7359 117.052 51.7359C117.332 51.7359 117.573 51.8363 117.773 52.037C117.974 52.2378 118.074 52.4783 118.074 52.7586C118.074 52.9442 118.027 53.1147 117.932 53.27C117.841 53.4253 117.718 53.5503 117.563 53.645C117.412 53.7359 117.241 53.7813 117.052 53.7813ZM124.053 41.895C124.53 41.8988 125.008 41.9897 125.485 42.1677C125.962 42.3457 126.398 42.6412 126.792 43.0541C127.186 43.4632 127.502 44.0219 127.741 44.7302C127.979 45.4385 128.099 46.3268 128.099 47.395C128.099 48.4291 128 49.3476 127.803 50.1507C127.61 50.9499 127.33 51.6241 126.962 52.1734C126.599 52.7226 126.155 53.1393 125.633 53.4234C125.114 53.7075 124.527 53.8495 123.871 53.8495C123.22 53.8495 122.638 53.7207 122.127 53.4632C121.619 53.2018 121.203 52.8401 120.877 52.3779C120.555 51.912 120.349 51.3722 120.258 50.7586H121.644C121.769 51.2927 122.017 51.734 122.388 52.0825C122.763 52.4272 123.258 52.5995 123.871 52.5995C124.769 52.5995 125.477 52.2075 125.996 51.4234C126.519 50.6393 126.78 49.5313 126.78 48.0995H126.689C126.477 48.4177 126.225 48.6923 125.934 48.9234C125.642 49.1544 125.318 49.3325 124.962 49.4575C124.606 49.5825 124.227 49.645 123.826 49.645C123.159 49.645 122.547 49.4802 121.991 49.1507C121.438 48.8173 120.994 48.3609 120.661 47.7813C120.332 47.198 120.167 46.5313 120.167 45.7813C120.167 45.0692 120.326 44.4177 120.644 43.8268C120.966 43.2321 121.417 42.7586 121.996 42.4063C122.58 42.0541 123.265 41.8836 124.053 41.895ZM124.053 43.145C123.576 43.145 123.146 43.2643 122.763 43.5029C122.385 43.7378 122.083 44.056 121.86 44.4575C121.64 44.8552 121.53 45.2965 121.53 45.7813C121.53 46.2662 121.636 46.7075 121.849 47.1052C122.064 47.4991 122.358 47.8135 122.729 48.0484C123.104 48.2794 123.53 48.395 124.008 48.395C124.368 48.395 124.703 48.3249 125.013 48.1847C125.324 48.0408 125.595 47.8457 125.826 47.5995C126.061 47.3495 126.244 47.0673 126.377 46.7529C126.51 46.4347 126.576 46.1033 126.576 45.7586C126.576 45.3041 126.466 44.8779 126.246 44.4802C126.03 44.0825 125.731 43.7605 125.349 43.5143C124.97 43.2681 124.538 43.145 124.053 43.145Z" fill="#919191"/>
<mask id="mask0_1577_8002" style="mask-type:alpha" maskUnits="userSpaceOnUse" x="0" y="38" width="15" height="16">
<rect y="38.6904" width="14.512" height="14.512" fill="#919191"/>
</mask>
<g mask="url(#mask0_1577_8002)">
<rect x="-1.93359" y="38.6904" width="21.2842" height="16.4469" fill="#919191"/>
</g>
<mask id="mask1_1577_8002" style="mask-type:alpha" maskUnits="userSpaceOnUse" x="19" y="38" width="15" height="16">
<rect x="19.3477" y="38.6904" width="14.512" height="14.512" fill="#919191"/>
</mask>
<g mask="url(#mask1_1577_8002)">
<rect x="17.4141" y="38.6904" width="21.2842" height="16.4469" fill="#919191"/>
</g>
<mask id="mask2_1577_8002" style="mask-type:alpha" maskUnits="userSpaceOnUse" x="38" y="38" width="16" height="16">
<rect x="38.6953" y="38.6904" width="14.512" height="14.512" fill="#919191"/>
</mask>
<g mask="url(#mask2_1577_8002)">
<rect x="36.7617" y="38.6904" width="21.2842" height="16.4469" fill="#919191"/>
</g>
<mask id="mask3_1577_8002" style="mask-type:alpha" maskUnits="userSpaceOnUse" x="58" y="38" width="15" height="16">
<rect x="58.0449" y="38.6904" width="14.512" height="14.512" fill="#919191"/>
</mask>
<g mask="url(#mask3_1577_8002)">
<rect x="56.1113" y="38.6904" width="21.2842" height="16.4469" fill="#919191"/>
</g>
<mask id="mask4_1577_8002" style="mask-type:alpha" maskUnits="userSpaceOnUse" x="77" y="38" width="15" height="16">
<rect x="77.3926" y="38.6904" width="14.512" height="14.512" fill="#919191"/>
</mask>
<g mask="url(#mask4_1577_8002)">
<rect x="75.459" y="38.6904" width="21.2842" height="16.4469" fill="#919191"/>
</g>
<path d="M31.3306 0.660156H32.1487C34.9889 0.721901 37.7829 1.86417 39.7896 3.88631C39.0486 4.64268 38.2923 5.36818 37.5668 6.12455C36.4399 5.10576 35.0815 4.31852 33.5997 4.04067C31.4077 3.57758 29.046 3.99436 27.2091 5.24469C25.2024 6.55676 23.844 8.77956 23.5508 11.1567C23.2266 13.503 23.8904 15.9728 25.4185 17.7943C26.885 19.5694 29.1232 20.6808 31.4386 20.758C33.5997 20.8815 35.8534 20.2177 37.4278 18.705C38.6627 17.6399 39.2339 16.0191 39.4191 14.4446C36.8567 14.4446 34.2943 14.4601 31.7319 14.4446V11.2648H42.5218C43.0775 14.6762 42.2748 18.5198 39.6815 20.9587C37.9527 22.6875 35.5601 23.7063 33.1212 23.907C30.7594 24.1385 28.3205 23.6909 26.2212 22.5486C23.7051 21.2056 21.6984 18.9365 20.7105 16.2661C19.7843 13.8117 19.7689 11.0332 20.6333 8.56345C21.4206 6.30978 22.9333 4.31852 24.8783 2.92927C26.746 1.55545 29.0151 0.799081 31.3306 0.660156Z" fill="#919191"/>
<path d="M93.2305 1.46289H96.5338V23.5057C95.4378 23.5057 94.3264 23.5211 93.2305 23.4902C93.2459 16.1581 93.2305 8.81049 93.2305 1.46289Z" fill="#919191"/>
<path d="M49.8699 9.10373C51.9075 8.71782 54.1149 9.15004 55.7974 10.3695C57.3256 11.45 58.3907 13.148 58.7148 15.0003C59.1316 17.1459 58.6068 19.4922 57.2175 21.1902C55.7202 23.0889 53.2659 24.1076 50.8733 23.9533C48.6814 23.8298 46.5512 22.7338 45.2545 20.9432C43.7881 18.9674 43.4331 16.2507 44.2357 13.9352C45.0384 11.45 47.3075 9.55137 49.8699 9.10373ZM50.333 12.0366C49.4995 12.2527 48.7277 12.7312 48.172 13.4104C46.6747 15.201 46.7673 18.1184 48.4189 19.7855C49.3605 20.7426 50.7807 21.1902 52.0927 20.9278C53.3122 20.7117 54.3773 19.8936 54.9639 18.813C55.9826 16.9761 55.6894 14.4446 54.1303 13.0091C53.127 12.0829 51.6605 11.697 50.333 12.0366Z" fill="#919191"/>
<path d="M66.2323 9.10389C68.5631 8.65624 71.1101 9.30456 72.8544 10.9408C75.6946 13.4877 76.0033 18.2575 73.5799 21.1904C72.1134 23.0427 69.7363 24.0615 67.39 23.9534C65.1517 23.8917 62.9444 22.7803 61.6169 20.9434C60.1196 18.9213 59.7954 16.1428 60.6444 13.781C61.4934 11.373 63.7162 9.5361 66.2323 9.10389ZM66.6954 12.0368C65.8618 12.2529 65.09 12.7314 64.5343 13.3951C63.0524 15.1548 63.1142 18.026 64.7041 19.7085C65.6457 20.7119 67.1121 21.2058 68.4705 20.928C69.6745 20.6964 70.7551 19.8937 71.3416 18.8132C72.345 16.9609 72.0517 14.4294 70.4772 12.9938C69.4739 12.0676 68.0074 11.6972 66.6954 12.0368Z" fill="#919191"/>
<path d="M80.1102 9.99966C81.8854 8.88826 84.2471 8.57954 86.1612 9.53658C86.7632 9.79899 87.2572 10.2466 87.7357 10.6943C87.7511 10.2775 87.7357 9.8453 87.7511 9.41309C88.7853 9.42853 89.8196 9.41309 90.8692 9.42852V23.0432C90.8538 25.0962 90.3289 27.2727 88.8471 28.77C87.2263 30.4217 84.7411 30.931 82.5028 30.5914C80.1102 30.2364 78.0263 28.4921 77.1002 26.2848C78.0263 25.8371 78.9988 25.4821 79.9559 25.0653C80.4961 26.3311 81.5921 27.4116 82.9659 27.6586C84.3397 27.9056 85.9296 27.566 86.8249 26.4237C87.782 25.2506 87.782 23.6452 87.7357 22.2096C87.0256 22.9043 86.2075 23.5217 85.2196 23.7533C83.074 24.3553 80.7122 23.6143 79.0606 22.1633C77.3935 20.7123 76.4056 18.4741 76.4982 16.2513C76.5445 13.7352 77.9646 11.3117 80.1102 9.99966ZM83.3055 11.9755C82.3639 12.1298 81.484 12.6547 80.882 13.3802C79.431 15.109 79.431 17.8721 80.8975 19.5701C81.731 20.5734 83.074 21.1291 84.3706 20.9902C85.5901 20.8667 86.7169 20.0949 87.3189 19.0298C88.3377 17.2238 88.1679 14.7694 86.7941 13.1949C85.9451 12.2225 84.5867 11.7439 83.3055 11.9755Z" fill="#919191"/>
<path d="M100.501 10.7868C102.353 9.05793 105.209 8.47136 107.586 9.38209C109.839 10.2311 111.275 12.3767 112.001 14.5841C108.651 15.9733 105.317 17.3471 101.967 18.7364C102.43 19.6162 103.14 20.4189 104.097 20.7431C105.44 21.2216 107.046 21.0518 108.172 20.1565C108.62 19.8169 108.975 19.3693 109.315 18.937C110.164 19.5082 111.013 20.0639 111.862 20.635C110.658 22.441 108.635 23.7068 106.459 23.9075C104.051 24.2008 101.488 23.2746 99.9295 21.3914C97.3671 18.4277 97.614 13.4572 100.501 10.7868ZM102.152 13.6425C101.627 14.3988 101.411 15.325 101.427 16.2357C103.665 15.3096 105.903 14.3834 108.141 13.4418C107.771 12.5774 106.876 12.0525 105.965 11.9136C104.499 11.6512 102.97 12.4384 102.152 13.6425Z" fill="#919191"/>
</g>
</svg>
