<svg width="18" height="19" viewBox="0 0 18 19" fill="none" xmlns="http://www.w3.org/2000/svg">
<path fill-rule="evenodd" clip-rule="evenodd" d="M8.16743 0.889154C8.36756 0.526797 8.68876 0.248674 9.07331 0.104776C9.45786 -0.0391222 9.88054 -0.0393581 10.2654 0.104111C10.6502 0.24758 10.9719 0.525344 11.1728 0.887478C11.3736 1.24961 11.4403 1.67236 11.361 2.07975L10.543 6.30538L15.4593 6.22282C15.8441 6.21638 16.2251 6.30012 16.5727 6.46749C16.9203 6.63486 17.2251 6.88134 17.4631 7.18767C17.7012 7.49401 17.8661 7.8519 17.9451 8.2334C18.024 8.6149 18.0148 9.00969 17.9182 9.38691L16.8882 13.4024C16.5891 14.5706 15.8873 15.5918 14.9095 16.2814C13.9318 16.971 12.7426 17.2836 11.5568 17.1626L5.18381 16.511L4.41117 7.6728L8.16743 0.889154ZM2.85929 8.26407C2.85065 8.1384 2.81738 8.01572 2.7614 7.90319C2.70543 7.79067 2.62789 7.69056 2.5333 7.60871C2.43871 7.52687 2.32898 7.46492 2.21051 7.4265C2.09204 7.38808 1.96721 7.37395 1.84331 7.38493C1.7194 7.39592 1.59892 7.4318 1.48888 7.49048C1.37884 7.54917 1.28146 7.62947 1.20243 7.72671C1.1234 7.82396 1.0643 7.93618 1.02858 8.05683C0.992857 8.17749 0.981237 8.30415 0.994394 8.42942L1.76704 17.2676C1.79299 17.5147 1.91367 17.7417 2.10312 17.8996C2.29256 18.0576 2.53563 18.134 2.78003 18.1123C3.02443 18.0906 3.25062 17.9727 3.40994 17.7838C3.56926 17.5949 3.64897 17.3502 3.63193 17.1023L2.85929 8.26407Z" fill="#D8D7D7"/>
</svg>
