<svg width="21" height="15" viewBox="0 0 21 15" fill="none" xmlns="http://www.w3.org/2000/svg">
<path d="M4.1041 0.225975C4.4054 0.527275 4.4054 1.01578 4.1041 1.31708C0.689371 4.73181 0.689371 10.2682 4.1041 13.6829C4.4054 13.9842 4.4054 14.4727 4.1041 14.774C3.8028 15.0753 3.3143 15.0753 3.013 14.774C-1.00433 10.7567 -1.00433 4.24331 3.013 0.225975C3.3143 -0.075325 3.8028 -0.075325 4.1041 0.225975ZM17.5611 0.225975C21.5784 4.24331 21.5784 10.7567 17.5611 14.774C17.2598 15.0753 16.7712 15.0753 16.4699 14.774C16.1686 14.4727 16.1686 13.9842 16.4699 13.6829C19.8847 10.2682 19.8847 4.73181 16.4699 1.31708C16.1686 1.01578 16.1686 0.527275 16.4699 0.225975C16.7712 -0.075325 17.2598 -0.075325 17.5611 0.225975ZM7.01371 3.13559C7.31501 3.43689 7.31501 3.92539 7.01371 4.22669C5.20591 6.03449 5.20591 8.96551 7.01371 10.7733C7.31501 11.0746 7.31501 11.5631 7.01371 11.8644C6.71241 12.1657 6.22391 12.1657 5.92261 11.8644C3.51221 9.45402 3.51221 5.54599 5.92261 3.13559C6.22391 2.83429 6.71241 2.83429 7.01371 3.13559ZM14.6514 3.13559C17.0618 5.54599 17.0618 9.45402 14.6514 11.8644C14.3501 12.1657 13.8616 12.1657 13.5603 11.8644C13.259 11.5631 13.259 11.0746 13.5603 10.7733C15.3681 8.96551 15.3681 6.03449 13.5603 4.22669C13.259 3.92539 13.259 3.43689 13.5603 3.13559C13.8616 2.83429 14.3501 2.83429 14.6514 3.13559ZM10.287 5.95695C11.1392 5.95695 11.8301 6.6478 11.8301 7.5C11.8301 8.35221 11.1392 9.04305 10.287 9.04305C9.43482 9.04305 8.74397 8.35221 8.74397 7.5C8.74397 6.6478 9.43482 5.95695 10.287 5.95695Z" fill="#6A6A6A"/>
</svg>
