<svg width="23" height="23" viewBox="0 0 23 23" fill="none" xmlns="http://www.w3.org/2000/svg">
<path d="M12.058 10.3813C12.8161 11.3301 13.4311 11.7067 13.8618 11.8434C14.2221 11.9629 14.6144 11.9402 14.9584 11.7798C15.3208 11.6209 15.6609 11.3507 15.9549 11.0519C16.098 10.9089 16.2219 10.7659 16.3268 10.6435L16.3745 10.5863C16.4508 10.4941 16.5652 10.359 16.6447 10.2796C16.8681 10.0557 17.1712 9.92982 17.4875 9.92953C17.8037 9.92923 18.1071 10.0546 18.3309 10.278C18.5547 10.5014 18.6806 10.8045 18.6809 11.1207C18.6812 11.437 18.5559 11.7404 18.3325 11.9642L18.2959 12.0055L18.2562 12.0532L18.145 12.1835C17.987 12.3723 17.8216 12.5546 17.6491 12.7302C17.247 13.1371 16.659 13.6393 15.9088 13.9667C15.0357 14.3573 14.0488 14.4105 13.1387 14.1161C12.1216 13.7919 11.141 13.0513 10.1954 11.8688C9.43727 10.92 8.82221 10.5434 8.39152 10.4067C8.03126 10.2872 7.63895 10.3099 7.29491 10.4703C6.93255 10.6292 6.59245 10.8994 6.29843 11.1982C6.15539 11.3412 6.03143 11.4842 5.92654 11.6066L5.87886 11.6638C5.79282 11.7695 5.70269 11.8719 5.60868 11.9706C5.38333 12.1818 5.08478 12.2973 4.77594 12.2927C4.4671 12.2882 4.17209 12.1639 3.95307 11.9461C3.73405 11.7283 3.60812 11.434 3.60181 11.1252C3.59551 10.8164 3.70932 10.5172 3.91927 10.2907L3.92086 10.2875L3.95741 10.2446L3.99714 10.1969L4.10839 10.0666C4.23077 9.92037 4.39923 9.72648 4.60425 9.51987C5.00634 9.11301 5.59438 8.6108 6.34452 8.285C7.21747 7.8939 8.20436 7.84012 9.11464 8.13401C10.1318 8.45823 11.1124 9.19884 12.058 10.3813Z" fill="black"/>
<path fill-rule="evenodd" clip-rule="evenodd" d="M3.57589 0C2.62751 0 1.71796 0.376745 1.04735 1.04735C0.376745 1.71796 0 2.62751 0 3.57589V18.6741C0 19.6225 0.376745 20.532 1.04735 21.2026C1.71796 21.8733 2.62751 22.25 3.57589 22.25H18.6741C19.6225 22.25 20.532 21.8733 21.2026 21.2026C21.8733 20.532 22.25 19.6225 22.25 18.6741V3.57589C22.25 2.62751 21.8733 1.71796 21.2026 1.04735C20.532 0.376745 19.6225 0 18.6741 0H3.57589ZM2.38393 3.57589C2.38393 3.25976 2.50951 2.95658 2.73305 2.73305C2.95658 2.50951 3.25976 2.38393 3.57589 2.38393H18.6741C18.9902 2.38393 19.2934 2.50951 19.517 2.73305C19.7405 2.95658 19.8661 3.25976 19.8661 3.57589V18.6741C19.8661 18.9902 19.7405 19.2934 19.517 19.517C19.2934 19.7405 18.9902 19.8661 18.6741 19.8661H3.57589C3.25976 19.8661 2.95658 19.7405 2.73305 19.517C2.50951 19.2934 2.38393 18.9902 2.38393 18.6741V3.57589Z" fill="black"/>
</svg>
