<svg width="187" height="133" viewBox="0 0 187 133" fill="none" xmlns="http://www.w3.org/2000/svg">
<g clip-path="url(#clip0_1577_8072)">
<g style="mix-blend-mode:luminosity" clip-path="url(#clip1_1577_8072)">
<path d="M182.228 37.2095H-0.175781V107.697H182.228V37.2095Z" fill="white"/>
<path d="M55.5801 71.4587V68.9554C56.3584 68.9554 56.966 68.9167 57.403 68.8384C57.839 68.7606 58.1978 68.5931 58.4793 68.3368C58.7606 68.0808 58.9482 67.7461 59.0422 67.3331C59.1362 66.9204 59.1829 66.349 59.1829 65.6195V48.1011H62.7854V65.6194C62.7854 66.6793 62.7102 67.5544 62.5601 68.2455C62.4099 68.9367 62.1359 69.5339 61.7367 70.0376C61.3384 70.542 60.7846 70.9046 60.0762 71.1262C59.3676 71.348 58.4697 71.4587 57.3812 71.4587H55.5801Z" fill="black"/>
<path d="M66.0918 68.9944V54.7747H69.6944V68.0143C69.6944 68.3628 69.8092 68.646 70.0394 68.8642C70.2695 69.0811 70.5675 69.1905 70.9329 69.1905C71.13 69.1905 71.3218 69.1689 71.51 69.1245C71.6976 69.0811 71.8829 69.005 72.0658 68.8959C72.2486 68.7876 72.3917 68.7003 72.4946 68.635C72.5974 68.5696 72.7453 68.4589 72.9381 68.3018C73.1311 68.1447 73.25 68.0494 73.2968 68.0143V54.7747H76.8999V71.4586H73.2967V69.6905C72.9404 69.9723 72.6802 70.1787 72.516 70.3065C72.3511 70.4355 72.1006 70.6088 71.7631 70.8269C71.425 71.0451 71.1271 71.2034 70.8692 71.3018C70.6113 71.4004 70.2898 71.4896 69.9052 71.5715C69.52 71.6525 69.1214 71.6932 68.7092 71.6932C67.9213 71.6932 67.2871 71.4352 66.8089 70.918C66.331 70.4008 66.0918 69.76 66.0918 68.9944Z" fill="black"/>
<path d="M79.3345 67.2875L82.0361 66.4531C82.6838 68.1219 83.5844 68.9553 84.7381 68.9553C85.31 68.9553 85.7535 68.8101 86.0677 68.5194C86.3818 68.2281 86.5389 67.8178 86.5389 67.2875C86.5389 66.5141 86.2386 65.871 85.638 65.358L82.0355 62.8554C81.6323 62.6041 81.2946 62.3668 81.0224 62.1451C80.7506 61.9238 80.4742 61.652 80.1922 61.3308C79.911 61.009 79.6977 60.6482 79.5522 60.2493C79.406 59.8494 79.334 59.4148 79.334 58.9454C79.334 57.5203 79.8239 56.4299 80.8047 55.6739C81.7849 54.9179 83.0958 54.5398 84.7381 54.5398C85.5164 54.5398 86.2203 54.6553 86.8489 54.8853C87.477 55.1156 88.0051 55.439 88.4326 55.856C88.8594 56.273 89.2108 56.736 89.4878 57.2442C89.7645 57.7521 89.9828 58.3198 90.1418 58.9453L87.4401 59.7799C87.3091 59.4494 87.1774 59.165 87.0464 58.9258C86.915 58.687 86.7388 58.4283 86.5183 58.1504C86.2978 57.8726 86.0373 57.657 85.737 57.505C85.4367 57.3531 85.1041 57.2772 84.738 57.2772C84.1654 57.2772 83.7224 57.4229 83.4081 57.7133C83.0938 58.005 82.9369 58.4151 82.9369 58.9454C82.9369 59.4668 83.2368 59.9362 83.8378 60.353L87.4401 62.8557C87.8434 63.1513 88.188 63.4359 88.4743 63.7101C88.7606 63.9834 89.0399 64.3011 89.3116 64.6612C89.5834 65.0218 89.79 65.4237 89.9311 65.8667C90.072 66.3097 90.1417 66.7836 90.1417 67.2877C90.1417 68.7132 89.6516 69.8037 88.6715 70.559C87.6908 71.3152 86.3793 71.6929 84.7379 71.6929C83.2551 71.6929 82.066 71.2851 81.1706 70.4681C80.275 69.6511 79.6628 68.5904 79.3345 67.2875Z" fill="black"/>
<path d="M91.3945 57.2771V54.7743H93.1963V48.9348H96.7991V54.7741H99.5004V57.2767H96.7991V67.0134C96.7991 67.6823 96.8975 68.1737 97.0943 68.4862C97.291 68.7994 97.6893 68.955 98.2908 68.955C98.5622 68.955 98.9658 68.9122 99.5004 68.8252V71.5359C98.5996 71.6401 97.8586 71.6927 97.2774 71.6927C95.8603 71.6927 94.8307 71.3585 94.1882 70.6886C93.5454 70.0198 93.215 69.0069 93.1962 67.6518V57.2771H91.3945Z" fill="black"/>
<path d="M101.23 53.4971C101.23 51.7766 101.808 50.4082 102.962 49.3914C104.116 48.3741 105.645 47.866 107.55 47.866C109.745 47.866 111.452 48.3962 112.672 49.4566C113.891 50.5166 114.586 52.0114 114.755 53.94L111.153 54.7743C111.115 54.1924 111.023 53.6619 110.878 53.1836C110.732 52.7061 110.524 52.2674 110.252 51.8672C109.979 51.4675 109.614 51.157 109.154 50.9351C108.694 50.7135 108.16 50.6026 107.549 50.6026C106.686 50.6026 106.02 50.8264 105.551 51.2738C105.082 51.7215 104.847 52.345 104.847 53.1443C104.847 54.4562 105.448 55.5557 106.649 56.4419L111.152 59.7791C113.553 61.5777 114.754 63.7283 114.754 66.231C114.754 67.9431 114.185 69.2808 113.045 70.2459C111.904 71.2097 110.373 71.6921 108.45 71.6921C106.18 71.6921 104.446 71.0754 103.25 69.8416C102.054 68.6074 101.386 66.9219 101.245 64.7838L104.847 63.9498C105.025 67.2864 106.226 68.9546 108.45 68.9546C110.251 68.9546 111.152 68.1205 111.152 66.4521C111.152 65.9566 111.079 65.4984 110.934 65.0774C110.787 64.656 110.565 64.2689 110.265 63.9168C109.965 63.5653 109.693 63.2826 109.449 63.0696C109.205 62.8569 108.872 62.5939 108.449 62.2816L103.946 58.9445C103.121 58.3449 102.462 57.5827 101.969 56.6568C101.477 55.7324 101.23 54.6789 101.23 53.4971Z" fill="black" fill-opacity="0.82"/>
<path d="M117.389 52.2719V48.9348H120.99V52.2714H117.389V52.2719ZM117.389 71.4585V54.7744H120.99V71.4584L117.389 71.4585Z" fill="black" fill-opacity="0.82"/>
<path d="M123.045 73.9613C123.045 73.0967 123.296 72.3578 123.798 71.7441C124.3 71.1303 124.95 70.6423 125.748 70.2789C125.259 70.1576 124.837 69.9743 124.481 69.7281C124.124 69.4816 123.946 69.1813 123.946 68.8266C123.946 68.6795 123.965 68.5241 124.002 68.3595C124.039 68.1949 124.082 68.0457 124.129 67.9118C124.176 67.7772 124.251 67.6236 124.355 67.4503C124.458 67.2767 124.54 67.1406 124.601 67.0415C124.662 66.9419 124.763 66.8035 124.904 66.6257C125.044 66.4479 125.14 66.3272 125.192 66.2617C125.243 66.1972 125.344 66.0796 125.494 65.9112C125.645 65.7423 125.729 65.6447 125.748 65.6187C124.547 64.298 123.947 62.6298 123.947 60.6137C123.947 59.4577 124.144 58.4282 124.537 57.5249C124.932 56.6206 125.544 55.8975 126.374 55.3543C127.204 54.8117 128.197 54.5399 129.351 54.5399C130.017 54.5399 130.598 54.6337 131.096 54.8211C131.593 55.0087 131.998 55.2452 132.312 55.5311C132.627 55.8174 132.934 56.1944 133.235 56.6627C133.995 55.2476 135.101 54.5398 136.555 54.5398V57.277C135.655 57.277 134.904 57.5551 134.304 58.1112C134.604 58.9277 134.754 59.762 134.754 60.6137C134.754 61.7779 134.564 62.8073 134.185 63.7028C133.804 64.5983 133.199 65.3149 132.369 65.8537C131.538 66.3923 130.532 66.6616 129.351 66.6616C129.002 66.6616 128.623 66.6319 128.21 66.5706L127.535 66.4668C127.516 66.51 127.468 66.5855 127.395 66.6938C127.319 66.8026 127.261 66.889 127.218 66.955C127.176 67.0208 127.136 67.1042 127.098 67.2068C127.061 67.3086 127.042 67.4049 127.042 67.4949C127.042 67.7085 127.16 67.8884 127.396 68.036C127.632 68.1832 127.958 68.2918 128.373 68.3614C128.789 68.4309 129.189 68.4807 129.573 68.5098C129.958 68.5391 130.382 68.5667 130.847 68.5934C131.312 68.6198 131.634 68.6486 131.81 68.6799C132.344 68.7508 132.818 68.8322 133.235 68.9257C133.651 69.0184 134.078 69.1537 134.513 69.3297C134.948 69.5068 135.305 69.7194 135.587 69.9672C135.867 70.2153 136.1 70.5338 136.281 70.9226C136.465 71.3118 136.555 71.7582 136.555 72.2628C136.555 72.8753 136.44 73.4221 136.211 73.9036C135.981 74.3854 135.673 74.7837 135.289 75.0988C134.904 75.4134 134.44 75.6738 133.896 75.88C133.351 76.0859 132.779 76.2316 132.178 76.3201C131.578 76.4074 130.935 76.4509 130.251 76.4509C129.801 76.4509 129.434 76.4489 129.153 76.4446C128.872 76.4403 128.486 76.4293 127.999 76.4121C127.511 76.3942 127.103 76.3619 126.774 76.3135C126.446 76.2647 126.071 76.2026 125.649 76.1282C125.226 76.053 124.877 75.9534 124.6 75.8302C124.324 75.7064 124.059 75.5605 123.805 75.3926C123.553 75.2248 123.362 75.0193 123.235 74.7766C123.109 74.5324 123.045 74.2612 123.045 73.9613ZM126.227 73.1883C126.227 73.3258 126.277 73.4436 126.381 73.5426C126.484 73.6412 126.636 73.7158 126.838 73.7678C127.04 73.8193 127.246 73.8623 127.458 73.897C127.668 73.9313 127.919 73.9527 128.21 73.9617C128.501 73.9698 128.749 73.9743 128.956 73.9743C129.163 73.9743 129.404 73.9696 129.681 73.9617C129.958 73.9528 130.148 73.949 130.251 73.949C130.504 73.949 130.732 73.9445 130.933 73.936C131.135 73.9275 131.367 73.9102 131.63 73.8842C131.892 73.8587 132.12 73.8181 132.312 73.7622C132.505 73.7061 132.688 73.6354 132.861 73.5495C133.034 73.4641 133.169 73.3495 133.263 73.2085C133.356 73.0669 133.403 72.9055 133.403 72.7256C133.403 72.5711 133.384 72.4294 133.347 72.3003C133.216 71.6478 132.273 71.2281 130.519 71.0387L127.549 70.7164C127.183 70.9572 126.871 71.3044 126.613 71.7597C126.355 72.2137 126.227 72.69 126.227 73.1883ZM127.098 60.6137C127.098 62.977 127.849 64.1593 129.351 64.1593C130.851 64.1593 131.602 62.977 131.602 60.6137C131.602 60.1592 131.569 59.7394 131.503 59.3553C131.437 58.971 131.325 58.5947 131.166 58.2267C131.006 57.859 130.772 57.5698 130.462 57.3587C130.153 57.148 129.781 57.0429 129.351 57.0429C128.909 57.0429 128.534 57.1483 128.224 57.3587C127.915 57.5698 127.682 57.859 127.528 58.2267C127.373 58.5946 127.262 58.971 127.197 59.3553C127.131 59.7393 127.098 60.1592 127.098 60.6137Z" fill="black" fill-opacity="0.82"/>
<path d="M138.061 71.4586V54.7745H141.662V56.5737C142.198 56.1216 142.633 55.7762 142.971 55.5369C143.309 55.2983 143.776 55.0724 144.372 54.8596C144.967 54.6467 145.603 54.5398 146.278 54.5398C147.048 54.5398 147.672 54.8005 148.15 55.3221C148.629 55.8435 148.868 56.4822 148.868 57.2383V71.4587H145.266V58.9454C145.266 58.3633 145.176 57.9396 144.998 57.6744C144.82 57.4096 144.458 57.2772 143.914 57.2772C143.604 57.2772 143.296 57.3356 142.992 57.4529C142.687 57.5705 142.46 57.6788 142.309 57.7787C142.159 57.8786 141.943 58.0377 141.662 58.2546V71.4586H138.061Z" fill="black" fill-opacity="0.82"/>
<path d="M151.275 71.4585V68.1218H154.878V71.4585H151.275Z" fill="black"/>
<path d="M157.424 71.4586V54.7745H161.026V56.5737C161.562 56.1216 161.997 55.7762 162.335 55.5369C162.673 55.2983 163.139 55.0724 163.736 54.8596C164.331 54.6467 164.966 54.5398 165.642 54.5398C166.411 54.5398 167.035 54.8005 167.514 55.3221C167.992 55.8435 168.231 56.4822 168.231 57.2383V71.4587H164.629V58.9454C164.629 58.3633 164.539 57.9396 164.361 57.6744C164.183 57.4096 163.822 57.2772 163.278 57.2772C162.968 57.2772 162.66 57.3356 162.355 57.4529C162.05 57.5705 161.823 57.6788 161.673 57.7787C161.523 57.8786 161.308 58.0377 161.025 58.2546V71.4586H157.424Z" fill="black"/>
<path d="M171.455 71.4587V48.1011H175.058V71.4585L171.455 71.4587Z" fill="black"/>
<path d="M54.8657 85.9437C54.0971 85.9437 53.5213 85.7518 53.1368 85.3679C52.7525 84.9836 52.5605 84.377 52.5605 83.5463V78.5323H53.6299V83.4627C53.6299 84.0142 53.7208 84.4272 53.9032 84.7032C54.0855 84.979 54.4141 85.1161 54.8894 85.1161C55.3803 85.1161 55.7147 84.9747 55.893 84.6923C56.0717 84.41 56.1604 84.0002 56.1604 83.4626V78.5322H57.2298V83.5466C57.2298 84.3626 57.0319 84.9669 56.6358 85.3576C56.2395 85.7482 55.6495 85.9437 54.8657 85.9437Z" fill="black"/>
<path d="M63.1939 85.7869C63.0038 85.3747 62.7876 84.93 62.5463 84.4522C62.3041 83.9743 62.051 83.493 61.7857 83.0074C61.5201 82.5225 61.2488 82.0409 60.972 81.5628C60.6945 81.085 60.4216 80.64 60.1524 80.2284V85.7868H59.1543V78.5323H60.0446C60.3458 78.9652 60.6369 79.4083 60.9181 79.8618C61.199 80.3157 61.4663 80.7637 61.72 81.2064C61.9737 81.6498 62.2135 82.0862 62.4389 82.5147C62.6647 82.9444 62.8726 83.3505 63.0627 83.734V78.5322H64.0604V85.7862H63.1939V85.7869Z" fill="black"/>
<path d="M66.0566 78.5322H67.1256V85.7862H66.0566V78.5322Z" fill="black"/>
<path d="M69.1211 85.7869V78.5322H72.816V79.3387H70.1908V81.5889H72.5668V82.3738H70.1908V84.9807H73.0065V85.7868H69.1211V85.7869Z" fill="black"/>
<path d="M79.2431 78.5323C79.0689 78.7697 78.873 79.0306 78.6555 79.3166C78.4378 79.6025 78.2139 79.8969 77.9845 80.2001C77.7556 80.5034 77.5238 80.8011 77.2907 81.0942C77.0572 81.3868 76.8333 81.6586 76.6199 81.9098C76.8575 82.1193 77.1149 82.3829 77.3919 82.7008C77.6688 83.0187 77.9417 83.354 78.2108 83.7066C78.4801 84.0595 78.7332 84.4173 78.9708 84.7804C79.2082 85.1438 79.3981 85.4792 79.5408 85.787H78.342C78.1756 85.4648 77.9832 85.1374 77.7652 84.8009C77.5477 84.4656 77.3173 84.1425 77.0761 83.8314C76.8342 83.5198 76.5888 83.2319 76.3393 82.9664C76.0897 82.7007 75.8462 82.477 75.6085 82.2954V85.7863H74.5391V78.5324H75.6085V81.73C75.8142 81.5004 76.0317 81.2389 76.2617 80.9466C76.4916 80.6539 76.7191 80.3613 76.9448 80.0689C77.1707 79.7764 77.3826 79.496 77.5806 79.2274C77.7784 78.9585 77.9445 78.7273 78.0791 78.5322H79.2431V78.5323Z" fill="black"/>
<path d="M80.6582 85.7869V78.5322H84.3533V79.3387H81.7272V81.5889H84.1038V82.3738H81.7272V84.9807H84.5433V85.7868H80.6582V85.7869Z" fill="black"/>
<path d="M88.724 85.9436C87.7578 85.9436 87.0174 85.6257 86.5023 84.9906C85.9873 84.3561 85.7305 83.3751 85.7305 82.0495C85.7305 81.3728 85.8031 80.8002 85.9504 80.3327C86.0962 79.8656 86.3008 79.4847 86.5623 79.1921C86.8237 78.8988 87.1325 78.6876 87.4887 78.5588C87.8447 78.4298 88.233 78.3647 88.6531 78.3647C89.0008 78.3647 89.3258 78.4056 89.6269 78.4853C89.9282 78.5659 90.1735 78.6653 90.3632 78.7833L90.0424 79.5684C89.8524 79.4572 89.6485 79.3666 89.4304 79.2967C89.2125 79.2269 88.961 79.192 88.6762 79.192C88.0425 79.192 87.5831 79.4237 87.2981 79.8876C87.0127 80.3518 86.8702 81.0721 86.8702 82.0493C86.8702 83.0331 87.0206 83.7908 87.3218 84.3206C87.6233 84.8508 88.1137 85.1161 88.7952 85.1161C89.1192 85.1161 89.3832 85.081 89.5849 85.0112C89.7867 84.9413 89.9828 84.8508 90.1724 84.7395L90.47 85.4827C90.2872 85.6082 90.0481 85.7172 89.7511 85.8074C89.4551 85.898 89.1118 85.9436 88.724 85.9436Z" fill="black"/>
<path d="M94.5645 78.5322C94.7541 79.055 94.9424 79.5835 95.1283 80.1172C95.3138 80.651 95.4963 81.2112 95.6741 81.7972C95.8523 82.3839 96.0302 83.0044 96.2083 83.6605C96.3859 84.3172 96.5653 85.0255 96.7447 85.7868H95.6752C95.6143 85.472 95.5493 85.1618 95.4833 84.8544C95.4172 84.5476 95.3485 84.2409 95.2781 83.9335H92.6805C92.6015 84.2403 92.5298 84.5471 92.466 84.8544C92.4025 85.1613 92.3391 85.4721 92.2777 85.7862H91.2441C91.4192 85.0258 91.5977 84.3178 91.7806 83.6622C91.9629 83.006 92.1434 82.3853 92.323 81.7991C92.5015 81.2132 92.6839 80.6537 92.8714 80.1201C93.0573 79.5859 93.247 79.0567 93.4384 78.5323H94.5643V78.5322H94.5645ZM93.9825 79.6002C93.7896 80.1816 93.602 80.7645 93.4196 81.3502C93.2363 81.9355 93.0618 82.535 92.8949 83.1483H95.0511C94.8934 82.5346 94.7235 81.9348 94.5416 81.3489C94.3602 80.763 94.1736 80.18 93.9825 79.6002Z" fill="black"/>
<path d="M103.172 82.1544C103.172 82.8308 103.091 83.4051 102.929 83.8761C102.766 84.347 102.532 84.7286 102.228 85.0219C101.923 85.3156 101.555 85.528 101.123 85.6606C100.691 85.793 100.21 85.8594 99.6794 85.8594C99.1407 85.8594 98.5706 85.7966 97.9688 85.6713V78.6372C98.2701 78.5818 98.5629 78.536 98.8477 78.5011C99.1328 78.4661 99.4062 78.449 99.6679 78.449C100.206 78.449 100.692 78.5156 101.123 78.6478C101.555 78.7803 101.923 78.9933 102.228 79.2864C102.532 79.5794 102.766 79.9613 102.929 80.4324C103.091 80.9035 103.172 81.4776 103.172 82.1544ZM102.032 82.1544C102.032 81.6378 101.988 81.1982 101.901 80.8351C101.814 80.4726 101.68 80.1762 101.498 79.9456C101.315 79.7151 101.076 79.5479 100.779 79.4434C100.482 79.3391 100.127 79.2865 99.7159 79.2865C99.6049 79.2865 99.4942 79.2897 99.3833 79.297C99.2721 79.3039 99.1575 79.3147 99.0387 79.3281V84.9808C99.1575 84.9946 99.272 85.0053 99.3833 85.0118C99.4942 85.0192 99.6013 85.0223 99.704 85.0223C100.124 85.0223 100.48 84.9703 100.773 84.8654C101.067 84.7606 101.306 84.5947 101.492 84.3686C101.678 84.1416 101.814 83.8467 101.902 83.4834C101.988 83.1208 102.032 82.6777 102.032 82.1544Z" fill="black"/>
<path d="M104.822 85.7869V78.5322H108.517V79.3387H105.892V81.5889H108.268V82.3738H105.892V84.9807H108.707V85.7868H104.822V85.7869Z" fill="black"/>
<path d="M112.918 78.5322C113.108 79.055 113.296 79.5835 113.482 80.1172C113.668 80.651 113.85 81.2112 114.027 81.7972C114.205 82.3839 114.383 83.0044 114.561 83.6605C114.74 84.3172 114.919 85.0255 115.098 85.7868H114.029C113.967 85.472 113.903 85.1618 113.837 84.8544C113.77 84.5476 113.702 84.2409 113.632 83.9335H111.034C110.955 84.2403 110.884 84.5471 110.82 84.8544C110.756 85.1613 110.693 85.4721 110.631 85.7862H109.598C109.773 85.0258 109.952 84.3178 110.134 83.6622C110.317 83.006 110.497 82.3853 110.676 81.7991C110.855 81.2132 111.038 80.6537 111.225 80.1201C111.411 79.5859 111.601 79.0567 111.792 78.5323H112.918V78.5322H112.918ZM112.336 79.6002C112.143 80.1816 111.956 80.7645 111.773 81.3502C111.59 81.9355 111.415 82.535 111.248 83.1483H113.405C113.247 82.5346 113.077 81.9348 112.895 81.3489C112.714 80.763 112.527 80.18 112.336 79.6002Z" fill="black"/>
<path d="M118.39 85.9437C117.621 85.9437 117.046 85.7518 116.662 85.3679C116.277 84.9836 116.086 84.377 116.086 83.5463V78.5323H117.155V83.4627C117.155 84.0142 117.245 84.4272 117.428 84.7032C117.61 84.979 117.939 85.1161 118.414 85.1161C118.905 85.1161 119.24 84.9747 119.418 84.6923C119.597 84.41 119.685 84.0002 119.685 83.4626V78.5322H120.754V83.5466C120.754 84.3626 120.557 84.9669 120.16 85.3576C119.764 85.7482 119.174 85.9437 118.39 85.9437Z" fill="black"/>
<path d="M130.775 78.5322C130.965 79.055 131.152 79.5835 131.339 80.1172C131.524 80.651 131.706 81.2112 131.885 81.7972C132.063 82.3839 132.24 83.0044 132.419 83.6605C132.597 84.3172 132.776 85.0255 132.955 85.7868H131.885C131.824 85.472 131.759 85.1618 131.694 84.8544C131.628 84.5476 131.559 84.2409 131.489 83.9335H128.891C128.812 84.2403 128.74 84.5471 128.676 84.8544C128.613 85.1613 128.55 85.4721 128.489 85.7862H127.455C127.63 85.0258 127.809 84.3178 127.991 83.6622C128.174 83.006 128.355 82.3853 128.534 81.7991C128.712 81.2132 128.895 80.6537 129.082 80.1201C129.269 79.5859 129.458 79.0567 129.649 78.5323H130.775V78.5322H130.775ZM130.193 79.6002C130 80.1816 129.812 80.7645 129.63 81.3502C129.447 81.9355 129.271 82.535 129.105 83.1483H131.261C131.103 82.5346 130.933 81.9348 130.752 81.3489C130.57 80.763 130.384 80.18 130.193 79.6002Z" fill="black"/>
<path d="M134.189 78.637C134.743 78.5185 135.278 78.4595 135.793 78.4595C136.205 78.4595 136.577 78.5009 136.91 78.5849C137.243 78.6687 137.527 78.8011 137.765 78.9828C138.003 79.1639 138.186 79.3977 138.318 79.6841C138.448 79.9702 138.514 80.3157 138.514 80.7203C138.514 81.2222 138.405 81.6294 138.188 81.9398C137.97 82.2504 137.675 82.4854 137.303 82.6462C137.398 82.7861 137.518 82.9756 137.665 83.2166C137.811 83.4576 137.961 83.7226 138.115 84.012C138.27 84.302 138.42 84.6004 138.568 84.9069C138.714 85.2146 138.838 85.5075 138.941 85.7869H137.864C137.777 85.5772 137.669 85.3398 137.539 85.0748C137.409 84.8093 137.273 84.5461 137.132 84.2847C136.99 84.0227 136.848 83.772 136.706 83.5308C136.564 83.2899 136.438 83.086 136.328 82.9184C136.201 82.9327 136.07 82.9428 135.936 82.95C135.801 82.9568 135.667 82.9602 135.532 82.9602H135.235V85.7869H134.189V78.637ZM135.235 82.1854H135.686C136.233 82.1854 136.652 82.0759 136.945 81.856C137.239 81.6362 137.385 81.2576 137.385 80.7202C137.385 80.4481 137.347 80.2195 137.272 80.0346C137.196 79.8498 137.09 79.7034 136.952 79.5952C136.813 79.4866 136.646 79.4085 136.452 79.3592C136.258 79.3104 136.042 79.2862 135.804 79.2862C135.599 79.2862 135.409 79.2967 135.234 79.3176V82.1854H135.235Z" fill="black"/>
<path d="M144.015 78.5322V79.3387H142.187V85.7862H141.117V79.3385H139.287V78.5322H144.015Z" fill="black"/>
<path d="M145.18 78.5322H146.248V85.7862H145.18V78.5322Z" fill="black"/>
<path d="M152.951 78.5323C152.777 78.7697 152.58 79.0306 152.363 79.3166C152.145 79.6025 151.922 79.8969 151.693 80.2001C151.463 80.5034 151.231 80.8011 150.998 81.0942C150.764 81.3873 150.54 81.6586 150.327 81.9098C150.565 82.1193 150.822 82.3829 151.099 82.7008C151.375 83.0187 151.649 83.354 151.918 83.7066C152.186 84.0595 152.441 84.4173 152.677 84.7804C152.915 85.1438 153.105 85.4792 153.248 85.787H152.049C151.883 85.4648 151.69 85.1374 151.473 84.8009C151.254 84.4656 151.025 84.1425 150.783 83.8314C150.541 83.5198 150.295 83.2319 150.046 82.9664C149.797 82.7007 149.553 82.477 149.316 82.2954V85.7863H148.246V78.5324H149.316V81.73C149.521 81.5004 149.739 81.2389 149.968 80.9466C150.197 80.6539 150.426 80.3613 150.651 80.0689C150.876 79.7764 151.089 79.496 151.287 79.2274C151.484 78.9585 151.651 78.7273 151.785 78.5322H152.951V78.5323Z" fill="black"/>
<path d="M154.365 85.7869V78.5322H158.06V79.3387H155.434V81.5889H157.81V82.3738H155.434V84.9807H158.25V85.7868H154.365V85.7869Z" fill="black"/>
<path d="M163.453 84.9806V85.7869H159.781V78.5322H160.851V84.9806H163.453Z" fill="black"/>
<path d="M164.734 85.7869V78.5322H168.43V79.3387H165.804V81.5889H168.18V82.3738H165.804V84.9807H168.62V85.7868H164.734V85.7869Z" fill="black"/>
<path d="M174.191 85.7869C174.002 85.3747 173.786 84.93 173.544 84.4522C173.303 83.9743 173.049 83.493 172.784 83.0074C172.519 82.5225 172.248 82.0409 171.97 81.5628C171.692 81.085 171.419 80.64 171.15 80.2284V85.7868H170.152V78.5323H171.044C171.344 78.9652 171.635 79.4083 171.916 79.8618C172.198 80.3157 172.465 80.7637 172.718 81.2064C172.972 81.6498 173.212 82.0862 173.437 82.5147C173.662 82.944 173.87 83.3505 174.061 83.734V78.5322H175.059V85.7862H174.191V85.7867H174.191V85.7869Z" fill="black"/>
<path d="M7.85938 95.6241C7.85938 94.7933 7.93116 94.0864 8.07538 93.5006C8.21922 92.9162 8.42577 92.4389 8.69344 92.0707C8.96147 91.7016 9.28576 91.4355 9.66601 91.2699C10.0456 91.1048 10.4721 91.0217 10.944 91.0217C11.3044 91.0217 11.6324 91.0748 11.9284 91.1809C12.2243 91.2866 12.4646 91.4083 12.6489 91.5436L12.3129 92.4969C12.1289 92.3614 11.9289 92.2491 11.7127 92.1599C11.4961 92.0707 11.2485 92.0268 10.9686 92.0268C10.2722 92.0268 9.77195 92.3256 9.46797 92.9228C9.1639 93.5206 9.0121 94.4212 9.0121 95.6246C9.0121 96.2691 9.05749 96.82 9.15015 97.2778C9.24186 97.7355 9.37242 98.1088 9.53976 98.3968C9.70803 98.6851 9.91224 98.8974 10.1524 99.0325C10.3925 99.1684 10.6602 99.236 10.9566 99.236C11.2044 99.236 11.4167 99.2062 11.5926 99.1469V95.7015H12.6729V99.8459C12.4569 99.9561 12.1889 100.049 11.8688 100.126C11.5486 100.202 11.2126 100.24 10.8603 100.24C10.4276 100.24 10.0281 100.149 9.65983 99.967C9.29193 99.7852 8.9742 99.5048 8.7057 99.1278C8.43766 98.7506 8.23008 98.2717 8.08165 97.691C7.93303 97.1101 7.85938 96.4211 7.85938 95.6241Z" fill="black"/>
<path d="M14.5098 100.036V91.2258H18.2431V92.2049H15.5901V94.939H17.9911V95.8923H15.5901V99.0585H18.4354V100.037H14.5098V100.036Z" fill="black"/>
<path d="M19.9844 91.3525C20.5441 91.2086 21.0922 91.1365 21.6289 91.1365C22.0448 91.1365 22.4227 91.1896 22.7631 91.2959C23.1032 91.4013 23.3952 91.5672 23.6393 91.7913C23.8832 92.0158 24.0719 92.3064 24.2038 92.6624C24.3357 93.0184 24.4013 93.4468 24.4013 93.9466C24.4013 94.4554 24.3331 94.8898 24.1976 95.2496C24.0618 95.6099 23.8694 95.9023 23.6212 96.1268C23.3735 96.3513 23.0756 96.5148 22.7276 96.616C22.3791 96.7184 21.9929 96.7684 21.5688 96.7684H21.0643V100.036H19.9845L19.9844 91.3525ZM21.0647 95.7639H21.4974C21.7692 95.7639 22.0152 95.7329 22.2355 95.6691C22.4554 95.6056 22.6416 95.5017 22.7939 95.3576C22.9457 95.2138 23.0619 95.0276 23.1419 94.7988C23.2218 94.5698 23.2619 94.2858 23.2619 93.9465C23.2619 93.6077 23.2219 93.3216 23.1419 93.0878C23.062 92.8551 22.9519 92.6687 22.8119 92.5282C22.671 92.3887 22.5013 92.2891 22.3013 92.2294C22.1013 92.1704 21.8813 92.1402 21.6411 92.1402C21.4326 92.1402 21.2401 92.1534 21.0648 92.1786V95.7639H21.0647Z" fill="black"/>
<path d="M25.8047 100.036V91.2258H29.5381V92.2049H26.885V94.939H29.286V95.8923H26.885V99.0585H29.7303V100.037H25.8047V100.036Z" fill="black"/>
<path d="M31.2776 91.3525C31.838 91.2086 32.3778 91.1365 32.8979 91.1365C33.3141 91.1365 33.6904 91.1874 34.027 91.2893C34.3632 91.3903 34.6511 91.5517 34.8913 91.7723C35.131 91.9925 35.3167 92.2766 35.4491 92.6242C35.5816 92.9714 35.6473 93.392 35.6473 93.8825C35.6473 94.4929 35.5371 94.987 35.3167 95.3637C35.0965 95.7408 34.7986 96.0271 34.4228 96.2219C34.5187 96.3917 34.6407 96.6228 34.7892 96.9144C34.9366 97.2065 35.0889 97.5291 35.245 97.8809C35.401 98.2327 35.5528 98.5952 35.7008 98.968C35.8492 99.341 35.975 99.6968 36.079 100.035H34.9906C34.9031 99.7813 34.7938 99.4933 34.6625 99.1708C34.5311 98.849 34.3939 98.5287 34.2502 98.211C34.1073 97.8936 33.9637 97.5881 33.8208 97.2958C33.677 97.0032 33.5499 96.7553 33.4388 96.5527C33.3102 96.5692 33.1787 96.5822 33.0425 96.5903C32.9063 96.5991 32.7701 96.6031 32.6339 96.6031H32.3341V100.035H31.2773L31.2776 91.3525ZM32.3344 95.6624H32.7902C33.3425 95.6624 33.7671 95.5289 34.063 95.2619C34.3586 94.9949 34.5065 94.5348 34.5065 93.8822C34.5065 93.5516 34.4687 93.2746 34.393 93.0496C34.3169 92.8249 34.2087 92.6468 34.0686 92.5154C33.9287 92.3838 33.7603 92.2886 33.5647 92.2291C33.3684 92.1701 33.1504 92.1398 32.9103 92.1398C32.7021 92.1398 32.5103 92.153 32.3344 92.1782V95.6624Z" fill="black"/>
<path d="M38.481 99.2478C38.913 99.2478 39.2473 99.1214 39.4833 98.8668C39.7187 98.6123 39.8368 98.269 39.8368 97.8367C39.8368 97.6077 39.801 97.4043 39.7291 97.2263C39.6572 97.0483 39.563 96.8877 39.4468 96.7431C39.3309 96.5992 39.1966 96.4677 39.0445 96.3492C38.8923 96.2306 38.7362 96.1116 38.5765 95.9928C38.3925 95.8569 38.2002 95.7129 38.0006 95.5607C37.8001 95.4082 37.6177 95.2302 37.454 95.0267C37.29 94.8238 37.1561 94.5864 37.0522 94.3152C36.9476 94.0441 36.8962 93.7261 36.8962 93.3614C36.8962 93.0058 36.9538 92.6833 37.07 92.3949C37.1854 92.1068 37.3458 91.8606 37.5499 91.6579C37.7542 91.4546 37.9977 91.2975 38.2823 91.1871C38.566 91.0767 38.8725 91.022 39.2005 91.022C39.5206 91.022 39.8161 91.065 40.0885 91.1488C40.3608 91.2339 40.5887 91.3354 40.7727 91.4541L40.4365 92.3566C40.2686 92.2381 40.0862 92.1474 39.8904 92.0833C39.6943 92.0195 39.4881 91.9883 39.2725 91.9883C38.8799 91.9883 38.566 92.1007 38.3297 92.3246C38.0938 92.5493 37.9761 92.8777 37.9761 93.3101C37.9761 93.5472 38.0143 93.7548 38.0905 93.9329C38.1661 94.1111 38.2664 94.2723 38.3903 94.4162C38.5147 94.5599 38.6588 94.6916 38.823 94.8101C38.9869 94.9285 39.1611 95.052 39.3454 95.1791C39.5294 95.3063 39.7179 95.4458 39.9094 95.5984C40.1019 95.7512 40.2754 95.9268 40.432 96.1265C40.588 96.3264 40.7157 96.5588 40.8159 96.8258C40.9161 97.0929 40.9662 97.4089 40.9662 97.7728C40.9662 98.1038 40.918 98.4172 40.8215 98.7138C40.726 99.011 40.5758 99.271 40.3714 99.4957C40.1675 99.7202 39.911 99.8982 39.6036 100.03C39.2953 100.161 38.9331 100.226 38.517 100.226C38.1331 100.226 37.7975 100.18 37.5086 100.087C37.2196 99.994 36.9645 99.8706 36.7402 99.7179L37.0759 98.8023C37.2845 98.9382 37.4986 99.0464 37.7189 99.1264C37.9391 99.2078 38.193 99.2478 38.481 99.2478Z" fill="black"/>
<path d="M47.9508 95.637C47.9508 96.3239 47.8931 96.9492 47.7772 97.5127C47.6614 98.077 47.4808 98.5592 47.2369 98.9623C46.993 99.3649 46.6846 99.6765 46.313 99.8967C45.9409 100.118 45.5026 100.228 44.9986 100.228C44.4947 100.228 44.0558 100.118 43.6838 99.8967C43.3116 99.6766 43.0033 99.3649 42.7594 98.9623C42.5155 98.5592 42.3339 98.077 42.2138 97.5127C42.0938 96.9492 42.0332 96.3239 42.0332 95.637C42.0332 94.9506 42.0937 94.3232 42.2138 93.755C42.3339 93.1878 42.5154 92.7027 42.7594 92.2997C43.0033 91.897 43.3117 91.5831 43.6838 91.3593C44.0557 91.1347 44.4946 91.022 44.9986 91.022C45.5027 91.022 45.9404 91.1347 46.313 91.3593C46.685 91.5831 46.9929 91.8976 47.2369 92.2997C47.4809 92.7027 47.6615 93.1881 47.7772 93.755C47.8931 94.3232 47.9508 94.9504 47.9508 95.637ZM46.7989 95.637C46.7989 95.1037 46.7668 94.616 46.703 94.175C46.6383 93.734 46.5352 93.3545 46.3905 93.0363C46.2467 92.7182 46.0605 92.4708 45.8326 92.2931C45.6046 92.1149 45.3267 92.0257 44.9986 92.0257C44.67 92.0257 44.3924 92.1149 44.164 92.2931C43.9357 92.4708 43.7504 92.7194 43.6056 93.0363C43.4618 93.3545 43.3554 93.7334 43.2879 94.175C43.2193 94.6154 43.1857 95.1029 43.1857 95.637C43.1857 96.1712 43.2192 96.6586 43.2879 97.0992C43.3554 97.5396 43.4614 97.9171 43.6056 98.2306C43.7503 98.5445 43.9357 98.7879 44.164 98.9618C44.3924 99.1353 44.67 99.222 44.9986 99.222C45.3267 99.222 45.6047 99.1353 45.8326 98.9618C46.0605 98.7879 46.2464 98.5446 46.3905 98.2306C46.5351 97.9173 46.6381 97.5396 46.703 97.0992C46.7669 96.6586 46.7989 96.171 46.7989 95.637Z" fill="black"/>
<path d="M53.7147 100.036C53.5228 99.5369 53.3042 98.9965 53.0603 98.415C52.8163 97.835 52.5601 97.2501 52.292 96.6601C52.0238 96.0714 51.7497 95.4859 51.4697 94.9052C51.1895 94.3253 50.9137 93.7848 50.6414 93.2849V100.035H49.6328V91.2253H50.5327C50.8371 91.7508 51.1313 92.2892 51.4147 92.8398C51.6994 93.3916 51.9694 93.9351 52.2252 94.4732C52.4815 95.0118 52.7236 95.5416 52.9514 96.063C53.1797 96.5839 53.3902 97.0781 53.5822 97.544V91.2253H54.5907V100.036H53.7146L53.7147 100.036Z" fill="black"/>
<path d="M59.1943 91.2253C59.3857 91.8602 59.5765 92.5013 59.7641 93.1501C59.9523 93.7984 60.1356 94.4791 60.3154 95.1912C60.495 95.9026 60.6757 96.6577 60.8553 97.4548C61.035 98.2511 61.2157 99.1116 61.3972 100.036H60.3174C60.2549 99.6548 60.1907 99.2778 60.1231 98.9042C60.0555 98.532 59.9865 98.1584 59.9155 97.7858H57.2914C57.2111 98.1587 57.1391 98.5317 57.0748 98.9042C57.0105 99.2778 56.9472 99.6546 56.8848 100.036H55.8398C56.0167 99.1121 56.1972 98.2524 56.3817 97.4557C56.566 96.6589 56.7495 95.9055 56.9302 95.1933C57.111 94.4814 57.2951 93.8012 57.4839 93.153C57.6724 92.5046 57.8641 91.8619 58.0574 91.2253H59.1943ZM58.6066 92.522C58.4117 93.2282 58.2218 93.9364 58.0373 94.6474C57.8529 95.3583 57.6761 96.0869 57.5069 96.8321H59.6858C59.5259 96.0858 59.3547 95.3573 59.1712 94.6459C58.9876 93.9343 58.7995 93.2261 58.6066 92.522Z" fill="black"/>
<path d="M66.3517 99.0575V100.036H62.6426V91.2258H63.7224V99.0581H66.3516L66.3517 99.0575Z" fill="black"/>
<path d="M67.6504 91.2253H68.7309V100.036H67.6504V91.2253Z" fill="black"/>
<path d="M71.7785 99.2478C72.2113 99.2478 72.5449 99.1214 72.7804 98.8668C73.0168 98.6123 73.1346 98.269 73.1346 97.8367C73.1346 97.6077 73.0981 97.4043 73.0263 97.2263C72.9543 97.0483 72.8609 96.8877 72.7445 96.7431C72.6282 96.5992 72.494 96.4677 72.3422 96.3492C72.1903 96.2306 72.0334 96.1116 71.8736 95.9928C71.6903 95.8569 71.4977 95.7129 71.2977 95.5607C71.0972 95.4082 70.9153 95.2302 70.7517 95.0267C70.5876 94.8238 70.4533 94.5864 70.3493 94.3152C70.2452 94.0441 70.1933 93.7261 70.1933 93.3614C70.1933 93.0058 70.2515 92.6833 70.3674 92.3949C70.4827 92.1068 70.6434 91.8606 70.8476 91.6579C71.0519 91.4546 71.2954 91.2975 71.5795 91.1871C71.8631 91.0767 72.1696 91.022 72.4976 91.022C72.8183 91.022 73.1137 91.065 73.3857 91.1488C73.6579 91.2339 73.8858 91.3354 74.0702 91.4541L73.734 92.3566C73.5662 92.2381 73.3836 92.1474 73.188 92.0833C72.9917 92.0195 72.7856 91.9883 72.5695 91.9883C72.1772 91.9883 71.8631 92.1007 71.6277 92.3246C71.3914 92.5493 71.2736 92.8777 71.2736 93.3101C71.2736 93.5472 71.312 93.7548 71.3876 93.9329C71.4641 94.1111 71.5634 94.2723 71.6883 94.4162C71.8121 94.5599 71.9559 94.6916 72.1204 94.8101C72.2844 94.9285 72.458 95.052 72.6424 95.1791C72.8268 95.3063 73.015 95.4458 73.2069 95.5984C73.3988 95.7512 73.5728 95.9268 73.7289 96.1265C73.8858 96.3264 74.0126 96.5588 74.1128 96.8258C74.2129 97.0929 74.2632 97.4089 74.2632 97.7728C74.2632 98.1038 74.2149 98.4172 74.1189 98.7138C74.0228 99.011 73.8725 99.271 73.6682 99.4957C73.465 99.7202 73.2079 99.8982 72.9004 100.03C72.5922 100.161 72.2299 100.226 71.8139 100.226C71.43 100.226 71.0943 100.18 70.8058 100.087C70.5174 99.994 70.2613 99.8706 70.0371 99.7179L70.3733 98.8023C70.5819 98.9382 70.7955 99.0464 71.0159 99.1264C71.2362 99.2078 71.4896 99.2478 71.7785 99.2478Z" fill="black"/>
<path d="M75.5488 100.036V91.2258H79.2822V92.2049H76.6298V94.939H79.0298V95.8923H76.6294V99.0585H79.4743V100.037H75.549V100.036H75.5488Z" fill="black"/>
<path d="M81.0216 100.036V91.2258H84.7544V92.2049H82.1021V94.939H84.5029V95.8923H82.1021V99.0585H84.9473V100.037H81.0215L81.0216 100.036Z" fill="black"/>
<path d="M86.4952 91.3525C87.0549 91.2086 87.5954 91.1365 88.1159 91.1365C88.532 91.1365 88.9085 91.1874 89.2441 91.2893C89.5799 91.3909 89.8684 91.5517 90.1085 91.7723C90.3486 91.9925 90.5349 92.2766 90.6664 92.6242C90.7976 92.9714 90.8645 93.392 90.8645 93.8825C90.8645 94.4929 90.7544 94.987 90.534 95.3637C90.3137 95.7408 90.0163 96.0271 89.6395 96.2219C89.7352 96.3917 89.8573 96.6228 90.0063 96.9144C90.1538 97.2072 90.3056 97.5291 90.4615 97.8809C90.6182 98.2327 90.7698 98.5952 90.9178 98.968C91.0654 99.341 91.1915 99.6968 91.2961 100.035H90.2075C90.1197 99.7813 90.0099 99.4933 89.8784 99.1708C89.7471 98.849 89.6099 98.5287 89.4662 98.211C89.3234 97.8936 89.1797 97.5881 89.0368 97.2958C88.8931 97.0032 88.7655 96.7553 88.6549 96.5527C88.5263 96.5692 88.3937 96.5822 88.2585 96.5903C88.1223 96.5991 87.9863 96.6031 87.8501 96.6031H87.5503V100.035H86.4941V91.3525H86.4952ZM87.5513 95.6624H88.0072C88.5594 95.6624 88.9832 95.5289 89.2801 95.2619C89.5756 94.9949 89.7236 94.5348 89.7236 93.8822C89.7236 93.5516 89.6856 93.2746 89.61 93.0496C89.5339 92.8249 89.4256 92.6468 89.2857 92.5154C89.1458 92.3838 88.9774 92.2886 88.7814 92.2291C88.5855 92.1701 88.3674 92.1398 88.1273 92.1398C87.9186 92.1398 87.7274 92.153 87.5513 92.1782V95.6624Z" fill="black"/>
<path d="M97.9102 95.6242C97.9102 96.4465 97.8288 97.1435 97.6644 97.716C97.4997 98.2879 97.2642 98.7521 96.9559 99.1078C96.6476 99.4643 96.2759 99.7224 95.8391 99.8837C95.4032 100.045 94.9172 100.125 94.3808 100.125C93.8363 100.125 93.2603 100.049 92.6523 99.8962V91.3525C92.9558 91.2846 93.253 91.2297 93.5403 91.1874C93.8287 91.1454 94.1046 91.1235 94.3688 91.1235C94.9132 91.1235 95.4032 91.2049 95.8391 91.3656C96.2751 91.5267 96.6474 91.7853 96.9559 92.1405C97.2642 92.4968 97.4997 92.9606 97.6644 93.5332C97.8288 94.1057 97.9102 94.8028 97.9102 95.6242ZM96.7582 95.6242C96.7582 94.997 96.714 94.4629 96.626 94.0224C96.5379 93.582 96.4018 93.2216 96.2184 92.942C96.0341 92.6623 95.7919 92.4586 95.4922 92.3314C95.1913 92.2044 94.833 92.1406 94.4171 92.1406C94.3053 92.1406 94.1928 92.1454 94.0812 92.1538C93.9687 92.1621 93.8532 92.1752 93.7332 92.1917V99.0576C93.8532 99.075 93.9688 99.0873 94.0812 99.0953C94.1929 99.1041 94.3016 99.1078 94.4056 99.1078C94.8293 99.1078 95.1896 99.0451 95.4856 98.9171C95.7816 98.7901 96.0237 98.589 96.2118 98.3136C96.4001 98.038 96.5379 97.6797 96.6261 97.2386C96.7141 96.7983 96.7582 96.2604 96.7582 95.6242Z" fill="black"/>
<path d="M99.5781 100.036V91.2258H103.311V92.2049H100.659V94.939H103.059V95.8923H100.659V99.0585H103.504V100.037H99.5783L99.5781 100.036Z" fill="black"/>
<path d="M104.334 95.7134H106.554V96.7434H104.334V95.7134Z" fill="black"/>
<path d="M107.129 95.7134H109.349V96.7434H107.129V95.7134Z" fill="black"/>
<path d="M110.646 100.036V91.2258H114.379V92.2049H111.726V94.9764H114.079V95.9302H111.726V100.037H110.647L110.646 100.036Z" fill="black"/>
<path d="M121.222 95.637C121.222 96.3239 121.164 96.9492 121.048 97.5127C120.932 98.077 120.753 98.5592 120.509 98.9623C120.264 99.3649 119.955 99.6765 119.584 99.8967C119.212 100.118 118.773 100.228 118.269 100.228C117.765 100.228 117.328 100.118 116.955 99.8967C116.582 99.6766 116.275 99.3649 116.031 98.9623C115.786 98.5592 115.605 98.077 115.484 97.5127C115.364 96.9492 115.305 96.3239 115.305 95.637C115.305 94.9506 115.364 94.3232 115.484 93.755C115.605 93.1878 115.786 92.7027 116.031 92.2997C116.275 91.897 116.583 91.5831 116.955 91.3593C117.326 91.1347 117.765 91.022 118.269 91.022C118.773 91.022 119.212 91.1347 119.584 91.3593C119.956 91.5831 120.264 91.8976 120.509 92.2997C120.752 92.7027 120.932 93.1881 121.048 93.755C121.164 94.3232 121.222 94.9504 121.222 95.637ZM120.07 95.637C120.07 95.1037 120.038 94.616 119.973 94.175C119.909 93.734 119.805 93.3545 119.661 93.0363C119.518 92.7182 119.331 92.4708 119.103 92.2931C118.875 92.1149 118.597 92.0257 118.269 92.0257C117.94 92.0257 117.663 92.1149 117.434 92.2931C117.206 92.4708 117.02 92.7194 116.876 93.0363C116.733 93.3545 116.626 93.7334 116.559 94.175C116.491 94.6154 116.457 95.1029 116.457 95.637C116.457 96.1712 116.491 96.6586 116.559 97.0992C116.626 97.5396 116.733 97.9171 116.876 98.2306C117.02 98.5445 117.206 98.7879 117.434 98.9618C117.663 99.1353 117.94 99.222 118.269 99.222C118.597 99.222 118.875 99.1353 119.103 98.9618C119.332 98.7879 119.518 98.5446 119.661 98.2306C119.805 97.9173 119.909 97.5396 119.973 97.0992C120.038 96.6586 120.07 96.171 120.07 95.637Z" fill="black"/>
<path d="M126.481 91.2253V92.2043H124.632V100.036H123.552V92.2043H121.703V91.2253H126.481Z" fill="black"/>
<path d="M132.878 95.637C132.878 96.3239 132.82 96.9492 132.704 97.5127C132.588 98.077 132.409 98.5592 132.165 98.9623C131.92 99.3649 131.612 99.6765 131.24 99.8967C130.868 100.118 130.43 100.228 129.925 100.228C129.421 100.228 128.984 100.118 128.611 99.8967C128.238 99.6766 127.931 99.3649 127.687 98.9623C127.442 98.5592 127.261 98.077 127.141 97.5127C127.021 96.9492 126.961 96.3239 126.961 95.637C126.961 94.9506 127.021 94.3232 127.141 93.755C127.261 93.1878 127.442 92.7027 127.687 92.2997C127.931 91.897 128.239 91.5831 128.611 91.3593C128.983 91.1347 129.421 91.022 129.925 91.022C130.43 91.022 130.867 91.1347 131.24 91.3593C131.612 91.5831 131.92 91.8976 132.165 92.2997C132.409 92.7027 132.588 93.1881 132.704 93.755C132.82 94.3232 132.878 94.9504 132.878 95.637ZM131.726 95.637C131.726 95.1037 131.694 94.616 131.63 94.175C131.566 93.734 131.462 93.3545 131.318 93.0363C131.173 92.7182 130.987 92.4708 130.759 92.2931C130.531 92.1149 130.253 92.0257 129.925 92.0257C129.596 92.0257 129.319 92.1149 129.09 92.2931C128.862 92.4708 128.677 92.7194 128.533 93.0363C128.389 93.3545 128.282 93.7334 128.215 94.175C128.146 94.6154 128.112 95.1029 128.112 95.637C128.112 96.1712 128.146 96.6586 128.215 97.0992C128.283 97.5396 128.389 97.9171 128.533 98.2306C128.677 98.5445 128.863 98.7879 129.09 98.9618C129.319 99.1353 129.596 99.222 129.925 99.222C130.253 99.222 130.532 99.1353 130.759 98.9618C130.988 98.7879 131.173 98.5446 131.318 98.2306C131.462 97.9173 131.566 97.5396 131.63 97.0992C131.694 96.6586 131.726 96.171 131.726 95.637Z" fill="black"/>
<path d="M137.234 100.227C136.257 100.227 135.509 99.8416 134.989 99.0704C134.469 98.299 134.209 97.1078 134.209 95.4975C134.209 94.6757 134.283 93.9802 134.431 93.4125C134.579 92.845 134.785 92.383 135.05 92.0268C135.313 91.6704 135.625 91.4142 135.986 91.2574C136.345 91.1006 136.737 91.0225 137.162 91.0225C137.514 91.0225 137.842 91.0713 138.147 91.1687C138.45 91.2668 138.699 91.3875 138.891 91.5313L138.566 92.4848C138.375 92.3489 138.168 92.2397 137.948 92.1542C137.728 92.0693 137.474 92.0273 137.187 92.0273C136.546 92.0273 136.082 92.3093 135.794 92.8727C135.505 93.4372 135.362 94.3116 135.362 95.4981C135.362 96.6935 135.513 97.6125 135.817 98.2567C136.121 98.9006 136.618 99.223 137.306 99.223C137.634 99.223 137.9 99.1809 138.104 99.0965C138.307 99.0119 138.506 98.9011 138.699 98.766L138.997 99.669C138.814 99.8209 138.572 99.9531 138.271 100.063C137.972 100.172 137.625 100.227 137.234 100.227Z" fill="black"/>
<path d="M143.133 91.2253C143.325 91.8602 143.514 92.5013 143.704 93.1501C143.891 93.7984 144.075 94.4791 144.255 95.1912C144.435 95.9026 144.614 96.6577 144.795 97.4548C144.975 98.2511 145.155 99.1116 145.337 100.036H144.257C144.194 99.6548 144.129 99.2778 144.063 98.9042C143.995 98.532 143.927 98.1584 143.855 97.7858H141.231C141.15 98.1587 141.078 98.5317 141.013 98.9042C140.95 99.2778 140.886 99.6546 140.823 100.036H139.779C139.955 99.1121 140.136 98.2524 140.321 97.4557C140.506 96.6589 140.688 95.9055 140.869 95.1933C141.049 94.4814 141.235 93.8012 141.424 93.153C141.612 92.5046 141.803 91.8619 141.997 91.2253H143.133ZM142.545 92.522C142.351 93.2282 142.161 93.9364 141.976 94.6474C141.792 95.3583 141.615 96.0869 141.446 96.8321H143.625C143.465 96.0858 143.293 95.3573 143.111 94.6459C142.927 93.9343 142.739 93.2261 142.545 92.522Z" fill="black"/>
<path d="M151.832 95.6242C151.832 96.4465 151.751 97.1435 151.586 97.716C151.421 98.2879 151.186 98.7521 150.878 99.1078C150.569 99.4643 150.198 99.7224 149.761 99.8837C149.325 100.045 148.839 100.125 148.303 100.125C147.758 100.125 147.182 100.049 146.574 99.8962V91.3525C146.878 91.2846 147.175 91.2297 147.462 91.1874C147.75 91.1454 148.027 91.1235 148.29 91.1235C148.835 91.1235 149.325 91.2049 149.761 91.3656C150.197 91.5267 150.569 91.7853 150.878 92.1405C151.185 92.4968 151.422 92.9606 151.586 93.5332C151.751 94.1057 151.832 94.8028 151.832 95.6242ZM150.679 95.6242C150.679 94.997 150.635 94.4629 150.548 94.0224C150.46 93.582 150.323 93.2216 150.14 92.942C149.956 92.6623 149.714 92.4586 149.414 92.3314C149.113 92.2044 148.755 92.1406 148.339 92.1406C148.227 92.1406 148.115 92.1454 148.003 92.1538C147.891 92.1621 147.774 92.1752 147.655 92.1917V99.0576C147.774 99.075 147.891 99.0873 148.003 99.0953C148.115 99.1041 148.223 99.1078 148.327 99.1078C148.751 99.1078 149.111 99.0451 149.407 98.9171C149.703 98.7901 149.945 98.589 150.133 98.3136C150.322 98.038 150.46 97.6797 150.548 97.2386C150.636 96.7983 150.679 96.2604 150.679 95.6242Z" fill="black"/>
<path d="M153.5 100.036V91.2258H157.233V92.2049H154.581V94.939H156.981V95.8923H154.581V99.0585H157.425V100.037H153.5L153.5 100.036Z" fill="black"/>
<path d="M161.68 91.2253C161.872 91.8602 162.062 92.5013 162.25 93.1501C162.438 93.7984 162.622 94.4791 162.802 95.1912C162.981 95.9026 163.161 96.6577 163.342 97.4548C163.521 98.2511 163.702 99.1116 163.883 100.036H162.804C162.741 99.6548 162.676 99.2778 162.61 98.9042C162.542 98.532 162.474 98.1584 162.403 97.7858H159.777C159.697 98.1587 159.625 98.5317 159.561 98.9042C159.497 99.2778 159.433 99.6546 159.37 100.036H158.326C158.502 99.1121 158.683 98.2524 158.868 97.4557C159.052 96.6589 159.236 95.9055 159.416 95.1933C159.596 94.4814 159.781 93.8012 159.971 93.153C160.159 92.5046 160.35 91.8619 160.544 91.2253H161.68ZM161.093 92.522C160.898 93.2282 160.708 93.9364 160.523 94.6474C160.338 95.3583 160.162 96.0869 159.993 96.8321H162.172C162.012 96.0858 161.841 95.3573 161.657 94.6459C161.475 93.9343 161.285 93.2261 161.093 92.522Z" fill="black"/>
<path d="M167.208 100.227C166.432 100.227 165.849 99.9944 165.461 99.5275C165.073 99.0615 164.879 98.3243 164.879 97.3155V91.2253H165.96V97.2133C165.96 97.8833 166.052 98.3855 166.236 98.7198C166.419 99.0549 166.751 99.2222 167.232 99.2222C167.728 99.2222 168.067 99.0503 168.246 98.7075C168.427 98.3645 168.517 97.8662 168.517 97.2133V91.2253H169.597V97.3155C169.597 98.3077 169.397 99.0401 168.996 99.5151C168.596 99.9896 168 100.227 167.208 100.227Z" fill="black"/>
<path d="M172.573 99.2478C173.005 99.2478 173.339 99.1214 173.575 98.8668C173.81 98.6123 173.929 98.269 173.929 97.8367C173.929 97.6077 173.893 97.4043 173.821 97.2263C173.749 97.0483 173.654 96.8877 173.539 96.7431C173.423 96.5992 173.288 96.4677 173.136 96.3492C172.985 96.2306 172.828 96.1116 172.668 95.9928C172.483 95.8569 172.292 95.7129 172.092 95.5607C171.892 95.4082 171.71 95.2302 171.546 95.0267C171.382 94.8238 171.248 94.5864 171.144 94.3152C171.04 94.0441 170.988 93.7261 170.988 93.3614C170.988 93.0058 171.045 92.6833 171.161 92.3949C171.278 92.1068 171.438 91.8606 171.642 91.6579C171.846 91.4546 172.09 91.2975 172.374 91.1871C172.658 91.0767 172.964 91.022 173.292 91.022C173.612 91.022 173.908 91.065 174.18 91.1488C174.452 91.2339 174.68 91.3354 174.865 91.4541L174.529 92.3566C174.36 92.2381 174.178 92.1474 173.982 92.0833C173.786 92.0195 173.58 91.9883 173.365 91.9883C172.972 91.9883 172.658 92.1007 172.422 92.3246C172.186 92.5493 172.068 92.8777 172.068 93.3101C172.068 93.5472 172.106 93.7548 172.182 93.9329C172.258 94.1111 172.358 94.2723 172.482 94.4162C172.606 94.5599 172.75 94.6916 172.914 94.8101C173.078 94.9285 173.252 95.052 173.437 95.1791C173.621 95.3063 173.809 95.4458 174.001 95.5984C174.192 95.7516 174.367 95.9268 174.523 96.1265C174.679 96.3264 174.807 96.5588 174.907 96.8258C175.006 97.0929 175.057 97.4089 175.057 97.7728C175.057 98.1038 175.009 98.4172 174.914 98.7138C174.817 99.0103 174.667 99.271 174.463 99.4957C174.258 99.7202 174.003 99.8982 173.695 100.03C173.386 100.161 173.024 100.226 172.608 100.226C172.224 100.226 171.888 100.18 171.6 100.087C171.312 99.994 171.055 99.8706 170.832 99.7179L171.168 98.8023C171.376 98.9382 171.59 99.0464 171.81 99.1264C172.031 99.2078 172.285 99.2478 172.573 99.2478Z" fill="black"/>
<path d="M32.373 43.5947C31.9211 43.7114 31.8023 44.3173 31.4259 44.5236C31.2239 44.6349 31.0854 44.3915 30.8569 44.6602C30.7438 44.7919 30.5264 45.4013 30.3264 45.4013C30.1885 45.4013 30.1885 44.8383 30.1781 44.7467C30.1671 44.6547 30.1578 44.4967 30.0537 44.4513C29.7028 44.2998 29.6413 45.492 29.4258 44.8885C29.3891 44.7883 28.7933 43.3602 28.9559 43.9143C29.0402 44.2041 29.5369 45.5507 28.7968 45.3929C28.5625 45.3433 28.3527 45.1863 28.1386 45.0868C28.0834 45.0613 28.0287 45.0355 27.9734 45.0096C27.7974 44.9286 26.8979 44.438 26.7548 44.5818C26.6984 44.6379 26.7685 44.7248 26.8084 44.7657C27.1734 45.1473 28.4292 45.1548 28.6223 45.5849C28.6916 45.739 27.4312 47.1215 27.2311 47.3748C25.9864 48.9525 24.9503 50.6669 24.0227 52.4275C23.8094 52.831 22.7099 55.5327 22.5196 55.5918C22.383 55.6337 22.0702 55.5911 22.1141 55.3986C22.2184 54.9321 22.8976 54.6874 22.9635 54.2052C23.0187 53.8028 22.0751 54.5588 22.4665 53.8979C22.5782 53.7099 22.7022 53.5296 22.8045 53.336C22.8096 53.3262 22.893 53.1396 22.8847 53.1396C22.826 53.1396 22.6582 53.4896 22.6278 53.5359C22.4624 53.7878 22.1716 54.0516 22.0848 54.3388C22.0812 54.3501 22.0784 54.3615 22.0778 54.3729C22.0553 54.6117 22.8791 54.1023 22.6126 54.4553C22.5753 54.5044 22.5337 54.5498 22.4917 54.594C22.476 54.6111 22.4598 54.6279 22.4439 54.6442L22.3936 54.6955L22.342 54.7468C22.2572 54.8333 22.1716 54.9195 22.0915 55.0087C21.9647 55.1506 21.6129 55.5138 21.8133 55.7108C21.9553 55.8518 22.2873 55.8011 22.3335 56.0396C22.3354 56.0548 22.337 56.0695 22.337 56.0837C22.3346 56.375 22.0037 56.5995 21.8905 56.8521C21.8148 57.0203 21.8367 57.2032 21.8001 57.3773C21.6963 57.8598 21.5171 58.2649 21.2722 58.6931C21.0853 59.0186 20.8573 59.3526 20.7107 59.6936C20.551 60.0628 20.4963 60.4406 20.2991 60.7995C20.2371 60.9113 19.4856 62.1979 19.98 61.7407C20.7188 61.0584 20.8548 59.8746 21.2468 59.0087C21.5418 58.3534 21.8358 57.7439 22.0696 57.0612C22.1686 56.7674 22.4098 56.547 22.5476 56.2713C22.7497 55.868 22.8685 55.4197 23.0549 55.0073C24.0196 52.867 27.2045 47.2376 28.9479 45.8578C29.3714 45.5226 29.3699 46.145 29.4706 46.3894C29.5488 46.5807 29.623 46.3923 29.738 46.449C29.8343 46.4977 29.8642 46.6169 29.987 46.628C30.5206 46.6794 31.4516 45.3858 31.6528 44.9822C31.8491 44.5867 32.1099 44.2417 32.3236 43.8561C32.3668 43.7816 32.345 43.6315 32.373 43.5947Z" fill="black" stroke="black" stroke-width="0.3025" stroke-miterlimit="22.9256" stroke-linejoin="round"/>
<path d="M34.3111 43.855C33.5295 44.071 32.7822 44.8541 32.276 45.4271C31.7271 46.048 31.2108 46.7133 30.8323 47.4431C30.743 47.6153 30.8943 47.4595 30.9444 47.4035C31.4729 46.8211 31.8946 46.1294 32.5062 45.617C32.8555 45.3237 34.3927 44.2256 34.5062 43.9085C34.5365 43.8201 34.2989 43.8739 34.3111 43.855Z" fill="black" stroke="black" stroke-width="0.3025" stroke-miterlimit="22.9256" stroke-linejoin="round"/>
<path d="M32.6125 43.8967C32.4744 44.0289 32.3744 44.1778 32.2271 44.3181L32.1719 44.3709V44.4236C32.3285 44.4236 32.4798 44.0763 32.5575 44.002C32.5964 43.9661 32.735 43.8967 32.6125 43.8967Z" fill="black" stroke="black" stroke-width="0.3025" stroke-miterlimit="22.9256" stroke-linejoin="round"/>
<path d="M33.0896 44.0112C32.8559 44.1476 32.647 44.3552 32.4576 44.5405C32.3987 44.5982 31.428 45.7052 31.727 45.5832C32.4069 45.3067 32.7009 44.4602 33.0896 44.0112Z" fill="black" stroke="black" stroke-width="0.3025" stroke-miterlimit="22.9256" stroke-linejoin="round"/>
<path d="M35.394 44.113C34.9333 44.2401 34.5067 44.5502 34.1575 44.8526C34.07 44.9281 33.9837 45.004 33.8992 45.0812C33.4225 45.5201 34.5297 44.9419 34.7544 44.8996C34.9106 44.8698 35.0616 44.9189 35.2186 44.9108C35.7747 44.8838 36.2864 44.556 36.8418 44.4914C36.9427 44.4807 37.0706 44.5022 36.9243 44.5807C36.6398 44.7344 36.2912 44.7473 36.0145 44.9174C35.5715 45.1912 36.4772 45.0922 36.5397 45.1148C36.6103 45.1405 36.427 45.3209 36.5119 45.4019C36.6468 45.5342 36.8934 45.6113 37.0515 45.7413C37.4074 46.0341 38.061 45.866 38.4906 45.9879C38.6563 46.0355 38.646 46.1217 38.4922 46.1748C38.3963 46.2082 37.9019 46.3435 38.2206 46.4526C38.3339 46.4921 38.6788 46.6075 38.796 46.5628C38.8541 46.5414 38.7422 46.4331 38.7786 46.3835C39.4321 45.4999 38.3796 46.0238 38.1621 45.6598C38.0976 45.554 38.5648 45.4666 38.3732 45.3121C38.3038 45.2561 37.882 45.2263 37.8806 45.1495C37.8791 45.0714 38.1489 44.9777 38.2002 44.9096C38.4096 44.6294 37.5439 44.737 37.6779 44.5602C37.759 44.4536 37.9308 44.4046 37.9709 44.2665C38.103 43.8149 36.319 44.4724 36.0999 44.4335C35.9446 44.4074 36.1487 44.1482 35.9406 44.1178C35.799 44.0987 35.6075 44.1178 35.4615 44.1207C35.4495 44.1213 35.3652 44.1451 35.394 44.113Z" fill="black"/>
<path d="M26.0935 45.541C25.5356 45.7552 27.0712 45.6828 26.5618 45.8766C26.4991 45.9003 26.4335 45.9189 26.3684 45.9366C26.2596 45.9672 26.1499 45.995 26.0414 46.0278C25.8931 46.0707 25.1903 46.2175 25.1903 46.4106C25.1903 46.5915 26.1645 46.1793 25.9931 46.364C25.6869 46.697 23.7514 47.2176 24.0509 47.5421C24.2871 47.7981 25.3365 46.9482 25.5442 46.8361C26.3218 46.4184 26.8903 45.79 27.7919 45.602C27.8016 45.5997 27.9837 45.5583 27.9694 45.5409C27.8523 45.4065 26.2455 45.6628 26.0935 45.541Z" fill="black" stroke="black" stroke-width="0.3025" stroke-miterlimit="22.9256" stroke-linejoin="round"/>
<path d="M36.1973 46.199C36.2426 46.2901 38.6265 48.6012 38.9408 48.9299C40.1207 50.1607 41.2439 51.512 42.1235 52.9542C42.4534 53.4983 42.7512 54.0416 42.9649 54.6359C42.9753 54.6654 43.0309 54.8791 43.0748 54.8791C43.0946 54.8791 43.0738 54.7768 43.0728 54.7701C43.0068 54.4056 42.884 54.0382 42.7482 53.6919C41.7901 51.2745 38.4084 47.6571 36.1973 46.199Z" fill="black" stroke="black" stroke-width="0.3025" stroke-miterlimit="22.9256" stroke-linejoin="round"/>
<path d="M39.7807 47.1633C39.7006 47.1673 39.625 47.1962 39.5464 47.2083C39.4831 47.22 38.9297 47.2155 38.9297 47.2745C38.9296 47.5017 39.6637 47.2444 39.7807 47.1633Z" fill="black" stroke="black" stroke-width="0.3025" stroke-miterlimit="22.9256" stroke-linejoin="round"/>
<path d="M26.0879 47.28C25.6815 47.3546 24.9404 47.6967 24.5548 47.8787C24.5025 47.9035 24.4526 47.9294 24.4048 47.9603C24.3369 48.0016 24.2494 48.0625 24.2352 48.1442C24.1835 48.4411 25.3511 47.9552 24.806 48.3747C24.6905 48.4645 24.5629 48.5407 24.4392 48.6194C24.1437 48.8062 23.4839 49.0906 23.3775 49.4378C23.3551 49.5115 23.4214 49.5231 23.4811 49.5067C23.5494 49.4891 23.6118 49.4541 23.6715 49.4169C24.1652 49.1232 24.7419 48.7414 25.1259 48.3217C25.2486 48.1874 25.2646 48.0208 25.369 47.8826C25.5218 47.6799 25.8849 47.4462 26.0879 47.28Z" fill="black" stroke="black" stroke-width="0.3025" stroke-miterlimit="22.9256" stroke-linejoin="round"/>
<path d="M38.9525 47.8611C38.9227 47.942 39.0267 47.9864 39.0948 48.0177C39.7341 48.3192 40.3403 48.4514 40.8683 48.9536C40.8847 48.9694 41.1085 49.2007 41.1256 49.1542C41.2323 48.8465 40.2135 48.3474 40.0372 48.1609C39.9431 48.063 40.1665 47.9491 40.0857 47.9226C39.7954 47.8303 39.1217 47.9245 38.9525 47.8611Z" fill="black" stroke="black" stroke-width="0.3025" stroke-miterlimit="22.9256" stroke-linejoin="round"/>
<path d="M23.9875 50.4399C23.7933 50.5149 23.6086 50.717 23.4586 50.8515C22.6142 51.6155 24.0166 51.0535 23.4648 51.6667C23.2749 51.8775 23.0115 52.0361 22.8598 52.275C22.8164 52.3444 22.7681 52.6767 22.9573 52.5882C23.0398 52.5511 23.0887 52.38 23.1486 52.3108C23.3467 52.0815 23.7268 51.7029 23.7474 51.4C23.7717 51.0384 23.2926 51.1032 23.9875 50.4399Z" fill="black" stroke="black" stroke-width="0.3025" stroke-miterlimit="22.9256" stroke-linejoin="round"/>
<path d="M34.061 52.877C33.9754 52.8867 33.892 52.8937 33.8081 52.8982C33.2952 52.9286 32.7875 52.9942 32.2795 53.0734C32.0618 53.1074 31.6461 53.1902 32.12 53.1474C32.7027 53.0971 33.7265 52.9224 34.061 52.877Z" fill="black" stroke="black" stroke-width="0.3025" stroke-miterlimit="22.9256" stroke-linejoin="round"/>
<path d="M36.4727 53.0864C36.4941 53.1021 36.5126 53.1005 36.5416 53.103C36.7382 53.1216 36.9465 53.1222 37.1436 53.1045C37.3205 53.0884 36.7154 53.0631 36.6176 53.0704C36.5728 53.0744 36.5288 53.0902 36.4727 53.0864Z" fill="black" stroke="black" stroke-width="0.3025" stroke-miterlimit="22.9256" stroke-linejoin="round"/>
<path d="M33.8809 54.5862C33.8809 54.6753 33.9363 54.7412 33.9363 54.8496C33.9363 55.0509 33.9363 55.2286 33.9363 54.9017C33.9363 54.8246 33.8809 54.8213 33.8809 54.7446C33.8809 54.692 33.8809 54.6393 33.8809 54.5862Z" fill="black" stroke="black" stroke-width="0.3025" stroke-miterlimit="22.9256" stroke-linejoin="round"/>
<path d="M31.1703 56.0117C31.0551 56.0341 30.9446 56.0733 30.837 56.1141C30.571 56.2162 30.3173 56.3458 30.0713 56.4844C29.7281 56.6796 29.3994 56.905 29.0847 57.1392C29.024 57.1838 28.6816 57.4571 28.9426 57.3193C29.4384 57.0567 29.9025 56.7385 30.4026 56.479C30.6262 56.3628 31.0541 56.0709 31.1703 56.0117Z" fill="black" stroke="black" stroke-width="0.3025" stroke-miterlimit="22.9256" stroke-linejoin="round"/>
<path d="M36.5514 56.0078C36.3653 56.0489 35.2871 56.5058 35.2871 56.6518C35.2871 56.6698 35.6724 56.5162 35.7027 56.5029C35.9842 56.3832 36.3733 56.2752 36.6016 56.0711C36.6762 56.0048 36.5133 56.0364 36.5514 56.0078Z" fill="black" stroke="black" stroke-width="0.3025" stroke-miterlimit="22.9256" stroke-linejoin="round"/>
<path d="M29.7833 56.1326C29.3639 56.3059 28.9362 56.7087 28.5911 56.9901C28.5573 57.0175 28.2803 57.2761 28.4612 57.1684C28.9399 56.884 29.3524 56.4918 29.7833 56.1326Z" fill="black" stroke="black" stroke-width="0.3025" stroke-miterlimit="22.9256" stroke-linejoin="round"/>
<path d="M37.2953 56.1057C37.0791 56.1397 35.7832 56.5921 35.7832 56.7369C35.7832 56.7709 36.1735 56.6742 36.2121 56.6712C36.3682 56.6629 36.4035 56.834 36.5584 56.8526C36.8627 56.8902 37.2105 56.6871 37.5071 56.7849C37.6334 56.8263 37.4432 57.0739 37.6599 57.1707C38.0409 57.34 38.7138 57.2966 39.2887 57.5423C39.3068 57.5507 39.3255 57.5585 39.3435 57.5669C39.4626 57.6199 40.1098 57.9243 40.1128 57.9196C40.1424 57.8785 39.8616 57.6814 39.8349 57.6604C39.4111 57.3396 38.9331 57.177 38.4295 57.0096C38.3842 56.9944 38.2852 56.9661 38.2921 56.9029C38.2926 56.8948 38.2952 56.8876 38.2992 56.8797C38.3653 56.7305 38.5848 56.5696 38.2755 56.511C38.1904 56.4959 38.1039 56.4942 38.0186 56.4955C37.9484 56.4959 37.8787 56.5006 37.8089 56.5012C37.6561 56.5039 37.567 56.4886 37.5926 56.3308C37.6059 56.2485 37.5895 56.1752 37.5009 56.1402C37.4346 56.1148 37.2822 56.1787 37.2953 56.1057Z" fill="black" stroke="black" stroke-width="0.3025" stroke-miterlimit="22.9256" stroke-linejoin="round"/>
<path d="M28.6756 56.2937C28.5766 56.3404 28.49 56.4185 28.4055 56.4829C28.2443 56.6049 28.0835 56.7268 27.9295 56.8561L27.878 56.9L27.8272 56.9446C27.7234 57.0348 27.054 57.711 27.3 57.5182C27.4381 57.4098 27.5664 57.291 27.6984 57.1753C27.8446 57.0477 27.9916 56.9211 28.1389 56.7938C28.319 56.6382 28.4884 56.4613 28.6756 56.2937Z" fill="black" stroke="black" stroke-width="0.3025" stroke-miterlimit="22.9256" stroke-linejoin="round"/>
<path d="M31.4141 56.459C31.1922 56.4758 30.984 56.6063 30.7901 56.7035C30.4669 56.8661 30.2996 56.9165 30.7273 56.8821C30.9926 56.8615 31.4966 57.0246 31.6978 56.7683C31.7613 56.6883 31.4009 56.4745 31.4141 56.459Z" fill="black" stroke="black" stroke-width="0.3025" stroke-miterlimit="22.9256" stroke-linejoin="round"/>
<path d="M34.841 58.4631C34.543 58.7632 34.4708 59.4612 34.416 59.8526C34.3629 60.2301 34.4801 62.6983 34.9759 62.1449C35.0949 62.0111 35.8342 61.7214 35.8075 61.6048C35.7834 61.5046 35.5093 61.5224 35.4327 61.4732C35.2465 61.3562 35.4049 61.1165 35.5589 61.0584C35.7431 60.9885 35.9527 61.0165 36.1421 60.9522C36.6993 60.7604 36.9648 60.1073 37.058 59.5935C37.172 58.9642 38.1278 58.6621 37.4562 60.3247C37.162 61.0513 37.8996 60.2521 38.0237 59.3867C38.1141 58.7535 39.6395 59.0985 39.6972 59.2345L39.7029 59.2593L39.6972 59.2867C39.6216 59.5044 39.1964 59.6762 39.0135 59.8004C38.8109 59.9369 38.609 60.0746 38.4069 60.2111C37.7943 60.6268 37.1981 61.0565 36.5761 61.4596C36.3539 61.6036 36.8068 61.4415 36.8625 61.4167C37.3821 61.1841 37.8281 60.8242 38.2965 60.5127C39.1577 59.9398 39.7555 59.5939 40.7009 59.1852C40.8716 59.1117 40.9806 58.9658 41.1706 58.8994C41.4482 58.802 41.7498 58.7336 42.0455 58.7072C42.0735 58.7049 42.352 58.7072 42.352 58.6633C42.352 58.6168 42.1772 58.5865 42.1484 58.5804C41.4419 58.4296 40.9416 58.8876 40.2836 58.9603C39.9289 58.9999 39.5291 58.8657 39.1808 58.8095C38.3989 58.6837 37.5699 58.7192 36.8063 58.9181C35.9894 59.1312 35.2593 59.6535 34.8742 60.3814C34.8354 60.4542 34.7226 60.8303 34.6175 60.8303C34.5537 60.8303 34.5514 60.6708 34.5493 60.6343C34.5018 59.9563 34.623 59.1144 34.841 58.4631Z" fill="black" stroke="black" stroke-width="0.3025" stroke-miterlimit="22.9256" stroke-linejoin="round"/>
<path d="M32.147 58.9076C31.9991 59.1888 32.5326 59.808 32.2315 60.0827C32.0974 60.2042 31.6565 59.7159 31.5605 59.6432C30.9541 59.192 30.1172 58.9467 29.3549 58.9124C28.5315 58.8764 27.7249 58.924 26.9261 59.1184C25.9034 59.3685 25.6531 59.6525 24.4971 59.5812C23.8524 59.5422 23.1994 59.5355 22.5659 59.4163C22.3378 59.3739 22.1173 59.3109 21.9049 59.2237C21.8815 59.2146 21.5955 59.0973 21.5955 59.1092C21.6019 59.2894 22.4036 59.5379 22.5654 59.5739C23.3771 59.759 24.2703 59.8466 25.104 59.7857C25.5816 59.751 26.1787 59.5761 26.6478 59.6618C27.2619 59.7741 29.514 61.182 30.2915 61.5532C30.5616 61.6822 32.1955 62.2084 32.2144 62.3134C32.2697 62.6188 31.5563 63.7608 31.4044 64.1168C31.1878 64.6232 31.0637 65.1352 30.8802 65.6455C30.3978 66.989 29.8998 68.2866 29.6511 69.699C29.469 70.7269 29.2994 71.763 29.2994 72.8063C29.2994 73.1085 29.3279 73.8983 29.2207 73.8983C29.1026 73.8983 28.7411 72.6732 28.8418 73.1899C28.8785 73.3808 29.2028 74.3348 29.1416 74.438C29.1082 74.4947 29.0119 74.3299 29.0033 74.3148C28.7434 73.885 28.5139 73.4413 28.2424 73.0168C27.6792 72.1375 26.6754 70.5589 25.6019 70.234C25.4662 70.1931 25.2562 70.1869 25.2267 70.3584C25.2114 70.442 25.2461 70.5268 25.2877 70.5971C25.5096 70.9751 27.5756 72.5792 27.4543 72.8142C27.3197 73.0739 25.9048 72.0453 25.5686 71.6945C24.9034 71.0005 24.2632 70.1012 24.3173 69.1194C24.392 67.769 26.5639 67.1685 27.6977 66.8786L27.7528 66.8655L27.8084 66.8517C28.2489 66.7444 28.9126 66.7259 29.2884 66.4663C29.3186 66.4466 29.3699 66.3991 29.3366 66.3605C29.0498 66.0371 25.2542 67.6179 27.0343 66.4235C27.2286 66.2927 27.4249 66.1688 27.6306 66.0519C28.1682 65.7456 27.433 65.8612 27.1989 65.9841C26.3567 66.4285 25.612 67.0676 24.8822 67.6584C23.1939 69.0258 21.1019 71.2953 20.5519 73.3826C20.5172 73.5131 20.3459 73.8138 20.3957 73.9442C20.4044 73.9684 20.459 73.8793 20.4606 73.8764C20.6047 73.6466 20.7546 73.5612 21.0185 73.4783C21.4684 73.3357 21.9003 73.1425 22.3429 72.9805C22.4024 72.9585 23.7862 72.46 23.2549 72.8673C23.0572 73.0196 22.8341 73.1437 22.6181 73.269C22.5451 73.3118 22.4708 73.3533 22.3984 73.3944C22.272 73.4665 21.4619 73.9 21.5382 74.0432C21.5688 74.1034 21.6924 74.0615 21.7367 74.0432C21.8282 74.0058 21.825 73.8902 21.9016 73.8253C22.0822 73.6705 22.3043 73.552 22.5077 73.4265C22.6365 73.3487 22.7659 73.2687 22.8933 73.1862C23.0334 73.0944 23.1772 73.0031 23.3116 72.9013C23.8676 72.4825 23.044 72.6203 22.7838 72.7014C22.6769 72.7347 22.1174 72.99 22.0305 72.8846C21.9816 72.8247 22.4784 72.495 22.5261 72.425C22.7048 72.1574 22.0485 72.369 22.0852 72.3038C22.112 72.2569 23.4707 71.4343 22.9337 71.7043C22.8462 71.7487 22.7595 71.7946 22.6719 71.8388C22.2837 72.0369 21.889 72.2735 21.4717 72.4105C21.4261 72.4258 21.3678 72.4486 21.3196 72.4335C21.2171 72.4047 21.3347 72.2136 21.3615 72.1692C21.62 71.732 22.1609 71.5568 22.6191 71.3681C23.0693 71.1838 23.55 71.0326 23.9907 70.8295C24.1131 70.7728 23.6236 70.891 23.556 70.913C23.1634 71.0424 22.7766 71.1812 22.3983 71.3412C22.3436 71.364 22.2876 71.3885 22.233 71.4114C20.9722 71.9525 23.6479 69.2283 23.8036 69.1532C24.0351 69.0415 24.0986 69.8627 24.1482 70.0107C24.4382 70.888 24.9924 71.5696 25.709 72.1759C26.1596 72.5588 26.675 72.9076 27.254 73.0882C27.5037 73.1668 27.8293 73.1326 28.0439 73.2875C28.4207 73.5599 28.6437 74.1653 28.8998 74.5384C29.1843 74.9533 30.3988 76.2772 30.17 76.7417C29.987 77.1134 29.7319 76.3963 29.631 76.3329C29.511 76.258 29.3297 76.6335 29.0823 76.5057C28.8272 76.3767 28.6052 75.681 28.4432 76.1794C28.4007 76.3086 28.3289 76.471 28.1736 76.4996C27.5404 76.6155 27.679 75.0837 27.1728 75.772C26.9313 76.099 26.988 75.1061 26.7478 75.3377C26.6496 75.432 26.4803 75.8469 26.2957 75.7851C26.1129 75.724 26.1134 75.3487 25.9804 75.219C25.8024 75.0461 25.5247 75.1667 25.3489 75.0242C25.2471 74.9426 25.3448 74.7795 25.2094 74.7143C25.0816 74.6529 24.9011 74.7049 24.7699 74.7302C24.7275 74.7383 24.3981 74.8246 24.3971 74.7393C24.3952 74.6615 24.8475 74.3576 24.5702 74.3628C24.0956 74.3709 23.6632 74.688 23.196 74.7305C23.0214 74.7472 22.6773 74.6293 22.6062 74.9107C22.5969 74.9461 22.6404 74.9556 22.6676 74.9569C23.0711 74.9797 23.4865 74.7093 23.8709 74.623C23.8959 74.6173 24.0673 74.5795 24.031 74.6544C23.9705 74.7764 23.7885 74.8158 23.745 74.9511C23.6863 75.1351 24.1338 75.0236 24.0458 75.2294C23.8188 75.7645 22.9998 76.1055 23.0188 76.7853C23.0199 76.8557 23.4108 76.4236 23.4571 76.3707C23.7793 76.0002 24.3317 75.2841 24.8509 75.7485C25.3744 76.2186 25.8449 76.7462 26.3686 77.2189C27.7091 78.4318 29.2832 79.5487 30.9518 80.3168C31.8954 80.751 32.8579 81.0487 33.8698 81.2912C33.962 81.3137 34.2491 81.4271 34.0729 81.5467C34.004 81.5939 33.9141 81.5748 33.846 81.6283C33.7979 81.6675 33.5903 81.9726 33.7192 82.007C33.7426 82.0131 33.7728 82.0012 33.7952 81.993C33.9037 81.9544 34.0113 82.0169 34.1035 81.9826C34.342 81.893 34.3026 81.5143 34.5646 81.4204C34.7885 81.3409 35.0759 81.3889 35.3116 81.3666C35.916 81.3101 36.519 81.1725 37.0773 80.9426C38.8965 80.1963 39.9408 79.0463 41.3833 77.8413C41.4872 77.7541 41.6286 77.7571 41.7249 77.6737C42.2252 77.2397 43.0972 75.5994 43.7075 75.4708C44.1251 75.3832 44.5215 75.9984 44.6955 76.2778C44.9331 76.6599 44.9593 76.9635 44.7954 77.3794C44.5617 77.9725 43.8745 78.0612 43.6027 78.5961C43.5938 78.6132 43.5848 78.6314 43.5778 78.6485C43.5378 78.7395 42.9434 80.1174 43.4043 79.6632C43.5857 79.483 43.6706 79.2568 43.7905 79.0394C43.8241 78.9769 43.8689 78.8983 43.9553 78.9099C44.1051 78.9318 44.5081 78.7679 44.599 78.6418C44.7628 78.4138 45.4285 76.3439 45.3696 76.0705C45.3505 75.9843 45.2157 75.624 45.0604 75.6901C44.981 75.7241 45.1443 76.1757 44.93 75.9246L44.8979 75.886L44.8662 75.8432C44.8295 75.796 44.7952 75.7473 44.7583 75.6996C44.6773 75.5933 44.5824 75.49 44.5145 75.3748C44.4886 75.3323 44.4585 75.2681 44.5061 75.2281C44.617 75.1353 46.277 75.0002 46.5093 75.0266C46.6901 75.0479 46.8189 75.1289 46.9247 75.271C46.9298 75.281 47.0076 75.4068 47.0261 75.393C47.0636 75.3644 47.0295 74.9795 47.0145 74.928C46.9615 74.7332 46.7378 74.5658 46.6445 74.3804C45.8049 72.7295 44.7513 71.3094 43.6754 69.8006C43.4607 69.5004 43.3427 69.1447 43.103 68.8604C42.8259 68.5326 39.9347 66.0759 39.7108 66.1269C39.6148 66.1494 39.9277 66.4329 39.9511 66.4534C40.326 66.7925 40.933 67.1642 41.1782 67.6043C41.1991 67.6432 41.2162 67.6998 41.1532 67.7078C41.0862 67.7161 39.1654 67.1909 40.1682 67.5626C41.1855 67.9409 43.6423 69.0893 43.0529 70.4324C42.9042 70.7727 42.6454 71.0612 42.3719 71.3173C42.091 71.5807 39.5343 73.4946 39.385 73.4472C39.2601 73.4083 39.5968 73.0835 39.6268 73.0555C39.9892 72.717 40.4001 72.4197 40.8296 72.1613C41.8504 71.5459 41.2979 71.5441 40.6637 71.908C40.4519 72.0295 39.9997 72.509 39.7493 72.4807C39.6285 72.468 39.7207 72.1787 39.7319 72.1175C39.7861 71.8223 39.8442 71.4974 39.8234 71.1958C39.8224 71.1803 39.8198 71.0808 39.7887 71.0808C39.757 71.0808 39.7423 71.1793 39.7386 71.1958C39.6664 71.5106 39.5955 71.8132 39.4822 72.1175C39.449 72.2055 39.4158 72.2941 39.3807 72.3807C38.2525 75.1853 34.5555 79.081 31.1702 76.8523C30.3627 76.3216 29.5299 75.2131 29.3419 74.2753C29.2633 73.889 29.3629 73.4555 29.3916 73.0663C29.5859 70.4134 30.3393 67.3187 31.3621 64.8511C31.8101 63.7703 32.3589 62.7424 32.8637 61.6912C33.0636 61.2746 33.318 60.8856 33.5575 60.4895C33.7049 60.2469 33.6551 60.2213 33.477 60.4419C33.1975 60.7853 32.9597 61.1585 32.7337 61.534C32.6355 61.6967 32.5244 61.9075 32.3147 61.9517C31.9527 62.0297 29.8913 61.1956 29.9743 60.8841C30.0519 60.5896 30.5434 60.2106 30.7442 59.9647C31.1836 59.4266 32.0213 60.2953 32.1783 60.7444C32.2088 60.8328 32.1228 61.3658 32.1852 61.3863C32.3495 61.4423 32.4713 60.8286 32.4814 60.7438C32.5971 59.8955 32.5883 59.632 32.147 58.9076Z" fill="black" stroke="black" stroke-width="0.3025" stroke-miterlimit="22.9256" stroke-linejoin="round"/>
<path d="M28.3477 59.1992C28.2544 59.2064 28.162 59.2128 28.0698 59.2202C27.5755 59.2608 27.0838 59.3302 26.605 59.4553C26.1361 59.5777 26.8998 59.5313 27.092 59.5787L27.1465 59.5929L27.2012 59.6076C27.6784 59.7413 28.778 59.5923 28.5224 59.2479C28.4862 59.1992 28.2915 59.2426 28.3477 59.1992Z" fill="white" stroke="black" stroke-width="0.3025" stroke-miterlimit="22.9256" stroke-linejoin="round"/>
<path d="M29.7009 59.3595C29.5564 59.4958 29.4934 59.7211 29.41 59.8953C29.3315 60.0606 28.9849 60.2133 28.9654 60.3505C28.9147 60.7057 29.6359 60.5813 29.8082 60.4301C30.0342 60.2324 30.2787 60.0047 30.4446 59.7567C30.4862 59.6952 30.5432 59.6061 30.5008 59.5303C30.411 59.3697 30.0265 59.3167 29.8591 59.3376C29.8222 59.342 29.7194 59.3924 29.7009 59.3595Z" fill="white" stroke="black" stroke-width="0.3025" stroke-miterlimit="22.9256" stroke-linejoin="round"/>
<path d="M41.6615 59.3562C41.4747 59.3875 41.292 59.4308 41.1101 59.482C39.5612 59.9192 41.8963 59.5201 42.6017 59.6272C42.6453 59.6331 43.016 59.7298 43.016 59.6421C43.016 59.2304 41.724 59.4395 41.6615 59.3562Z" fill="black" stroke="black" stroke-width="0.3025" stroke-miterlimit="22.9256" stroke-linejoin="round"/>
<path d="M36.1779 59.5522C35.556 59.6466 34.1786 61.4723 34.8354 61.5817C35.0232 61.6134 35.3068 60.0033 35.6327 60.0674C35.7717 60.0957 35.7145 60.3886 35.9567 60.2089C36.2479 59.9934 36.1109 59.642 36.1779 59.5522Z" fill="white" stroke="black" stroke-width="0.3025" stroke-miterlimit="22.9256" stroke-linejoin="round"/>
<path d="M26.176 59.9114C25.0214 59.8484 23.7212 60.3049 22.621 60.592C22.3912 60.6531 22.1574 60.7016 21.9267 60.7602C21.5962 60.844 22.0921 60.7742 22.1808 60.763C23.5111 60.5908 24.9598 60.3213 26.176 59.9114Z" fill="black" stroke="black" stroke-width="0.3025" stroke-miterlimit="22.9256" stroke-linejoin="round"/>
<path d="M41.4467 60.1994C40.8308 60.2958 42.3291 60.427 42.4718 60.4476C42.9073 60.5136 42.2422 60.117 41.5089 60.197L41.4511 60.2041L41.4467 60.1994Z" fill="black" stroke="black" stroke-width="0.3025" stroke-miterlimit="22.9256" stroke-linejoin="round"/>
<path d="M25.9988 60.792C24.7887 60.8197 23.439 61.4161 22.515 62.1274C22.4665 62.1649 22.2598 62.2878 22.2598 62.3551C22.2598 62.3751 22.3317 62.3406 22.3345 62.3395C22.7181 62.1684 23.0652 61.93 23.4476 61.7542C24.2696 61.3756 25.1532 61.2052 25.9852 60.8673C26.0085 60.858 25.9633 60.8059 25.9988 60.792Z" fill="black" stroke="black" stroke-width="0.3025" stroke-miterlimit="22.9256" stroke-linejoin="round"/>
<path d="M17.0283 60.8906C13.0846 61.1111 11.4244 69.8654 14.324 72.4822C14.6476 72.7754 15.0794 73.0824 15.5345 73.1427C15.7017 73.1658 15.8739 73.1448 16.0253 73.072C16.0555 73.058 16.3873 72.8503 16.3276 72.8027C16.2809 72.7665 15.9397 72.8906 15.8653 72.8916C15.5048 72.8978 15.1488 72.7101 14.8736 72.5052C12.0192 70.3849 13.0889 63.9821 15.5044 61.8634C17.0558 60.5027 18.5543 61.3509 19.4164 62.9062C19.6191 63.2721 19.87 63.7487 19.8788 64.1705C19.8876 64.6843 18.6207 66.5725 18.3139 67.1731C18.1753 67.4425 17.4188 69.3209 17.3002 69.3664C17.0997 69.4423 16.9075 68.3073 16.886 68.1199C16.8499 67.8303 16.8386 67.5184 16.8778 67.2287C16.9929 66.3887 17.4071 67.1799 17.6977 67.2692C18.4557 67.5037 17.6364 64.7598 17.5376 64.4339C17.4032 63.9937 17.1761 63.2386 16.7016 63.0301C16.4196 62.9072 16.6105 63.0756 16.6556 63.1813C16.6805 63.2423 16.6689 63.3018 16.6237 63.3498C16.5277 63.4522 16.369 63.5024 16.2566 63.5853C15.8705 63.8697 15.6371 64.3216 15.4726 64.7493C14.9369 66.1432 14.8746 67.6193 15.1922 69.0667C15.2295 69.2384 15.2287 69.5351 15.3318 69.682C15.3318 69.683 15.3425 69.4391 15.3228 69.2775C15.2663 68.8166 15.1315 68.1467 15.2922 67.6965C15.34 67.5612 15.4141 67.7092 15.4392 67.772C15.9168 68.9893 15.9324 69.0605 16.9753 69.903C17.0221 69.9421 17.0542 69.9875 17.0694 70.0451C17.1142 70.2177 16.6814 72.4101 16.6487 72.86C16.613 73.3473 16.7088 73.8517 16.7829 74.333C17.0391 76.0185 17.9001 77.7669 19.0493 79.0644C19.1746 79.2062 19.4503 79.4521 19.2831 79.6497C18.9064 80.092 17.6267 80.4053 17.0887 80.6985C16.7704 80.8722 16.6682 81.2387 16.3552 81.4287C13.1623 83.3777 10.1932 85.6043 7.25574 87.8836C6.76534 88.2645 6.2549 88.6608 5.8243 89.1029C5.79061 89.1376 5.66876 89.2511 5.74578 89.299C6.00147 89.4625 6.43506 89.0237 6.59397 88.8907C7.57235 88.0717 15.8121 81.7244 16.4102 81.7763C16.5092 81.7859 16.4835 81.9207 16.4729 81.9806C16.321 82.8041 16.0872 83.6231 15.9128 84.4424C15.5973 85.9178 15.274 87.4566 15.3137 88.9679C15.3216 89.3195 15.6568 89.4071 15.693 89.0173C15.7052 88.8801 15.7007 88.7411 15.7023 88.6029C15.7124 87.7149 15.9046 86.8463 16.0331 85.9697C16.1478 85.185 16.784 81.5767 17.196 81.1179C17.5077 80.7736 18.2095 80.614 18.6277 80.3947C18.9441 80.2303 19.404 79.8683 19.7875 79.9202C20.1023 79.9648 22.1056 81.531 22.6026 81.8284C23.3968 82.305 24.2826 82.6973 25.1413 83.0585C25.6021 83.2528 26.9918 83.673 27.2908 83.9356C27.4836 84.1054 27.6509 84.4634 27.7179 84.7007C27.8043 85.0061 28.1979 85.4225 28.3171 84.8933C28.4034 84.5049 28.7528 84.2667 28.5962 84.8142C28.5357 85.027 28.3357 85.3902 28.4706 85.605C28.7002 85.9704 29.0286 85.1434 29.154 85.1434C29.2692 85.1434 29.2812 86.179 29.6986 86.2147C29.8084 86.2247 29.8928 86.109 30.0027 86.1467C30.1763 86.2076 30.8746 86.8417 31.3655 86.9511C31.576 86.9986 31.517 86.5768 31.7324 86.7975C31.7936 86.8611 31.849 86.9303 31.9155 86.9905C31.9844 87.0524 32.0694 87.0915 32.1424 87.1475C32.1711 87.1704 32.1942 87.1997 32.178 87.2366C32.1244 87.3629 29.8284 87.8401 29.5015 87.9302C28.9523 88.0832 26.1763 89.1465 25.9123 89.0834C24.9612 88.8562 23.2072 86.5166 22.6502 85.7064C22.1128 84.9264 21.6503 84.0904 21.2696 83.2319C21.09 82.8302 20.931 82.4154 20.7305 82.0229C20.7007 81.9667 20.4569 81.6039 20.4547 81.6369C20.4376 81.8991 20.6117 82.2485 20.6953 82.4944C21.4482 84.7318 22.7567 86.8646 24.5124 88.5168C24.8535 88.8389 25.237 89.2857 25.7479 89.3302C26.8795 89.4316 28.7246 88.1416 29.701 88.2254C30.1374 88.2628 29.925 89.2819 30.3031 89.2819C30.6073 89.2819 30.1296 88.3196 30.2277 88.1323C30.3245 87.948 31.5075 87.6912 31.7427 87.7021C32.5103 87.7367 33.5146 89.2687 33.6516 89.2348C33.6756 89.2287 33.6721 89.1986 33.6696 89.1805C33.5691 88.5977 32.8845 88.1047 32.465 87.7364C32.3877 87.6693 32.3463 87.5841 32.4661 87.5364C32.5828 87.4898 33.229 87.4302 33.3546 87.4512C33.4437 87.4672 33.3989 87.6251 33.5257 87.6236C33.7439 87.6197 33.8606 87.3698 34.0555 87.3126C34.2479 87.2559 34.1082 87.6578 34.5368 87.3636C34.7471 87.22 34.6859 87.4477 34.8794 87.4316C35.3469 87.393 35.4153 87.2486 35.7166 87.1792C35.8016 87.1601 35.886 87.1935 35.9708 87.1611C36.1794 87.0838 36.3149 86.6184 36.521 86.6184C36.6883 86.6184 36.4423 87.4313 36.7459 87.393C37.0435 87.3563 37.2173 86.7667 37.3105 86.5494C37.4139 86.3061 37.5064 86.0588 37.6168 85.8178C37.6547 85.7347 37.7149 85.6427 37.7309 85.5523V85.5428H37.7235C37.5426 85.6447 37.4156 86.0625 37.325 86.2346C37.2788 86.3225 37.2344 86.4099 37.1899 86.4971C37.1362 86.6018 37.0835 86.7061 37.0226 86.8066C36.6038 87.5041 37.0679 85.7738 36.4105 86.1083C36.2729 86.1781 36.1921 86.3802 36.1149 86.4994C35.9403 86.7686 35.5662 87.2226 35.5247 87.0553C35.5005 86.9596 35.5569 86.8548 35.5497 86.7557C35.5165 86.3732 34.9377 86.4422 34.6773 86.4786C34.3817 86.521 33.6608 87.174 33.4571 86.7591C33.2197 86.2783 33.0768 87.0998 32.7546 87.1583C32.2077 87.2588 32.0836 85.8757 31.8701 85.5718C31.7106 85.3444 32.3022 87.3958 31.7517 86.4941C31.6283 86.2921 31.4542 85.7732 31.2137 85.6813C30.9655 85.5864 31.4586 86.7456 31.0837 86.2631C30.9052 86.0349 30.8064 85.7617 30.6469 85.5211C30.2694 84.9584 30.7592 86.1959 30.7732 86.2263C30.8063 86.3045 30.8543 86.4868 30.6972 86.4175C30.6142 86.3812 30.545 86.3163 30.4821 86.2559C30.1704 85.9606 29.9949 85.6037 29.776 85.2492C29.6784 85.0901 29.231 84.9139 29.4814 84.6798C29.6389 84.5341 30.0916 84.7022 30.2734 84.7418C30.3109 84.7507 30.8099 84.8533 30.8099 84.8385C30.8099 84.8325 29.7836 84.4498 29.6118 84.3856C29.2876 84.2636 28.939 84.1758 28.6268 84.0296C28.5077 83.9743 28.4124 83.8395 28.2958 83.7987C28.1904 83.7625 28.069 83.8053 27.9578 83.7645C27.7456 83.6863 27.7667 83.538 27.6429 83.4042C27.5937 83.3519 27.4606 83.4389 27.3765 83.3438C27.2947 83.2514 27.2466 83.1308 27.1949 83.0228C26.9572 82.5264 26.9014 82.3486 27.1023 83.0091C27.1202 83.0666 27.1544 83.2398 27.0532 83.1223C26.7439 82.7646 26.6669 82.2723 26.3828 81.9065C26.3617 81.8804 26.3372 81.8514 26.3049 81.8371C26.0733 81.7426 26.4057 82.5739 26.3949 82.8789C26.394 82.9008 26.3898 82.976 26.3453 82.9504C26.0681 82.7923 25.9556 81.305 25.7714 81.305C25.7485 81.305 25.7377 81.3326 25.7326 81.3483C25.7295 81.3587 25.7273 81.3692 25.7254 81.3796C25.664 81.7838 25.884 82.1897 25.9118 82.5875C25.9366 82.9263 25.7313 82.5637 25.6943 82.4407C25.6154 82.1854 25.5708 81.9195 25.5156 81.659C25.5086 81.627 25.4431 81.3774 25.4364 81.4254C25.3994 81.6703 25.8469 82.9003 25.4535 82.7938C24.5246 82.5426 23.5999 81.9191 22.7675 81.4637C19.2219 79.5251 16.6739 76.0196 17.0401 72.0161C17.1501 70.811 17.5731 69.6156 18.0061 68.4871C18.3573 67.5746 18.8829 66.1557 19.4494 65.3689C19.4708 65.3371 19.5334 65.2556 19.5748 65.3127C19.5831 65.3249 20.0131 67.091 20.1099 67.3829C20.1892 67.6272 20.2603 67.8715 20.3288 68.1194C20.357 68.2208 20.3796 68.595 20.4686 68.6575C20.4799 68.6653 20.4996 68.3559 20.4996 68.3292C20.4926 67.957 20.4015 67.5848 20.3019 67.2251C20.1248 66.5967 19.8643 65.9376 19.9009 65.2798C19.9166 65 20.084 64.901 20.1995 64.6708C20.2947 64.4809 20.303 64.2708 20.4318 64.0917C21.0568 63.2204 22.4012 62.7297 23.3734 62.32C24.3874 61.893 25.4805 61.5548 26.5754 61.3788C26.8785 61.33 27.183 61.2879 27.4876 61.2456C27.4929 61.2452 27.6077 61.2335 27.6077 61.2281C27.6077 61.2201 27.209 61.2274 27.1803 61.2281C26.087 61.2589 24.9492 61.5408 23.9252 61.892C22.7486 62.2974 21.6054 62.7851 20.6138 63.5254C20.5116 63.6025 20.3255 63.7665 20.1808 63.6999C20.0044 63.6211 19.9481 63.2721 19.876 63.1169C19.6095 62.5488 19.2689 61.9863 18.7851 61.5583C18.3627 61.1856 17.8634 60.9398 17.2872 60.9046C17.2542 60.9022 17.0333 60.9133 17.0283 60.8906Z" fill="black" stroke="black" stroke-width="0.3025" stroke-miterlimit="22.9256" stroke-linejoin="round"/>
<path d="M29.2422 61.9966C29.3215 62.1652 29.68 62.2525 29.8512 62.2877C29.9775 62.3142 30.1054 62.3224 30.2349 62.3196C30.2777 62.3189 30.5956 62.3196 30.5956 62.2464C30.5955 62.0771 29.3952 62.06 29.2422 61.9966Z" fill="black" stroke="black" stroke-width="0.3025" stroke-miterlimit="22.9256" stroke-linejoin="round"/>
<path d="M34.8089 62.781C34.7966 63.0017 35.1685 63.3605 35.2881 63.5395C35.8451 64.3791 36.3391 65.251 36.7329 66.1721C37.1057 67.0467 37.3874 67.9472 37.652 68.8556C37.7152 69.0765 37.8173 69.3678 37.7264 68.9572C37.6873 68.7828 37.652 68.6085 37.6126 68.4344C37.4546 67.7358 37.2331 67.048 36.9613 66.3816C36.4206 65.0577 35.6452 63.9527 34.8089 62.781Z" fill="#096FB7" stroke="black" stroke-width="0.3025" stroke-miterlimit="22.9256" stroke-linejoin="round"/>
<path d="M16.7469 63.8098C16.2192 63.9919 15.9763 64.7599 15.8191 65.2189C15.6186 65.8058 16.2351 64.8427 16.3614 64.7105L16.4082 64.6637L16.4566 64.619C16.5526 64.5328 16.6682 64.4422 16.8001 64.4142C17.1856 64.3326 16.6297 65.0003 16.5777 65.0678C16.2544 65.4843 15.9861 65.9253 15.8679 66.4351C15.7456 66.9641 15.8338 67.5583 16.0221 68.068C16.1092 68.3076 16.7821 69.7383 17.1075 69.5696C17.2439 69.4999 16.7557 68.0461 16.7464 67.4899C16.7187 66.0355 17.5013 66.7279 17.7268 66.6524C17.934 66.5829 17.4662 64.7345 17.3432 64.3849C17.2481 64.1164 17.1406 63.8208 16.7854 63.8343L16.7372 63.839L16.7469 63.8098Z" fill="white" stroke="black" stroke-width="0.3025" stroke-miterlimit="22.9256" stroke-linejoin="round"/>
<path d="M43.5923 70.3628C43.4784 70.4232 43.4306 70.5945 43.3757 70.7021C42.9622 71.5214 44.0558 70.839 43.6433 71.2999C43.5583 71.3965 43.4336 71.4657 43.3172 71.5218C43.2186 71.5694 43.1178 71.6093 43.0178 71.6526C42.6954 71.7927 43.397 71.6736 43.4835 71.6593C43.5749 71.6447 44.2375 71.5256 44.1047 71.7789C44.0908 71.8061 43.9339 71.934 43.9559 71.9515C44.0509 72.0269 44.758 72.0959 44.7729 71.9455C44.8009 71.6322 43.6003 70.417 43.5923 70.3628Z" fill="white" stroke="black" stroke-width="0.3025" stroke-miterlimit="22.9256" stroke-linejoin="round"/>
<path d="M43.3342 71.3169C43.2414 71.3334 42.7949 71.4149 42.7949 71.5394C42.7949 71.5697 42.9417 71.5158 42.9518 71.5122C43.0916 71.4635 43.1956 71.3784 43.3342 71.3169Z" fill="#096FB7" stroke="black" stroke-width="0.3025" stroke-miterlimit="22.9256" stroke-linejoin="round"/>
<path d="M43.1452 71.9901C42.8778 71.9175 42.4712 71.9438 42.2155 72.0434C41.7922 72.2093 39.3329 73.8271 39.0005 74.1573C38.6563 74.4989 38.4321 74.9597 38.1236 75.3326C37.0818 76.5885 35.5254 77.6467 33.826 77.8363C32.8267 77.9471 31.8361 77.749 31.0123 77.1911C30.8796 77.1008 30.6951 76.8914 30.5293 76.8667C30.4184 76.851 30.3107 77.1297 30.1213 77.1216C29.7283 77.1079 29.1201 76.6914 28.7131 76.618C28.4708 76.5751 28.3084 76.849 28.0299 76.7637C27.6838 76.6594 27.6567 76.2931 27.3937 76.153C27.3022 76.1049 27.1548 76.2284 27.0439 76.2008C26.9091 76.1689 26.8333 75.9973 26.7001 75.9874C26.534 75.9739 26.4122 76.1388 26.2318 76.0837C25.8978 75.9845 26.037 75.4013 25.6876 75.38C25.5164 75.3694 25.3636 75.4794 25.1927 75.4816C25.1497 75.4816 25.0516 75.4504 25.0136 75.4733C24.9712 75.5002 25.0804 75.6096 25.0945 75.6257C25.5695 76.1723 26.1619 76.6412 26.7065 77.1203C28.415 78.6282 30.5031 79.9507 32.7235 80.6515C33.891 81.0207 35.0538 81.1755 36.2563 80.8619C39.0568 80.1322 41.1436 77.8254 42.8914 75.7597C43.355 75.2129 42.6301 75.3633 42.923 75.0871C42.9713 75.0409 44.3941 74.3896 44.3972 74.3896C44.7492 74.4176 44.3684 74.8403 44.4591 74.8698C44.5539 74.9013 44.6984 74.8136 44.7873 74.7891C45.0372 74.7211 45.3242 74.7534 45.5837 74.7534C45.745 74.7534 46.3443 74.8397 46.4317 74.6701C46.5405 74.4611 45.6816 74.1809 45.5397 74.0979C45.397 74.0166 44.5494 73.3217 44.4919 73.2024C44.4319 73.0806 44.5838 72.9574 44.4664 72.8572C44.3631 72.7699 44.0137 72.3195 43.9771 72.3074C43.8606 72.2681 43.0957 72.1266 43.1452 71.9901Z" fill="white" stroke="black" stroke-width="0.3025" stroke-miterlimit="22.9256" stroke-linejoin="round"/>
<path d="M44.9762 72.3452C44.0925 72.3593 45.3929 73.083 45.6087 73.5185C45.6427 73.5881 45.9547 73.8312 45.9104 73.6436C45.8665 73.4605 45.7116 73.2789 45.6087 73.1224C45.4645 72.9021 45.325 72.609 45.1082 72.443C45.0772 72.4203 44.9674 72.3858 44.9762 72.3452Z" fill="white" stroke="black" stroke-width="0.216" stroke-miterlimit="22.9256" stroke-linejoin="round"/>
<path d="M21.8697 72.6562C21.8273 72.6694 21.7874 72.6815 21.7471 72.6973C21.4959 72.7983 21.1835 72.9036 20.9829 73.0815C20.9752 73.0884 20.9225 73.1333 20.945 73.1485C21.0272 73.2033 21.7738 72.7075 21.8697 72.6562Z" fill="#096FB7" stroke="black" stroke-width="0.3025" stroke-miterlimit="22.9256" stroke-linejoin="round"/>
<path d="M23.3996 73.6328C23.3305 73.6571 23.268 73.6928 23.2056 73.7278C22.866 73.9219 22.4018 74.112 22.1426 74.4022C22.0086 74.5521 22.2232 74.5256 22.3058 74.4489C22.477 74.2893 22.6416 74.1507 22.842 74.0221C23.0236 73.9066 23.2231 73.7468 23.3996 73.6328Z" fill="#096FB7" stroke="black" stroke-width="0.3025" stroke-miterlimit="22.9256" stroke-linejoin="round"/>
<path d="M24.7919 74.9045C24.7367 74.9144 24.6716 74.9236 24.622 74.9522C24.5613 74.988 24.6677 74.9851 24.6886 74.9822C24.7849 74.9702 24.7434 74.9359 24.7919 74.9045Z" fill="#096FB7" stroke="black" stroke-width="0.3025" stroke-miterlimit="22.9256" stroke-linejoin="round"/>
<path d="M41.7975 75.2809C41.6186 75.3209 41.1268 75.2441 41.0106 75.3585C40.9036 75.4619 41.2695 75.6215 40.9257 75.6215C40.644 75.6215 40.061 75.3956 39.8176 75.519C39.7835 75.5366 39.7794 75.5694 39.7922 75.6009C39.8229 75.6786 39.9888 75.8006 39.9042 75.8882C39.7613 76.0384 39.3789 75.9116 39.1968 75.9203C38.9473 75.9341 39.0536 76.1208 38.9088 76.2176C38.8001 76.2905 38.6216 76.1842 38.5044 76.185C38.2356 76.1903 38.4951 76.5371 37.9829 76.3508C37.7558 76.2679 37.8554 76.3993 37.986 76.4817C38.295 76.6786 38.9153 76.6086 39.2307 76.4299C39.3452 76.365 39.379 76.2273 39.5043 76.1736C39.6865 76.0954 39.9015 76.1411 40.0857 76.0554C40.2365 75.9853 40.3129 75.8199 40.4803 75.7771C40.7519 75.7062 41.0496 75.8124 41.3272 75.7886C41.6039 75.7653 41.9216 75.5956 42.1803 75.4942C42.2122 75.4823 42.4686 75.3645 42.408 75.3061C42.373 75.2741 42.2951 75.2702 42.2502 75.2654C42.1983 75.2612 42.147 75.2573 42.0964 75.2573C42.0543 75.258 41.8105 75.3027 41.7975 75.2809Z" fill="black" stroke="black" stroke-width="0.3025" stroke-miterlimit="22.9256" stroke-linejoin="round"/>
<path d="M23.7346 76.9453C23.5771 77.1559 23.5961 77.5613 23.4803 77.8094C23.3852 78.0133 23.2618 78.2026 23.1348 78.3874C22.5166 79.2851 23.597 78.2503 23.7361 77.4946C23.7709 77.3049 23.7328 77.1324 23.7346 76.9453Z" fill="#096FB7" stroke="black" stroke-width="0.3025" stroke-miterlimit="22.9256" stroke-linejoin="round"/>
<path d="M24.1568 77.8923C23.9721 78.0891 22.86 79.4316 22.8771 79.4761C22.8874 79.5056 22.9155 79.5169 22.9456 79.5169C22.99 79.5169 23.0349 79.4965 23.0734 79.4763C23.4634 79.27 23.7158 78.8608 24.1526 78.7188C24.3373 78.6588 24.4306 78.7546 24.3587 78.9271C24.1648 79.3929 23.4362 79.8889 23.4617 80.4149C23.4792 80.7833 24.063 80.2124 24.1389 80.1443C24.6283 79.7088 24.3658 80.482 24.2887 80.7052C24.2171 80.906 24.1368 81.1147 24.1042 81.3255C24.0016 81.9684 24.6528 80.8804 24.6727 80.8576C24.6941 80.8337 24.7514 80.7656 24.7927 80.7898C24.9005 80.8562 24.6052 81.8013 24.7316 82.044C24.8888 82.3495 25.1356 81.9381 25.186 81.7883C25.2827 81.5001 25.0312 81.9861 24.9431 81.8718C24.7682 81.6464 25.0132 81.0091 25.0551 80.7593C25.0721 80.6588 25.0913 80.5369 25.0485 80.4397C24.9049 80.1137 24.3416 81.1452 24.4477 80.6396C24.4849 80.4587 24.7166 79.9537 24.4774 79.8259C24.4115 79.7896 24.1008 79.8839 24.0979 79.8249C24.0831 79.5014 24.5521 79.1607 24.6038 78.8162C24.6098 78.7701 24.6117 78.7224 24.6038 78.6757C24.5098 78.1654 23.9179 78.9014 24.1568 77.8923Z" fill="black" stroke="black" stroke-width="0.3025" stroke-miterlimit="22.9256" stroke-linejoin="round"/>
<path d="M42.4392 78.0505C41.8897 78.4045 41.3036 79.2645 40.8571 79.7555C38.5973 82.244 35.7759 85.2933 31.9501 84.0201C29.8098 83.3088 28.2357 81.2777 27.3259 79.3873C27.1873 79.1006 27.0731 78.8077 26.978 78.5064C26.9705 78.4859 26.9312 78.3102 26.9004 78.3102C26.8686 78.3102 26.9433 78.6793 26.9501 78.7055C26.9761 78.8304 27.0078 78.953 27.0483 79.072C27.1362 79.3407 27.2468 79.6034 27.3602 79.8615C27.6895 80.6136 28.1427 81.3316 28.6745 81.9686C29.2298 82.6341 29.8767 83.2281 30.6261 83.693C35.1045 86.4755 39.0112 82.5833 41.5652 79.3344C41.8798 78.9338 42.1316 78.4498 42.4392 78.0505Z" fill="black" stroke="black" stroke-width="0.3025" stroke-miterlimit="22.9256" stroke-linejoin="round"/>
<path d="M43.6353 78.9824C43.56 79.0724 43.3997 79.577 43.5569 79.2655C43.6029 79.1735 43.6069 79.0692 43.6353 78.9824Z" fill="#096FB7" stroke="black" stroke-width="0.3025" stroke-miterlimit="22.9256" stroke-linejoin="round"/>
<path d="M39.5682 83.616C39.467 83.7613 39.5614 84.1153 39.5642 84.2861C39.5856 86.0291 39.7808 86.0683 40.3532 84.3984C40.5315 83.8773 40.651 84.4518 40.739 84.6847C40.7453 84.7009 40.8393 84.8808 40.8448 84.8694C40.9118 84.7228 40.7494 84.1854 40.699 84.0308C40.6515 83.8904 40.5232 83.6891 40.3688 83.8618C40.3019 83.9372 39.887 85.3106 39.8158 85.1144C39.6883 84.7633 39.7825 84.2959 39.7161 83.9229C39.6942 83.8008 39.5935 83.7113 39.5682 83.616Z" fill="black" stroke="black" stroke-width="0.3025" stroke-miterlimit="22.9256" stroke-linejoin="round"/>
<path d="M39.3043 83.6848C39.2795 83.7191 39.2343 84.7853 39.246 84.7987C39.2528 84.8078 39.3043 84.7687 39.3238 84.7729C39.3713 84.785 39.3692 84.9375 39.3964 84.8972C39.4772 84.7738 39.3212 83.8731 39.3043 83.6848Z" fill="#096FB7" stroke="black" stroke-width="0.3025" stroke-miterlimit="22.9256" stroke-linejoin="round"/>
<path d="M28.9846 84.5437C28.8927 84.6413 28.8853 84.7941 28.8638 84.9196C28.7156 85.7357 29.2096 84.8929 29.14 84.6504C29.112 84.5565 29.0008 84.595 28.9846 84.5437Z" fill="#096FB7" stroke="black" stroke-width="0.3025" stroke-miterlimit="22.9256" stroke-linejoin="round"/>
<path d="M29.6419 85.3174C29.6256 85.4402 29.6743 85.5841 29.7104 85.6989C29.8623 86.1909 29.6695 85.4602 29.6419 85.3174Z" fill="#096FB7" stroke="black" stroke-width="0.3025" stroke-miterlimit="22.9256" stroke-linejoin="round"/>
<path d="M38.0746 85.3699C38.0213 85.4793 37.8408 86.2926 38.0639 86.2645C38.1253 86.2574 38.0203 86.1529 38.0145 86.0934C37.9905 85.8653 38.0545 85.6104 38.0746 85.3699Z" fill="#096FB7" stroke="black" stroke-width="0.3025" stroke-miterlimit="22.9256" stroke-linejoin="round"/>
<path d="M28.1348 85.5027C28.1664 85.5724 28.2367 85.6334 28.2897 85.688C28.502 85.9103 28.2104 85.5811 28.1348 85.5027Z" fill="#096FB7" stroke="black" stroke-width="0.3025" stroke-miterlimit="22.9256" stroke-linejoin="round"/>
<path d="M38.5195 85.6523C38.4825 85.6876 38.2286 86.1135 38.2428 86.1262C38.2979 86.1794 38.5195 85.7329 38.5195 85.6523Z" fill="#096FB7" stroke="black" stroke-width="0.3025" stroke-miterlimit="22.9256" stroke-linejoin="round"/>
<path d="M29.4634 86.5022C29.456 86.5427 29.5268 86.5738 29.5595 86.5933C29.6147 86.6285 29.6718 86.66 29.7313 86.69C30.1419 86.905 29.5927 86.5738 29.4634 86.5022Z" fill="#096FB7" stroke="black" stroke-width="0.3025" stroke-miterlimit="22.9256" stroke-linejoin="round"/>
<path d="M31.8164 87.7524C31.4568 87.7826 31.0835 87.8987 30.7377 87.9955C30.1041 88.1756 30.595 89.1408 30.7424 89.2498C30.8869 89.3579 31.1122 89.3394 31.2849 89.3394C32.7684 89.3394 31.4343 88.8882 31.4011 88.3276C31.3941 88.226 31.4939 88.2117 31.5767 88.2357C31.689 88.2686 31.7866 88.3467 31.8725 88.4195C32.1175 88.6316 32.3137 88.8879 32.5502 89.1085C32.7239 89.2725 32.9199 89.3322 33.1602 89.3378C34.2525 89.363 32.459 87.96 32.1029 87.8254C32.0082 87.7901 31.7735 87.8463 31.8164 87.7524Z" fill="white" stroke="black" stroke-width="0.3025" stroke-miterlimit="22.9256" stroke-linejoin="round"/>
<path d="M29.8627 88.2765C29.3684 88.2188 27.7208 88.8864 27.2027 89.094C27.141 89.1192 26.7871 89.2231 26.7871 89.3035C26.7871 89.3479 26.9685 89.3321 26.9918 89.3312C27.831 89.3054 28.6768 89.3382 29.5192 89.3382C29.6721 89.3382 30.0019 89.3898 30.1088 89.2497C30.2406 89.0739 30.0776 88.4869 29.9241 88.3502C29.8991 88.3279 29.8392 88.318 29.8627 88.2765Z" fill="white" stroke="black" stroke-width="0.3025" stroke-miterlimit="22.9256" stroke-linejoin="round"/>
<path d="M31.4457 88.2778C31.4398 88.2938 31.4305 88.3101 31.4286 88.3267C31.4108 88.4707 31.6778 88.713 31.7632 88.8137C31.8986 88.9752 32.0459 89.1797 32.2469 89.2703C32.8902 89.5649 31.8546 88.2109 31.5012 88.2972L31.4753 88.3092L31.4457 88.2778Z" fill="white" stroke="black" stroke-width="0.3025" stroke-miterlimit="22.9256" stroke-linejoin="round"/>
<path d="M41.1628 49.7822C40.6572 49.9819 42.4195 51.3804 42.3724 51.6396C42.3605 51.7005 42.2676 51.7093 42.2246 51.7415C42.0412 51.8821 43.0806 53.1338 43.2015 53.4812C43.3063 53.7823 43.1415 54.0753 43.2267 54.3768C43.3362 54.7701 43.6259 55.1115 43.7965 55.4828C43.8836 55.6746 44.0824 57.2508 44.0824 57.5097C44.0824 57.625 44.0235 57.6625 43.9176 57.6092C43.5392 57.4194 43.7418 58.0338 43.7917 58.222C44.0078 59.0454 44.5378 60.3251 44.9005 61.1174C44.9734 61.2774 45.3804 61.7448 45.2701 61.9205C45.1882 62.0517 44.8367 61.8244 44.7537 61.7829C44.3053 61.5629 43.8558 61.3619 43.3762 61.2127L43.3208 61.1955L43.2653 61.1793C42.1441 60.8569 42.4053 61.0165 43.4312 61.4365C43.486 61.4599 43.541 61.4818 43.5966 61.5053C44.0924 61.718 44.871 61.9726 45.1547 62.4474C45.27 62.6411 45.2229 63.0404 45.4018 63.1852C45.4349 63.2122 45.4359 63.0631 45.4379 63.0514C45.4509 62.9207 45.5059 62.7385 45.6852 62.7926C46.4688 63.0313 47.3767 64.8413 47.4816 65.5935C47.5389 66.0046 47.6145 66.5153 47.142 65.974C47.1147 65.9438 46.7009 65.5711 46.7365 65.7427C46.9033 66.5485 47.6765 66.3692 47.2319 67.6485C46.8525 68.7396 46.5857 69.5277 46.6002 69.5323C46.6431 69.5491 46.7117 69.435 46.7275 69.4103C46.9083 69.1507 47.5405 67.3477 47.8243 67.6941C48.3756 68.3685 48.6222 69.4667 48.8462 70.2798C50.1065 74.8787 47.9991 78.4061 44.4769 81.4329C44.0155 81.8301 42.7866 82.9989 42.2376 83.1331C42.1432 83.1564 42.0528 83.1342 42.0179 83.0416C41.978 82.9392 42.1806 81.4382 42.2206 81.2333C42.2616 81.0285 42.293 80.8145 42.3706 80.6173C42.4125 80.5109 42.6215 80.4152 42.6307 80.3806C42.6537 80.2856 42.5993 80.0451 42.4496 80.107C42.4134 80.1224 42.3855 80.1505 42.3611 80.1795C42.2282 80.3396 42.1888 80.5676 42.1404 80.7596C42.067 81.0517 41.9986 82.0499 41.8583 81.9177C41.7673 81.8335 41.7614 81.6901 41.6746 81.6002C41.305 81.2188 41.2479 82.4028 41.2211 82.601C41.2065 82.7115 41.1657 83.1924 41.2819 82.8444C41.3249 82.7168 41.3578 82.5862 41.4087 82.4604C41.5465 82.1116 41.6089 82.3881 41.5827 82.6058C41.5681 82.7277 41.5576 82.8491 41.5544 82.971C41.551 83.0758 41.5526 83.1816 41.5526 83.2854C41.5526 83.5518 41.5649 84.0984 41.5485 84.0888C41.3751 83.9994 41.3716 83.5401 41.131 83.5401C40.9333 83.5401 40.9501 84.1679 40.9501 84.2836C40.9493 84.31 40.9432 84.619 40.979 84.619C40.9936 84.619 40.9965 84.5228 40.9972 84.5156C41.0102 84.3177 40.9672 83.926 41.1069 83.7629C41.1833 83.6728 41.4337 84.1219 41.4907 84.1712C41.7043 84.3616 41.7512 83.8349 41.8102 83.7267C42.1087 83.1768 43.0327 82.7754 43.5412 82.4084C45.8586 80.7372 48.127 78.6009 49.0608 75.9129C49.8145 73.7459 49.5953 71.2518 48.8031 69.1201C48.5284 68.3843 47.9402 67.6255 47.8193 66.8565C47.7687 66.5442 47.8462 66.2251 47.8223 65.91C47.7993 65.6252 47.6891 65.2868 47.7334 65.004C47.7602 64.8323 47.9572 64.7678 47.9312 64.5763C47.8817 64.212 47.6164 63.8434 47.5037 63.4877C47.4337 63.2712 47.3888 63.0458 47.3039 62.8341C47.0791 62.2829 47.2449 63.5873 47.2564 63.6375C47.3623 64.1518 46.9388 63.5741 46.8285 63.4355C46.4549 62.969 45.6888 62.3359 45.9684 61.6465C46.0514 61.4416 46.2251 61.2573 46.4161 61.1339C48.0331 60.0898 48.5016 64.0532 48.5016 64.8558C48.5016 65.1113 48.535 65.5637 48.3967 65.7904C48.3328 65.8943 48.0831 65.8369 48.0991 65.9746C48.103 66.0152 48.12 66.0539 48.1389 66.0893C48.212 66.2427 48.3109 66.383 48.3767 66.5396C48.3827 66.5566 48.3902 66.5734 48.3976 66.5904C48.4257 66.6659 48.4456 66.743 48.4756 66.8171C48.5094 66.9035 48.5655 66.9722 48.6198 67.047C48.6274 67.0584 48.6353 67.0701 48.6433 67.0811C48.7751 67.2812 48.8042 67.5195 48.8461 67.7458C48.85 67.7694 48.8851 68.0223 48.9289 68.0032C48.9809 67.9828 48.9938 67.8373 49.0034 67.7948C49.1107 67.2528 48.7861 66.847 48.7298 66.3293C48.6893 65.9659 48.7771 65.5888 48.7821 65.2232C48.7952 64.0901 48.6731 60.5394 46.8518 60.6501C46.3389 60.6812 46.1362 61.1083 45.7156 61.2761C45.5886 61.3268 45.4922 61.2425 45.4234 61.1486C45.0902 60.697 44.1352 58.7246 44.1093 58.2014C44.0997 58.0212 44.2423 57.8705 44.2472 57.6855C44.2563 57.3356 44.1123 56.9901 44.085 56.641C44.0631 56.3581 44.153 56.0784 44.0925 55.7981C43.9782 55.28 43.5641 54.88 43.4253 54.376C43.3343 54.0417 43.4628 53.7168 43.3383 53.3755C43.185 52.9599 42.8159 52.6504 42.6673 52.2446C42.5822 52.0164 42.7931 51.8777 42.6352 51.6343C42.4554 51.3601 42.1806 51.1558 41.989 50.8899C41.8123 50.6471 41.7342 50.3578 41.5424 50.12C41.4605 50.0197 41.2073 49.8828 41.1628 49.7822Z" fill="black" stroke="black" stroke-width="0.3025" stroke-miterlimit="22.9256" stroke-linejoin="round"/>
</g>
</g>
<defs>
<clipPath id="clip0_1577_8072">
<rect width="186" height="133" fill="white" transform="translate(0.339844)"/>
</clipPath>
<clipPath id="clip1_1577_8072">
<rect width="181" height="69" fill="white" transform="translate(0.339844 38)"/>
</clipPath>
</defs>
</svg>
