<svg width="29" height="29" viewBox="0 0 29 29" fill="none" xmlns="http://www.w3.org/2000/svg">
<g opacity="0.25">
<path d="M25.375 14.5C25.375 14.7404 25.2795 14.9709 25.1096 15.1408C24.9396 15.3108 24.7091 15.4062 24.4688 15.4062H15.4062V24.4688C15.4062 24.7091 15.3108 24.9396 15.1408 25.1096C14.9709 25.2795 14.7404 25.375 14.5 25.375C14.2596 25.375 14.0291 25.2795 13.8592 25.1096C13.6892 24.9396 13.5938 24.7091 13.5938 24.4688V15.4062H4.53125C4.2909 15.4062 4.06039 15.3108 3.89043 15.1408C3.72048 14.9709 3.625 14.7404 3.625 14.5C3.625 14.2596 3.72048 14.0291 3.89043 13.8592C4.06039 13.6892 4.2909 13.5938 4.53125 13.5938H13.5938V4.53125C13.5938 4.2909 13.6892 4.06039 13.8592 3.89043C14.0291 3.72048 14.2596 3.625 14.5 3.625C14.7404 3.625 14.9709 3.72048 15.1408 3.89043C15.3108 4.06039 15.4062 4.2909 15.4062 4.53125V13.5938H24.4688C24.7091 13.5938 24.9396 13.6892 25.1096 13.8592C25.2795 14.0291 25.375 14.2596 25.375 14.5Z" fill="black"/>
</g>
</svg>
