<svg width="156" height="46" viewBox="0 0 156 46" fill="none" xmlns="http://www.w3.org/2000/svg">
<path d="M3.77872 15.1194L5.4865 22.2193C5.53507 22.43 5.59724 22.7404 5.67107 23.1446C5.7449 23.5508 5.82844 23.9876 5.91782 24.4512C6.00719 24.9148 6.09073 25.3746 6.16456 25.8306C6.23839 26.2865 6.30056 26.6601 6.34913 26.9532H6.3977C6.44628 26.6448 6.50845 26.2654 6.58228 25.8191C6.65611 25.3727 6.73965 24.9167 6.82902 24.4531C6.91839 23.9895 7.00971 23.5584 7.10102 23.16C7.19039 22.7615 7.26228 22.4492 7.31085 22.2212L9.11577 15.1213H12.6537L14.4587 22.1963C14.5092 22.407 14.5752 22.7174 14.6568 23.1216C14.7384 23.5278 14.8297 23.9665 14.9288 24.4397C15.0279 24.9129 15.1173 25.3746 15.2008 25.8306C15.2824 26.2865 15.3485 26.6601 15.399 26.9532H15.4476C15.4981 26.6448 15.5642 26.2654 15.6458 25.8191C15.7274 25.3727 15.8148 24.9206 15.9061 24.4665C15.9974 24.0106 16.0829 23.5757 16.1664 23.16C16.248 22.7461 16.3141 22.4243 16.3646 22.1963L17.9966 15.1213H21.4102L17.4274 30.4898H13.7165L11.7134 22.5622C11.5482 21.9128 11.3967 21.2691 11.2549 20.6349C11.115 20.0008 10.979 19.3418 10.8469 18.6598H10.7983C10.6662 19.3437 10.5341 19.9932 10.402 20.612C10.2698 21.2288 10.1202 21.8725 9.95704 22.5392L8.02777 30.4917H4.39655L0.339844 15.1194H3.77872Z" fill="black"/>
<path d="M26.9107 15.1194H30.4234L36.1879 30.4878H32.5994L31.3871 26.9494H25.8441L24.6317 30.4878H21.0938L26.9107 15.1194ZM26.6134 24.4876H30.5711L29.8522 22.4377C29.621 21.8036 29.4073 21.1656 29.2091 20.5238C29.0109 19.8801 28.8225 19.2345 28.6418 18.5831H28.5932C28.4106 19.2019 28.2144 19.8322 27.9987 20.474C27.783 21.1158 27.5616 21.771 27.3304 22.4377L26.6134 24.4876Z" fill="black"/>
<path d="M48.3618 15.1194V17.7057H41.8552V21.7787H47.8178V24.3401H41.8552V30.4878H38.4668V15.1194H48.3618Z" fill="black"/>
<path d="M60.9536 15.1194V17.7057H54.447V21.7787H60.4096V24.3401H54.447V30.4878H51.0586V15.1194H60.9536Z" fill="black"/>
<path d="M63.6504 15.1194H73.7941V17.7057H67.0388V21.2193H73.151V23.7807H67.0388V27.9034H73.8679V30.4898H63.6504V15.1194Z" fill="black"/>
<path d="M76.7363 15.1194H79.8294L85.1975 23.2193C85.5608 23.773 85.8931 24.3133 86.1981 24.842C86.5031 25.3708 86.7207 25.7827 86.8548 26.0739H86.9033C86.8043 25.0183 86.7538 23.9627 86.7538 22.9147C86.7538 21.8668 86.7538 20.8035 86.7538 19.7307V15.1194H89.8973V30.4878H86.8043L81.8072 23.022C81.5916 22.6982 81.3817 22.3591 81.1758 22.0086C80.9698 21.6599 80.7755 21.3227 80.5949 20.997C80.4122 20.6713 80.251 20.3744 80.113 20.1062C79.9731 19.838 79.8702 19.6138 79.8041 19.4357H79.7555C79.8371 20.5583 79.8838 21.635 79.8915 22.6676C79.8993 23.7021 79.9051 24.7539 79.9051 25.8286V30.4878H76.7383V15.1194H76.7363Z" fill="black"/>
<path d="M93.6113 15.1194H99.0786C99.9859 15.1194 100.806 15.2248 101.54 15.4374C102.273 15.6481 102.9 15.9585 103.419 16.3646C103.94 16.7708 104.338 17.2632 104.62 17.8398C104.901 18.4165 105.041 19.0793 105.041 19.8284C105.041 20.7077 104.876 21.4626 104.546 22.0967C104.215 22.7308 103.767 23.2557 103.197 23.6715C102.628 24.0853 101.964 24.3937 101.206 24.5968C100.446 24.8018 99.64 24.9014 98.7813 24.9014H96.9997V30.4878H93.6113V15.1194ZM97.0016 22.34H98.3888C98.8163 22.34 99.2243 22.3036 99.6128 22.2308C99.9995 22.158 100.339 22.0277 100.627 21.84C100.915 21.6522 101.142 21.4089 101.307 21.1081C101.472 20.8074 101.554 20.43 101.554 19.974C101.554 19.177 101.282 18.5908 100.738 18.2172C100.194 17.8436 99.5002 17.6578 98.6589 17.6578H97.0016V22.34Z" fill="black"/>
<path d="M107.764 15.1194H113.678C114.552 15.1194 115.323 15.2458 115.992 15.4968C116.66 15.7497 117.216 16.0907 117.661 16.5217C118.106 16.9528 118.44 17.4566 118.663 18.0333C118.885 18.61 118.997 19.2326 118.997 19.9012C118.997 20.5181 118.902 21.0679 118.714 21.5469C118.523 22.0277 118.284 22.4415 117.997 22.7921C117.707 23.1427 117.385 23.4358 117.031 23.6715C116.676 23.9071 116.334 24.0968 116.003 24.2443L119.813 30.4898H115.93L112.936 24.8305H111.129V30.4898H107.764V15.1194ZM111.129 22.2672H112.465C113.357 22.2672 114.086 22.089 114.655 21.7308C115.222 21.3725 115.508 20.7786 115.508 19.951C115.508 19.2192 115.281 18.654 114.828 18.2555C114.375 17.857 113.711 17.6578 112.837 17.6578H111.129V22.2672Z" fill="black"/>
<path d="M135.419 23.1351C135.419 23.6772 135.287 24.1964 135.046 24.6505C134.749 25.2558 134.255 25.7539 133.651 26.0796C133.431 26.2099 133.191 26.3076 132.938 26.3727V46H131.071V26.3727C130.818 26.3076 130.577 26.2099 130.358 26.0796C129.853 25.8095 129.435 25.4187 129.128 24.9436C128.788 24.4244 128.59 23.8075 128.59 23.1351C128.59 22.4626 128.788 21.8477 129.128 21.3266C129.359 20.9587 129.678 20.633 130.039 20.384C130.346 20.1675 130.698 19.9951 131.071 19.8974V0H132.938V19.8993C133.311 19.997 133.663 20.1694 133.97 20.3859C134.43 20.7001 134.803 21.1216 135.046 21.6197C135.287 22.0756 135.419 22.5948 135.419 23.1351Z" fill="black"/>
<path d="M123.872 26.0797H121.896C122.928 29.4036 125.64 32.034 129.065 32.9765V31.0608C126.672 30.2274 124.762 28.3978 123.872 26.0797ZM140.011 26.0797C139.145 28.3423 137.299 30.1393 134.983 30.9956V32.9344C138.333 31.9497 140.977 29.35 141.987 26.0816H140.011V26.0797ZM121.842 20.386H123.796C124.653 17.9817 126.608 16.0659 129.067 15.2114V13.2957C125.574 14.2574 122.817 16.9644 121.842 20.386ZM134.983 13.3378V15.2766C137.365 16.154 139.254 18.0372 140.089 20.386H142.044C141.076 17.0199 138.397 14.3455 134.983 13.3378Z" fill="black"/>
<path d="M113.727 13.1653H115.912C118.799 8.75898 123.544 5.619 129.066 4.80671V2.95605C122.477 3.83349 116.857 7.7302 113.727 13.1653ZM150.157 13.1653C147.051 7.77426 141.506 3.89862 134.983 2.96755V4.8297C140.429 5.68414 145.106 8.80304 147.972 13.1653C149.388 15.3091 150.353 17.7555 150.76 20.3859H152.636C152.287 17.7881 151.43 15.3512 150.157 13.1653ZM150.727 26.0796C150.299 28.6564 149.332 31.0588 147.927 33.1604C145.073 37.4901 140.406 40.5879 134.982 41.4423V43.3045C141.48 42.3734 147.016 38.5188 150.122 33.1604C151.374 31.0166 152.242 28.6238 152.615 26.0796H150.727ZM115.945 33.1604H113.76C116.899 38.5629 122.499 42.4385 129.066 43.316V41.4653C123.575 40.653 118.844 37.5341 115.945 33.1604Z" fill="black"/>
<path d="M155.34 22.3169H138.389V24.158H155.34V22.3169Z" fill="black"/>
</svg>
