<svg width="188" height="134" viewBox="0 0 188 134" fill="none" xmlns="http://www.w3.org/2000/svg">
<path d="M31.7806 48.7432V53.3673H17.8357V81.1593H39.1552V62.4625H27.1423V72.4173H35.5451V77.0147H22.4881V57.8384H43.8077V85.785H13.2383V48.7432H31.7806Z" fill="#080D10"/>
<path d="M38.1908 49.0586H34.1953V53.0539H38.1908V49.0586Z" fill="#080D10"/>
<path d="M43.8021 49.1182H39.8066V53.1135H43.8021V49.1182Z" fill="#080D10"/>
<path d="M32.5872 73.6125C32.5872 73.4172 32.4026 73.4278 32.4026 73.4278H31.9125C31.8271 73.4278 31.7135 73.4794 31.6567 73.5416C31.4881 73.7262 31.1577 74.0902 30.9908 74.2749C30.9341 74.3371 30.888 74.4578 30.888 74.5413V74.9124C30.888 74.9976 30.9553 75.0651 31.0406 75.0651H31.3566C31.442 75.0651 31.5094 74.9976 31.5094 74.9124V74.7899C31.5094 74.7046 31.5555 74.5857 31.6123 74.5235L31.8663 74.2465C31.9231 74.1845 31.9693 74.2022 31.9693 74.2873V75.193C31.9693 75.2782 31.9001 75.3456 31.8166 75.3456H31.0317C30.9465 75.3456 30.8789 75.4148 30.8789 75.4983V75.8199C30.8789 75.9033 30.9484 75.9725 31.0317 75.9725H32.3689C32.3689 75.9725 32.5872 75.9815 32.5891 75.7524V73.6109L32.5872 73.6125Z" fill="#FDFDFF"/>
<path d="M32.8125 73.6125C32.8125 73.4172 32.9972 73.4278 32.9972 73.4278H33.489C33.5725 73.4278 33.6878 73.4794 33.7447 73.5416C33.9117 73.7262 34.242 74.0902 34.4106 74.2749C34.4675 74.3371 34.5136 74.4578 34.5136 74.5413V74.9124C34.5136 74.9976 34.4444 75.0651 34.361 75.0651H34.0449C33.9597 75.0651 33.8921 74.9976 33.8921 74.9124V74.7899C33.8921 74.7046 33.8459 74.5857 33.7891 74.5235L33.5351 74.2465C33.4785 74.1845 33.4322 74.2022 33.4322 74.2873V75.193C33.4322 75.2782 33.5015 75.3456 33.585 75.3456H34.3698C34.455 75.3456 34.5226 75.4148 34.5226 75.4983V75.8199C34.5226 75.9033 34.4532 75.9725 34.3698 75.9725H33.0345C33.0345 75.9725 32.8161 75.9815 32.8142 75.7524V73.6109L32.8125 73.6125Z" fill="#FDFDFF"/>
<path d="M55.1329 74.1919C56.5748 74.1919 57.8053 74.6608 58.8211 75.5984C59.8671 76.5609 60.3908 77.7611 60.3908 79.2048C60.3908 80.6486 59.8368 81.9288 58.7289 83.0121C57.6456 84.0703 56.4008 84.6014 54.9943 84.6014C53.588 84.6014 52.2686 84.0918 51.2014 83.0724C50.1343 82.0532 49.5996 80.819 49.5996 79.3701C49.5996 77.9211 50.1485 76.6975 51.2475 75.696C52.3467 74.6945 53.6413 74.1938 55.1329 74.1938V74.1919ZM55.1595 74.8312C53.9237 74.8312 52.9416 75.2752 52.21 76.163C51.5157 77.0083 51.1694 78.088 51.1694 79.4002C51.1694 80.6042 51.5157 81.643 52.21 82.5184C52.9471 83.4489 53.8845 83.9141 55.021 83.9141C56.2499 83.9141 57.1999 83.4276 57.8693 82.4545C58.4536 81.6039 58.7466 80.5385 58.7466 79.2617C58.7466 78.088 58.4269 77.0722 57.7876 76.2162C57.1005 75.2929 56.2232 74.8295 55.1578 74.8295L55.1595 74.8312Z" fill="#080D10"/>
<path d="M62.5754 75.7444V83.897C62.5754 83.9643 62.5842 84.0193 62.602 84.062C62.6197 84.1047 62.6606 84.1651 62.7209 84.2449C62.8312 84.3799 62.9589 84.4669 63.1046 84.5095H61.4159C61.4957 84.4971 61.5615 84.4705 61.6164 84.4279C61.6893 84.3551 61.7444 84.3 61.7817 84.2627C61.8189 84.2255 61.8421 84.1792 61.8545 84.1205C61.8668 84.0639 61.8723 83.9998 61.8723 83.9342V75.0981C61.8723 74.995 61.8633 74.9223 61.8456 74.8797C61.8279 74.8371 61.7479 74.743 61.6076 74.5973C61.5348 74.5245 61.4194 74.4482 61.2614 74.3682C61.2134 74.3434 61.1388 74.3133 61.043 74.2778H63.126L69.2593 81.8033V74.8797C69.2593 74.8193 69.2504 74.7695 69.2327 74.7269C69.2148 74.6844 69.1776 74.6257 69.1225 74.5476C69.0427 74.4286 68.9343 74.338 68.794 74.2778H70.5734C70.4437 74.338 70.3353 74.4233 70.2484 74.5334C70.211 74.5761 70.1773 74.6152 70.1453 74.6525C70.0833 74.7322 70.053 74.8069 70.053 74.8814V84.8025L62.5754 75.7498V75.7444Z" fill="#080D10"/>
<path d="M71.7453 84.517C71.8127 84.469 71.8678 84.4282 71.9103 84.3979C72.0204 84.3127 72.0968 84.231 72.143 84.1511C72.1892 84.073 72.2211 84.0055 72.2388 83.9505C72.2566 83.8954 72.2655 83.8297 72.2655 83.7498V75.0239C72.2655 74.9511 72.2548 74.8835 72.2335 74.8231C72.2123 74.7627 72.1803 74.6988 72.1412 74.6313C72.1004 74.5639 72.0471 74.5 71.9778 74.4396C71.8659 74.3419 71.7861 74.2852 71.7363 74.2656H74.1549C74.0945 74.303 74.0484 74.333 74.0181 74.3562C73.9081 74.436 73.8353 74.5017 73.7997 74.5568C73.6843 74.7095 73.6257 74.8641 73.6257 75.022V83.7214H76.9393C77.1151 83.7214 77.2767 83.6877 77.4223 83.6201C77.4951 83.583 77.5873 83.5314 77.6957 83.4638C77.9212 83.3218 78.0934 83.1354 78.2161 82.901L78.0065 84.517H71.7434H71.7453Z" fill="#080D10"/>
<path d="M81.024 83.7498C81.024 83.8403 81.0381 83.9185 81.0649 83.9825C81.0915 84.0463 81.1395 84.1245 81.2069 84.2151C81.2496 84.2701 81.34 84.3501 81.4804 84.453C81.4981 84.4655 81.5284 84.4867 81.5709 84.517H79.1523C79.2199 84.469 79.2749 84.4282 79.3175 84.3979C79.4277 84.3127 79.5039 84.231 79.5501 84.1511C79.5963 84.0713 79.6282 84.0055 79.6513 83.9505C79.6727 83.8954 79.6833 83.8279 79.6833 83.7498V75.0239C79.6833 74.8888 79.6443 74.7557 79.5643 74.6225C79.5165 74.5372 79.4489 74.4591 79.3638 74.3899C79.2785 74.3207 79.2146 74.278 79.1719 74.2656H81.5727C81.5124 74.303 81.4661 74.333 81.4359 74.3562C81.3259 74.436 81.2477 74.5088 81.198 74.5745C81.15 74.6421 81.1075 74.7113 81.0755 74.7841C81.0435 74.8569 81.0257 74.9368 81.0257 75.022V83.7481L81.024 83.7498Z" fill="#080D10"/>
<path d="M84.0326 75.7444V83.897C84.0326 83.9643 84.0414 84.0193 84.0591 84.062C84.0769 84.1047 84.1177 84.1651 84.1781 84.2449C84.2882 84.3799 84.4161 84.4669 84.5617 84.5095H82.8729C82.9528 84.4971 83.0185 84.4705 83.0736 84.4279C83.1464 84.3551 83.2014 84.3 83.2388 84.2627C83.276 84.2255 83.299 84.1792 83.3114 84.1205C83.324 84.0639 83.3293 83.9998 83.3293 83.9342V75.0981C83.3293 74.995 83.3205 74.9223 83.3026 74.8797C83.2849 74.8371 83.2049 74.743 83.0648 74.5973C82.992 74.5245 82.8765 74.4482 82.7185 74.3682C82.6705 74.3434 82.5959 74.3133 82.5 74.2778H84.583L90.7165 81.8033V74.8797C90.7165 74.8193 90.7074 74.7695 90.6897 74.7269C90.672 74.6844 90.6346 74.6257 90.5796 74.5476C90.4997 74.4286 90.3915 74.338 90.2511 74.2778H92.0303C91.9007 74.338 91.7925 74.4233 91.7055 74.5334C91.6682 74.5761 91.6345 74.6152 91.6025 74.6525C91.5402 74.7322 91.5102 74.8069 91.5102 74.8814V84.8025L84.0326 75.7498V75.7444Z" fill="#080D10"/>
<path d="M97.5998 78.5183C97.7347 78.5183 97.8644 78.472 97.994 78.3815C98.1217 78.291 98.2107 78.1755 98.2585 78.0353V79.6244C98.2213 79.4789 98.1449 79.3688 98.0295 79.2959C97.9744 79.2533 97.9176 79.2249 97.8607 79.209C97.8021 79.1931 97.7276 79.1859 97.6371 79.1859H95.1261V83.7228H98.3757C98.5587 83.7228 98.7096 83.7051 98.8268 83.6679C98.9457 83.6305 99.077 83.5577 99.2246 83.4459C99.4856 83.2684 99.6685 83.0215 99.7714 82.709L99.4697 84.5166H93.1515C93.1994 84.4918 93.2616 84.4564 93.3344 84.4066C93.457 84.3284 93.544 84.2574 93.599 84.197C93.7268 84.0513 93.7907 83.8774 93.7907 83.6767V75.361C93.7907 75.0875 93.7179 74.8672 93.5724 74.7022C93.3594 74.4518 93.1763 74.3098 93.0254 74.2725H99.0682L99.0593 75.5332C98.967 75.3682 98.8304 75.2312 98.6473 75.1231C98.5373 75.0627 98.4433 75.0182 98.3633 74.9916C98.2833 74.965 98.1892 74.9507 98.0792 74.9507H95.1244V78.5199H97.5963L97.5998 78.5183Z" fill="#080D10"/>
<path d="M106.463 84.4809C106.536 84.4329 106.591 84.3956 106.628 84.3708C106.756 84.2801 106.846 84.2038 106.901 84.1417C106.98 84.0565 107.047 83.9659 107.102 83.8681C107.139 83.8008 107.187 83.6977 107.248 83.5575L111.293 73.9702L115.246 83.5396C115.294 83.6623 115.324 83.7351 115.336 83.7581C115.391 83.8681 115.462 83.9712 115.551 84.0689C115.64 84.1665 115.771 84.2642 115.949 84.3601C116.082 84.4329 116.171 84.4756 116.213 84.4878L113.347 84.479C113.438 84.4365 113.509 84.3992 113.557 84.3689C113.71 84.2785 113.804 84.1896 113.839 84.1044C113.876 84.0192 113.894 83.9481 113.894 83.8931C113.894 83.8256 113.875 83.7385 113.834 83.6321C113.793 83.5256 113.761 83.4421 113.738 83.3799L112.882 81.2828H109L108.029 83.6091C108.006 83.6764 107.983 83.7439 107.96 83.8149C107.937 83.8843 107.924 83.9481 107.924 84.0032C107.924 84.0459 107.933 84.0954 107.951 84.1488C107.994 84.2465 108.105 84.3405 108.288 84.4329C108.319 84.4454 108.361 84.4632 108.416 84.4878L106.463 84.479V84.4809ZM110.902 76.5647L109.267 80.6293H112.6L110.902 76.5647Z" fill="#080D10"/>
<path d="M125.537 75.1915L125.628 77.6223C125.329 76.7133 124.908 76.0366 124.367 75.5926C123.752 75.0956 122.927 74.8469 121.893 74.8469C120.737 74.8469 119.753 75.3068 118.944 76.2249C118.159 77.1198 117.766 78.1728 117.766 79.384C117.766 80.595 118.141 81.7207 118.889 82.6157C119.686 83.5657 120.705 84.0399 121.946 84.0399C122.865 84.0399 123.662 83.7771 124.333 83.2497C125.006 82.724 125.473 82.0103 125.734 81.1082L125.697 83.4913C125.228 83.8446 124.647 84.1305 123.953 84.3489C123.259 84.5673 122.525 84.6774 121.753 84.6774C120.153 84.6774 118.835 84.1661 117.8 83.1449C116.765 82.1239 116.248 80.8613 116.248 79.359C116.248 77.8568 116.823 76.6813 117.974 75.6833C119.088 74.7173 120.412 74.2324 121.945 74.2324C122.559 74.2324 123.278 74.3568 124.099 74.6055C124.773 74.8113 125.251 75.0067 125.532 75.1879L125.537 75.1915Z" fill="#080D10"/>
<path d="M126.572 84.4814C126.645 84.4334 126.7 84.3961 126.737 84.3713C126.865 84.2806 126.956 84.2043 127.011 84.1422C127.091 84.057 127.157 83.9663 127.212 83.8686C127.249 83.8013 127.297 83.6982 127.357 83.558L131.402 73.9707L135.356 83.5401C135.404 83.6628 135.433 83.7356 135.446 83.7586C135.501 83.8686 135.572 83.9717 135.661 84.0694C135.749 84.167 135.881 84.2647 136.058 84.3606C136.192 84.4334 136.281 84.4761 136.322 84.4883L133.457 84.4795C133.547 84.437 133.618 84.3997 133.666 84.3694C133.819 84.279 133.913 84.1901 133.949 84.1049C133.984 84.0197 134.004 83.9486 134.004 83.8935C134.004 83.8261 133.984 83.739 133.943 83.6326C133.903 83.5261 133.871 83.4426 133.847 83.3804L132.992 81.2832H129.11L128.138 83.6096C128.115 83.6769 128.092 83.7444 128.069 83.8154C128.046 83.8847 128.034 83.9486 128.034 84.0037C128.034 84.0463 128.042 84.0959 128.06 84.1493C128.103 84.247 128.215 84.341 128.398 84.4334C128.428 84.4459 128.471 84.4637 128.526 84.4883L126.572 84.4795V84.4814ZM131.012 76.5651L129.376 80.6298H132.709L131.01 76.5651H131.012Z" fill="#080D10"/>
<path d="M137.376 84.5157C137.448 84.498 137.552 84.4448 137.681 84.356C137.81 84.2672 137.9 84.1856 137.945 84.1092C137.992 84.0328 138.024 83.9671 138.041 83.9121C138.058 83.8571 138.068 83.7931 138.068 83.7203V75.0866C138.068 74.9837 138.05 74.8913 138.013 74.8131C138.001 74.7883 137.97 74.7369 137.922 74.6569C137.874 74.577 137.789 74.4918 137.666 74.4012C137.576 74.3338 137.512 74.2946 137.474 74.2822H142.369C143.745 74.2822 144.902 74.7297 145.847 75.6247C146.821 76.5445 147.307 77.7076 147.307 79.1158C147.307 80.6323 146.745 81.9126 145.618 82.9531C144.493 83.9956 143.1 84.5157 141.436 84.5157H137.373H137.376ZM139.485 74.9482V83.5659C139.789 83.6635 140.064 83.7239 140.306 83.7487C140.55 83.7736 140.888 83.786 141.321 83.786C142.733 83.786 143.803 83.4806 144.535 82.8715C145.423 82.1275 145.869 80.8987 145.869 79.1851C145.869 78.0629 145.506 77.0844 144.781 76.248C144.033 75.3814 143.118 74.9482 142.034 74.9482H139.489H139.485Z" fill="#080D10"/>
<path d="M152.75 78.5183C152.886 78.5183 153.015 78.472 153.144 78.3815C153.272 78.291 153.362 78.1755 153.408 78.0353V79.6244C153.372 79.4789 153.295 79.3688 153.18 79.2959C153.124 79.2533 153.068 79.2249 153.011 79.209C152.952 79.1931 152.878 79.1859 152.788 79.1859H150.276V83.7228H153.526C153.708 83.7228 153.86 83.7051 153.979 83.6679C154.099 83.6305 154.228 83.5577 154.376 83.4459C154.639 83.2684 154.821 83.0215 154.924 82.709L154.622 84.5166H148.304C148.351 84.4918 148.414 84.4564 148.487 84.4066C148.608 84.3284 148.696 84.2574 148.751 84.197C148.879 84.0513 148.943 83.8774 148.943 83.6767V75.361C148.943 75.0875 148.87 74.8672 148.724 74.7022C148.511 74.4518 148.328 74.3098 148.178 74.2725H154.222L154.212 75.5332C154.119 75.3682 153.983 75.2312 153.8 75.1231C153.69 75.0627 153.595 75.0182 153.515 74.9916C153.436 74.965 153.342 74.9507 153.231 74.9507H150.276V78.5199H152.748L152.75 78.5183Z" fill="#080D10"/>
<path d="M164.308 75.9603L160.748 84.7306L157.06 75.9692V83.8836C157.06 83.9512 157.072 84.0079 157.096 84.0576C157.101 84.0701 157.143 84.1305 157.216 84.2407C157.288 84.3507 157.391 84.436 157.527 84.4964H155.92C156.053 84.436 156.157 84.3541 156.231 84.2548C156.304 84.1536 156.343 84.0985 156.349 84.086C156.379 84.0311 156.395 83.9743 156.395 83.9121V74.8842C156.395 74.7635 156.36 74.6462 156.291 74.5326C156.221 74.4208 156.125 74.3354 156.004 74.2822H157.905L161.084 82.2571L164.214 74.2822H166.108C166.048 74.3196 166.002 74.3497 165.973 74.3728C165.861 74.4528 165.788 74.5254 165.748 74.5911C165.709 74.6587 165.68 74.7226 165.666 74.783C165.65 74.8434 165.644 74.9286 165.644 75.0386V83.802C165.644 83.9601 165.704 84.1092 165.826 84.2495C165.869 84.2975 165.948 84.3525 166.064 84.4145C166.101 84.4323 166.153 84.4572 166.218 84.4875H163.818C163.866 84.4875 163.94 84.4555 164.033 84.3915C164.126 84.3276 164.19 84.2691 164.225 84.2175C164.258 84.166 164.281 84.1039 164.293 84.0345C164.305 83.9653 164.309 83.8908 164.309 83.8108L164.308 75.9603Z" fill="#080D10"/>
<path d="M172.153 83.6643C172.153 83.7744 172.162 83.8774 172.184 83.975C172.206 84.0728 172.242 84.1544 172.294 84.2218C172.345 84.2894 172.476 84.3674 172.682 84.4598C172.712 84.4722 172.757 84.49 172.817 84.5149H170.033C170.084 84.4972 170.154 84.4633 170.248 84.4137C170.389 84.3409 170.489 84.2645 170.552 84.1846C170.614 84.1064 170.662 84.0301 170.696 83.9556C170.729 83.8828 170.748 83.7993 170.748 83.7087V79.2551L168.21 75.2296C168.137 75.1142 168.073 75.0235 168.018 74.9562C167.945 74.8708 167.866 74.791 167.786 74.7146C167.704 74.6383 167.601 74.5601 167.48 74.4819C167.305 74.3665 167.177 74.2955 167.096 74.2725H170.056C169.996 74.2973 169.949 74.315 169.918 74.3275C169.712 74.4305 169.59 74.537 169.552 74.6471C169.54 74.6772 169.534 74.7235 169.534 74.7838C169.534 74.8743 169.565 74.9756 169.628 75.0839C169.64 75.1016 169.677 75.1603 169.737 75.2562L171.85 78.6087L173.522 75.3947C173.65 75.1426 173.718 75.0058 173.73 74.9808C173.798 74.8282 173.829 74.7199 173.822 74.6595C173.803 74.5619 173.755 74.4802 173.679 74.4163C173.602 74.3523 173.514 74.3045 173.41 74.2742H175.418C175.295 74.3045 175.187 74.3541 175.089 74.4215C175.017 74.4642 174.923 74.5423 174.815 74.6523C174.735 74.727 174.666 74.8087 174.606 74.9011C174.569 74.9507 174.515 75.045 174.441 75.187L172.149 79.2853V83.6661L172.153 83.6643Z" fill="#080D10"/>
<path d="M108.158 66.8514C107.975 66.8514 107.765 66.8281 107.511 66.782C107.165 66.7128 106.217 66.5512 104.924 65.2104C103.56 63.7793 101.966 61.7229 99.9094 59.134C102.243 57.2374 102.958 55.6677 102.958 53.9576C102.958 52.4093 102.035 51.2301 101.389 50.7916C100.14 49.9374 98.5919 49.7988 97.1358 49.7988C96.4183 49.7988 94.664 49.868 93.8791 49.868C93.3943 49.868 91.9363 49.7988 90.7129 49.7988C90.3667 49.7988 90.2051 49.8432 90.2051 50.0048C90.2051 50.1664 90.3417 50.2144 90.5975 50.2144C90.9207 50.2144 91.3149 50.2375 91.4978 50.2819C92.2614 50.4435 92.4478 50.8128 92.4922 51.5994C92.5383 52.3381 92.5383 52.9846 92.5383 56.4987V60.5652C92.5383 62.6908 92.5383 64.5162 92.423 65.4875C92.3306 66.1588 92.2151 66.6665 91.7536 66.7572C91.5458 66.805 91.2688 66.8496 90.9206 66.8496C90.6437 66.8496 90.5513 66.9188 90.5513 67.0342C90.5513 67.1958 90.7129 67.265 91.0131 67.265C91.9382 67.265 93.3943 67.1958 93.8328 67.1958C94.1791 67.1958 95.8874 67.265 97.228 67.265C97.5282 67.265 97.6897 67.1958 97.6897 67.0342C97.6897 66.9188 97.5973 66.8496 97.4127 66.8496C97.1358 66.8496 96.6279 66.805 96.2817 66.7572C95.5873 66.6665 95.4488 66.157 95.3796 65.4875C95.2641 64.5162 95.2641 62.6908 95.2641 60.5422V60.2189C95.2641 60.0803 95.3334 60.0342 95.4488 60.0342L97.4589 60.0803C97.6205 60.0803 97.7589 60.1034 97.8745 60.2419C98.1747 60.5883 99.2382 62.1599 100.16 63.4313C101.454 65.2104 102.333 66.2972 103.326 66.8265C103.926 67.1497 104.505 67.265 105.798 67.265H107.993C108.27 67.265 108.431 67.2189 108.431 67.0342C108.431 66.9188 108.341 66.8496 108.154 66.8496L108.158 66.8514ZM98.8706 58.58C98.4533 58.88 98.1532 58.9724 97.2299 58.9724C96.6528 58.9724 95.9602 58.903 95.4737 58.7414C95.3121 58.6722 95.266 58.58 95.266 58.326V51.3012C95.266 51.1164 95.3121 51.0241 95.4737 50.9779C95.7046 50.9087 96.1218 50.8856 96.6971 50.8856C98.0609 50.8856 100.233 51.8338 100.233 55.1154C100.233 57.0102 99.5614 58.0721 98.8706 58.58Z" fill="#080D10"/>
<path d="M151.921 57.3117C153.192 56.2943 154.278 55.1614 154.278 53.2665C154.278 52.0431 153.537 49.8022 149.356 49.8022C148.569 49.8022 147.669 49.8714 146.536 49.8714C146.073 49.8714 144.619 49.8022 143.395 49.8022C143.048 49.8022 142.887 49.8484 142.887 50.01C142.887 50.1716 143.025 50.2177 143.279 50.2177C143.603 50.2177 143.996 50.2408 144.18 50.287C144.943 50.4485 145.129 50.8179 145.173 51.6027C145.221 52.3432 145.221 52.9896 145.221 56.502V60.5685C145.221 62.6941 145.221 64.5212 145.104 65.4908C145.012 66.1619 144.897 66.6699 144.433 66.7623C144.225 66.8084 143.949 66.8528 143.603 66.8528C143.325 66.8528 143.233 66.9239 143.233 67.0375C143.233 67.1991 143.395 67.2702 143.695 67.2702C144.62 67.2702 146.076 67.1991 146.607 67.1991C147.301 67.1991 149.404 67.3375 149.957 67.3375C154.209 67.3375 156.128 64.7734 156.128 62.3015C156.128 59.5971 153.816 57.9564 151.924 57.31L151.921 57.3117ZM147.992 51.1873C147.992 50.9333 148.037 50.841 148.2 50.7947C148.431 50.7469 148.639 50.7469 148.964 50.7469C150.95 50.7469 151.85 52.7819 151.85 54.3285C151.85 55.4596 151.504 56.2924 150.904 56.7772C150.512 57.1236 150.001 57.216 149.24 57.216C148.709 57.216 148.361 57.1928 148.153 57.1466C148.061 57.1236 147.992 57.0775 147.992 56.8927V51.1854V51.1873ZM150.486 66.2989C149.956 66.2989 149.425 66.2757 148.803 66.0218C148.061 65.7217 147.992 65.3274 147.992 63.8039V58.3274C147.992 58.2121 148.037 58.1658 148.129 58.1658C148.477 58.1658 148.708 58.1658 149.122 58.1889C150.025 58.2351 150.556 58.3967 151.042 58.743C152.8 59.9683 153.281 61.9091 153.281 63.3403C153.281 65.743 151.528 66.2989 150.486 66.2989Z" fill="#080D10"/>
<path d="M121.085 49.6391C120.899 49.6391 120.345 49.8683 118.865 49.8683H109.715C108.951 49.8683 108.074 49.8238 107.405 49.7546C106.828 49.7067 106.595 49.4775 106.412 49.4775C106.274 49.4775 106.204 49.6161 106.135 49.9162C106.089 50.1008 105.65 52.2016 105.65 52.5728C105.65 52.8266 105.697 52.9421 105.858 52.9421C105.997 52.9421 106.064 52.8497 106.112 52.665C106.158 52.4822 106.274 52.2034 106.504 51.8572C106.851 51.3493 107.405 51.232 108.744 51.1859L112.187 51.0936V60.5671C112.187 62.6927 112.187 64.5181 112.071 65.4894C112.002 66.1589 111.864 66.6668 111.402 66.7591C111.194 66.8053 110.917 66.8515 110.569 66.8515C110.292 66.8515 110.2 66.9207 110.2 67.0361C110.2 67.1977 110.361 67.2669 110.661 67.2669C111.585 67.2669 113.041 67.1977 113.574 67.1977C114.22 67.1977 115.676 67.2669 117.202 67.2669C117.455 67.2669 117.64 67.1977 117.64 67.0361C117.64 66.9207 117.525 66.8515 117.271 66.8515C116.925 66.8515 116.417 66.8053 116.093 66.7591C115.399 66.6668 115.261 66.1571 115.191 65.5124C115.076 64.5181 115.076 62.6927 115.076 60.5671V51.0936L117.988 51.1628C120.045 51.2089 120.668 51.8572 120.716 52.4573L120.737 52.7112C120.762 53.0574 120.808 53.1729 120.991 53.1729C121.131 53.1729 121.176 53.0343 121.2 52.8036C121.2 52.2016 121.268 50.6088 121.268 50.1222C121.268 49.7759 121.247 49.6374 121.085 49.6374V49.6391Z" fill="#080D10"/>
<path d="M87.5397 49.8022C86.6393 49.8022 85.1832 49.8714 84.9062 49.8714C84.8831 49.8714 83.427 49.8022 82.2497 49.8022C81.9266 49.8022 81.765 49.8484 81.765 50.01C81.765 50.1716 81.9035 50.2177 82.1573 50.2177C82.4113 50.2177 82.8055 50.2408 82.9903 50.287C83.7538 50.4485 83.9385 50.8179 83.9846 51.6027C84.029 52.3432 84.029 52.9896 84.029 56.502V59.3911C84.029 61.7706 83.9615 63.85 82.6901 65.1214C81.765 66.0466 80.5166 66.3698 79.5009 66.3698C78.7143 66.3698 77.6523 66.2774 76.6117 65.4216C75.4788 64.4981 74.8093 63.0883 74.8093 59.7374V56.502C74.8093 52.9913 74.8093 52.3432 74.8556 51.6027C74.9017 50.7947 75.0864 50.4024 75.7097 50.287C75.9885 50.2408 76.1252 50.2177 76.3809 50.2177C76.6117 50.2177 76.7502 50.1716 76.7502 50.01C76.7502 49.8484 76.5905 49.8022 76.2424 49.8022C75.4113 49.8022 73.9552 49.8714 73.3995 49.8714C72.707 49.8714 71.2508 49.8022 70.0274 49.8022C69.6811 49.8022 69.5195 49.8484 69.5195 50.01C69.5195 50.1716 69.6581 50.2177 69.9119 50.2177C70.2351 50.2177 70.6294 50.2408 70.8122 50.287C71.5757 50.4485 71.7604 50.8179 71.8067 51.6027C71.8528 52.3432 71.8528 52.9896 71.8528 56.502V59.8759C71.8528 63.225 72.7318 64.935 73.9108 65.9987C75.5961 67.524 77.8158 67.5933 79.0392 67.5933C80.5415 67.5933 82.2053 67.3411 83.8461 65.9294C85.7871 64.2655 86.0409 61.5398 86.0409 58.9739V56.502C86.0409 52.9913 86.0409 52.3432 86.0872 51.6027C86.1333 50.7947 86.318 50.4024 86.943 50.287C87.2201 50.2408 87.3586 50.2177 87.6142 50.2177C87.8913 50.2177 88.0298 50.1716 88.0298 50.01C88.0298 49.8484 87.8682 49.8022 87.5449 49.8022H87.5397Z" fill="#080D10"/>
<path d="M82.656 70.0424C82.5636 70.0424 82.4483 70.1099 82.3097 70.156C80.7151 70.7812 79.0068 70.9658 77.8047 70.9658C76.2331 70.9658 73.1611 70.7118 68.285 68.2151L63.6415 65.8356C65.0957 64.8662 67.6617 62.3019 67.6617 58.2356C67.6617 52.8285 63.8261 49.4775 58.3018 49.4775C51.5327 49.4775 48.8281 54.6539 48.8281 58.4203C48.8281 62.5791 51.4616 67.5937 58.2343 67.5937C59.4577 67.5937 60.9369 67.3416 61.8621 66.9934L65.4899 69.1191C69.3257 71.3369 71.7761 72.2621 75.2653 72.2621C78.7548 72.2621 81.2035 71.1985 82.5904 70.5291C82.752 70.4597 82.8674 70.3905 82.8674 70.252C82.8674 70.1367 82.7751 70.046 82.6596 70.046L82.656 70.0424ZM59.0884 66.4376C55.3682 66.4376 52.0405 63.387 52.0405 57.8892C52.0405 52.3916 54.745 50.5874 57.7709 50.5874C60.9618 50.5874 64.4264 53.267 64.4264 58.8588C64.4264 65.6279 60.9369 66.4376 59.0903 66.4376H59.0884Z" fill="#080D10"/>
<path d="M140.221 49.8027C139.322 49.8027 137.865 49.8719 137.587 49.8719C137.565 49.8719 136.11 49.8027 134.931 49.8027C134.609 49.8027 134.446 49.8489 134.446 50.0105C134.446 50.1721 134.585 50.2182 134.839 50.2182C135.093 50.2182 135.487 50.2413 135.671 50.2875C136.435 50.449 136.621 50.8184 136.666 51.6032C136.711 52.3437 136.711 52.9901 136.711 56.5025V59.3916C136.711 61.7711 136.643 63.8505 135.371 65.1219C134.446 66.0471 133.198 66.3703 132.183 66.3703C131.396 66.3703 130.334 66.2779 129.293 65.422C128.16 64.4986 127.491 63.0888 127.491 59.7378V56.5025C127.491 52.9918 127.491 52.3437 127.537 51.6032C127.583 50.7952 127.768 50.4028 128.391 50.2875C128.67 50.2413 128.807 50.2182 129.063 50.2182C129.293 50.2182 129.432 50.1721 129.432 50.0105C129.432 49.8489 129.272 49.8027 128.924 49.8027C128.093 49.8027 126.637 49.8719 126.081 49.8719C125.389 49.8719 123.933 49.8027 122.709 49.8027C122.363 49.8027 122.201 49.8489 122.201 50.0105C122.201 50.1721 122.34 50.2182 122.594 50.2182C122.917 50.2182 123.311 50.2413 123.494 50.2875C124.257 50.449 124.442 50.8184 124.488 51.6032C124.534 52.3437 124.534 52.9901 124.534 56.5025V59.8764C124.534 63.2255 125.413 64.9355 126.592 65.9992C128.278 67.5245 130.497 67.5938 131.721 67.5938C133.223 67.5938 134.887 67.3416 136.527 65.9299C138.469 64.266 138.723 61.5403 138.723 58.9744V56.5025C138.723 52.9918 138.723 52.3437 138.769 51.6032C138.815 50.7952 138.999 50.4028 139.625 50.2875C139.902 50.2413 140.039 50.2182 140.295 50.2182C140.574 50.2182 140.711 50.1721 140.711 50.0105C140.711 49.8489 140.55 49.8027 140.226 49.8027H140.221Z" fill="#080D10"/>
<path d="M175.123 66.8511C174.847 66.8511 174.499 66.828 174.152 66.7587C173.668 66.6433 172.998 66.32 172.118 64.2406C170.639 60.7301 166.942 51.3025 166.389 50.0311C166.159 49.5002 166.019 49.2925 165.811 49.2925C165.579 49.2925 165.442 49.5446 165.163 50.2158L159.363 64.7273C158.902 65.8832 158.461 66.6681 157.398 66.8065C157.216 66.8297 156.89 66.8528 156.682 66.8528C156.497 66.8528 156.406 66.8989 156.406 67.0374C156.406 67.2221 156.544 67.2682 156.844 67.2682C158.044 67.2682 159.315 67.199 159.571 67.199C160.287 67.199 161.282 67.2682 162.021 67.2682C162.271 67.2682 162.413 67.2221 162.413 67.0374C162.413 66.8989 162.341 66.8528 162.065 66.8528H161.719C161.003 66.8528 160.795 66.5527 160.795 66.1353C160.795 65.8602 160.91 65.3043 161.141 64.7273L162.39 61.4226C162.437 61.2858 162.482 61.2378 162.598 61.2378H165.101V58.221H164.298L163.45 59.1532V59.8102H164.054V59.3947L164.501 58.9063V60.0818H163.443H163.059C162.967 60.0818 162.943 60.0126 162.967 59.9202L165.093 54.2362C165.115 54.142 165.162 54.0284 165.231 54.0284C165.301 54.0284 165.323 54.142 165.346 54.2362L167.426 59.9433C167.449 60.0126 167.426 60.0818 167.31 60.0818H166.975H165.915V58.9063L166.365 59.3947V59.8102H166.967V59.1532L166.121 58.221H165.315V61.2378H167.75C167.865 61.2378 167.934 61.2858 167.978 61.3994L169.828 66.2987C169.944 66.5757 169.783 66.7835 169.62 66.8297C169.39 66.8528 169.298 66.8989 169.298 67.0374C169.298 67.199 169.574 67.199 169.991 67.2221C171.84 67.2682 173.527 67.2682 174.358 67.2682C175.19 67.2682 175.42 67.2221 175.42 67.0374C175.42 66.8759 175.307 66.8528 175.12 66.8528L175.123 66.8511Z" fill="#080D10"/>
</svg>
