<svg width="182" height="69" viewBox="0 0 182 69" fill="none" xmlns="http://www.w3.org/2000/svg">
<g style="mix-blend-mode:luminosity" clip-path="url(#clip0_1577_8073)">
<path d="M182.228 -0.790527H-0.175781V69.6973H182.228V-0.790527Z" fill="white"/>
<path d="M55.5801 33.4587V30.9554C56.3584 30.9554 56.966 30.9167 57.403 30.8384C57.839 30.7606 58.1978 30.5931 58.4793 30.3368C58.7606 30.0808 58.9482 29.7461 59.0422 29.3331C59.1362 28.9204 59.1829 28.349 59.1829 27.6195V10.1011H62.7854V27.6194C62.7854 28.6793 62.7102 29.5544 62.5601 30.2455C62.4099 30.9367 62.1359 31.5339 61.7367 32.0376C61.3384 32.542 60.7846 32.9046 60.0762 33.1262C59.3676 33.348 58.4697 33.4587 57.3812 33.4587H55.5801Z" fill="black"/>
<path d="M66.0918 30.9944V16.7747H69.6944V30.0143C69.6944 30.3628 69.8092 30.646 70.0394 30.8642C70.2695 31.0811 70.5675 31.1905 70.9329 31.1905C71.13 31.1905 71.3218 31.1689 71.51 31.1245C71.6976 31.0811 71.8829 31.005 72.0658 30.8959C72.2486 30.7876 72.3917 30.7003 72.4946 30.635C72.5974 30.5696 72.7453 30.4589 72.9381 30.3018C73.1311 30.1447 73.25 30.0494 73.2968 30.0143V16.7747H76.8999V33.4586H73.2967V31.6905C72.9404 31.9723 72.6802 32.1787 72.516 32.3065C72.3511 32.4355 72.1006 32.6088 71.7631 32.8269C71.425 33.0451 71.1271 33.2034 70.8692 33.3018C70.6113 33.4004 70.2898 33.4896 69.9052 33.5715C69.52 33.6525 69.1214 33.6932 68.7092 33.6932C67.9213 33.6932 67.2871 33.4352 66.8089 32.918C66.331 32.4008 66.0918 31.76 66.0918 30.9944Z" fill="black"/>
<path d="M79.3345 29.2875L82.0361 28.4531C82.6838 30.1219 83.5844 30.9553 84.7381 30.9553C85.31 30.9553 85.7535 30.8101 86.0677 30.5194C86.3818 30.2281 86.5389 29.8178 86.5389 29.2875C86.5389 28.5141 86.2386 27.871 85.638 27.358L82.0355 24.8554C81.6323 24.6041 81.2946 24.3668 81.0224 24.1451C80.7506 23.9238 80.4742 23.652 80.1922 23.3308C79.911 23.009 79.6977 22.6482 79.5522 22.2493C79.406 21.8494 79.334 21.4148 79.334 20.9454C79.334 19.5203 79.8239 18.4299 80.8047 17.6739C81.7849 16.9179 83.0958 16.5398 84.7381 16.5398C85.5164 16.5398 86.2203 16.6553 86.8489 16.8853C87.477 17.1156 88.0051 17.439 88.4326 17.856C88.8594 18.273 89.2108 18.736 89.4878 19.2442C89.7645 19.7521 89.9828 20.3198 90.1418 20.9453L87.4401 21.7799C87.3091 21.4494 87.1774 21.165 87.0464 20.9258C86.915 20.687 86.7388 20.4283 86.5183 20.1504C86.2978 19.8726 86.0373 19.657 85.737 19.505C85.4367 19.3531 85.1041 19.2772 84.738 19.2772C84.1654 19.2772 83.7224 19.4229 83.4081 19.7133C83.0938 20.005 82.9369 20.4151 82.9369 20.9454C82.9369 21.4668 83.2368 21.9362 83.8378 22.353L87.4401 24.8557C87.8434 25.1513 88.188 25.4359 88.4743 25.7101C88.7606 25.9834 89.0399 26.3011 89.3116 26.6612C89.5834 27.0218 89.79 27.4237 89.9311 27.8667C90.072 28.3097 90.1417 28.7836 90.1417 29.2877C90.1417 30.7132 89.6516 31.8037 88.6715 32.559C87.6908 33.3152 86.3793 33.6929 84.7379 33.6929C83.2551 33.6929 82.066 33.2851 81.1706 32.4681C80.275 31.6511 79.6628 30.5904 79.3345 29.2875Z" fill="black"/>
<path d="M91.3945 19.2771V16.7743H93.1963V10.9348H96.7991V16.7741H99.5004V19.2767H96.7991V29.0134C96.7991 29.6823 96.8975 30.1737 97.0943 30.4862C97.291 30.7994 97.6893 30.955 98.2908 30.955C98.5622 30.955 98.9658 30.9122 99.5004 30.8252V33.5359C98.5996 33.6401 97.8586 33.6927 97.2774 33.6927C95.8603 33.6927 94.8307 33.3585 94.1882 32.6886C93.5454 32.0198 93.215 31.0069 93.1962 29.6518V19.2771H91.3945Z" fill="black"/>
<path d="M101.23 15.4971C101.23 13.7766 101.808 12.4082 102.962 11.3914C104.116 10.3741 105.645 9.86597 107.55 9.86597C109.745 9.86597 111.452 10.3962 112.672 11.4566C113.891 12.5166 114.586 14.0114 114.755 15.94L111.153 16.7743C111.115 16.1924 111.023 15.6619 110.878 15.1836C110.732 14.7061 110.524 14.2674 110.252 13.8672C109.979 13.4675 109.614 13.157 109.154 12.9351C108.694 12.7135 108.16 12.6026 107.549 12.6026C106.686 12.6026 106.02 12.8264 105.551 13.2738C105.082 13.7215 104.847 14.345 104.847 15.1443C104.847 16.4562 105.448 17.5557 106.649 18.4419L111.152 21.7791C113.553 23.5777 114.754 25.7283 114.754 28.231C114.754 29.9431 114.185 31.2808 113.045 32.2459C111.904 33.2097 110.373 33.6921 108.45 33.6921C106.18 33.6921 104.446 33.0754 103.25 31.8416C102.054 30.6074 101.386 28.9219 101.245 26.7838L104.847 25.9498C105.025 29.2864 106.226 30.9546 108.45 30.9546C110.251 30.9546 111.152 30.1205 111.152 28.4521C111.152 27.9566 111.079 27.4984 110.934 27.0774C110.787 26.656 110.565 26.2689 110.265 25.9168C109.965 25.5653 109.693 25.2826 109.449 25.0696C109.205 24.8569 108.872 24.5939 108.449 24.2816L103.946 20.9445C103.121 20.3449 102.462 19.5827 101.969 18.6568C101.477 17.7324 101.23 16.6789 101.23 15.4971Z" fill="black" fill-opacity="0.82"/>
<path d="M117.389 14.2719V10.9348H120.99V14.2714H117.389V14.2719ZM117.389 33.4585V16.7744H120.99V33.4584L117.389 33.4585Z" fill="black" fill-opacity="0.82"/>
<path d="M123.045 35.9613C123.045 35.0967 123.296 34.3578 123.798 33.7441C124.3 33.1303 124.95 32.6423 125.748 32.2789C125.259 32.1576 124.837 31.9743 124.481 31.7281C124.124 31.4816 123.946 31.1813 123.946 30.8266C123.946 30.6795 123.965 30.5241 124.002 30.3595C124.039 30.1949 124.082 30.0457 124.129 29.9118C124.176 29.7772 124.251 29.6236 124.355 29.4503C124.458 29.2767 124.54 29.1406 124.601 29.0415C124.662 28.9419 124.763 28.8035 124.904 28.6257C125.044 28.4479 125.14 28.3272 125.192 28.2617C125.243 28.1972 125.344 28.0796 125.494 27.9112C125.645 27.7423 125.729 27.6447 125.748 27.6187C124.547 26.298 123.947 24.6298 123.947 22.6137C123.947 21.4577 124.144 20.4282 124.537 19.5249C124.932 18.6206 125.544 17.8975 126.374 17.3543C127.204 16.8117 128.197 16.5399 129.351 16.5399C130.017 16.5399 130.598 16.6337 131.096 16.8211C131.593 17.0087 131.998 17.2452 132.312 17.5311C132.627 17.8174 132.934 18.1944 133.235 18.6627C133.995 17.2476 135.101 16.5398 136.555 16.5398V19.277C135.655 19.277 134.904 19.5551 134.304 20.1112C134.604 20.9277 134.754 21.762 134.754 22.6137C134.754 23.7779 134.564 24.8073 134.185 25.7028C133.804 26.5983 133.199 27.3149 132.369 27.8537C131.538 28.3923 130.532 28.6616 129.351 28.6616C129.002 28.6616 128.623 28.6319 128.21 28.5706L127.535 28.4668C127.516 28.51 127.468 28.5855 127.395 28.6938C127.319 28.8026 127.261 28.889 127.218 28.955C127.176 29.0208 127.136 29.1042 127.098 29.2068C127.061 29.3086 127.042 29.4049 127.042 29.4949C127.042 29.7085 127.16 29.8884 127.396 30.036C127.632 30.1832 127.958 30.2918 128.373 30.3614C128.789 30.4309 129.189 30.4807 129.573 30.5098C129.958 30.5391 130.382 30.5667 130.847 30.5934C131.312 30.6198 131.634 30.6486 131.81 30.6799C132.344 30.7508 132.818 30.8322 133.235 30.9257C133.651 31.0184 134.078 31.1537 134.513 31.3297C134.948 31.5068 135.305 31.7194 135.587 31.9672C135.867 32.2153 136.1 32.5338 136.281 32.9226C136.465 33.3118 136.555 33.7582 136.555 34.2628C136.555 34.8753 136.44 35.4221 136.211 35.9036C135.981 36.3854 135.673 36.7837 135.289 37.0988C134.904 37.4134 134.44 37.6738 133.896 37.88C133.351 38.0859 132.779 38.2316 132.178 38.3201C131.578 38.4074 130.935 38.4509 130.251 38.4509C129.801 38.4509 129.434 38.4489 129.153 38.4446C128.872 38.4403 128.486 38.4293 127.999 38.4121C127.511 38.3942 127.103 38.3619 126.774 38.3135C126.446 38.2647 126.071 38.2026 125.649 38.1282C125.226 38.053 124.877 37.9534 124.6 37.8302C124.324 37.7064 124.059 37.5605 123.805 37.3926C123.553 37.2248 123.362 37.0193 123.235 36.7766C123.109 36.5324 123.045 36.2612 123.045 35.9613ZM126.227 35.1883C126.227 35.3258 126.277 35.4436 126.381 35.5426C126.484 35.6412 126.636 35.7158 126.838 35.7678C127.04 35.8193 127.246 35.8623 127.458 35.897C127.668 35.9313 127.919 35.9527 128.21 35.9617C128.501 35.9698 128.749 35.9743 128.956 35.9743C129.163 35.9743 129.404 35.9696 129.681 35.9617C129.958 35.9528 130.148 35.949 130.251 35.949C130.504 35.949 130.732 35.9445 130.933 35.936C131.135 35.9275 131.367 35.9102 131.63 35.8842C131.892 35.8587 132.12 35.8181 132.312 35.7622C132.505 35.7061 132.688 35.6354 132.861 35.5495C133.034 35.4641 133.169 35.3495 133.263 35.2085C133.356 35.0669 133.403 34.9055 133.403 34.7256C133.403 34.5711 133.384 34.4294 133.347 34.3003C133.216 33.6478 132.273 33.2281 130.519 33.0387L127.549 32.7164C127.183 32.9572 126.871 33.3044 126.613 33.7597C126.355 34.2137 126.227 34.69 126.227 35.1883ZM127.098 22.6137C127.098 24.977 127.849 26.1593 129.351 26.1593C130.851 26.1593 131.602 24.977 131.602 22.6137C131.602 22.1592 131.569 21.7394 131.503 21.3553C131.437 20.971 131.325 20.5947 131.166 20.2267C131.006 19.859 130.772 19.5698 130.462 19.3587C130.153 19.148 129.781 19.0429 129.351 19.0429C128.909 19.0429 128.534 19.1483 128.224 19.3587C127.915 19.5698 127.682 19.859 127.528 20.2267C127.373 20.5946 127.262 20.971 127.197 21.3553C127.131 21.7393 127.098 22.1592 127.098 22.6137Z" fill="black" fill-opacity="0.82"/>
<path d="M138.061 33.4586V16.7745H141.662V18.5737C142.198 18.1216 142.633 17.7762 142.971 17.5369C143.309 17.2983 143.776 17.0724 144.372 16.8596C144.967 16.6467 145.603 16.5398 146.278 16.5398C147.048 16.5398 147.672 16.8005 148.15 17.3221C148.629 17.8435 148.868 18.4822 148.868 19.2383V33.4587H145.266V20.9454C145.266 20.3633 145.176 19.9396 144.998 19.6744C144.82 19.4096 144.458 19.2772 143.914 19.2772C143.604 19.2772 143.296 19.3356 142.992 19.4529C142.687 19.5705 142.46 19.6788 142.309 19.7787C142.159 19.8786 141.943 20.0377 141.662 20.2546V33.4586H138.061Z" fill="black" fill-opacity="0.82"/>
<path d="M151.275 33.4585V30.1218H154.878V33.4585H151.275Z" fill="black"/>
<path d="M157.424 33.4586V16.7745H161.026V18.5737C161.562 18.1216 161.997 17.7762 162.335 17.5369C162.673 17.2983 163.139 17.0724 163.736 16.8596C164.331 16.6467 164.966 16.5398 165.642 16.5398C166.411 16.5398 167.035 16.8005 167.514 17.3221C167.992 17.8435 168.231 18.4822 168.231 19.2383V33.4587H164.629V20.9454C164.629 20.3633 164.539 19.9396 164.361 19.6744C164.183 19.4096 163.822 19.2772 163.278 19.2772C162.968 19.2772 162.66 19.3356 162.355 19.4529C162.05 19.5705 161.823 19.6788 161.673 19.7787C161.523 19.8786 161.308 20.0377 161.025 20.2546V33.4586H157.424Z" fill="black"/>
<path d="M171.455 33.4587V10.1011H175.058V33.4585L171.455 33.4587Z" fill="black"/>
<path d="M54.8657 47.9437C54.0971 47.9437 53.5213 47.7518 53.1368 47.3679C52.7525 46.9836 52.5605 46.377 52.5605 45.5463V40.5323H53.6299V45.4627C53.6299 46.0142 53.7208 46.4272 53.9032 46.7032C54.0855 46.979 54.4141 47.1161 54.8894 47.1161C55.3803 47.1161 55.7147 46.9747 55.893 46.6923C56.0717 46.41 56.1604 46.0002 56.1604 45.4626V40.5322H57.2298V45.5466C57.2298 46.3626 57.0319 46.9669 56.6358 47.3576C56.2395 47.7482 55.6495 47.9437 54.8657 47.9437Z" fill="black"/>
<path d="M63.1939 47.7869C63.0038 47.3747 62.7876 46.93 62.5463 46.4522C62.3041 45.9743 62.051 45.493 61.7857 45.0074C61.5201 44.5225 61.2488 44.0409 60.972 43.5628C60.6945 43.085 60.4216 42.64 60.1524 42.2284V47.7868H59.1543V40.5323H60.0446C60.3458 40.9652 60.6369 41.4083 60.9181 41.8618C61.199 42.3157 61.4663 42.7637 61.72 43.2064C61.9737 43.6498 62.2135 44.0862 62.4389 44.5147C62.6647 44.9444 62.8726 45.3505 63.0627 45.734V40.5322H64.0604V47.7862H63.1939V47.7869Z" fill="black"/>
<path d="M66.0566 40.5322H67.1256V47.7862H66.0566V40.5322Z" fill="black"/>
<path d="M69.1211 47.7869V40.5322H72.816V41.3387H70.1908V43.5889H72.5668V44.3738H70.1908V46.9807H73.0065V47.7868H69.1211V47.7869Z" fill="black"/>
<path d="M79.2431 40.5323C79.0689 40.7697 78.873 41.0306 78.6555 41.3166C78.4378 41.6025 78.2139 41.8969 77.9845 42.2001C77.7556 42.5034 77.5238 42.8011 77.2907 43.0942C77.0572 43.3868 76.8333 43.6586 76.6199 43.9098C76.8575 44.1193 77.1149 44.3829 77.3919 44.7008C77.6688 45.0187 77.9417 45.354 78.2108 45.7066C78.4801 46.0595 78.7332 46.4173 78.9708 46.7804C79.2082 47.1438 79.3981 47.4792 79.5408 47.787H78.342C78.1756 47.4648 77.9832 47.1374 77.7652 46.8009C77.5477 46.4656 77.3173 46.1425 77.0761 45.8314C76.8342 45.5198 76.5888 45.2319 76.3393 44.9664C76.0897 44.7007 75.8462 44.477 75.6085 44.2954V47.7863H74.5391V40.5324H75.6085V43.73C75.8142 43.5004 76.0317 43.2389 76.2617 42.9466C76.4916 42.6539 76.7191 42.3613 76.9448 42.0689C77.1707 41.7764 77.3826 41.496 77.5806 41.2274C77.7784 40.9585 77.9445 40.7273 78.0791 40.5322H79.2431V40.5323Z" fill="black"/>
<path d="M80.6582 47.7869V40.5322H84.3533V41.3387H81.7272V43.5889H84.1038V44.3738H81.7272V46.9807H84.5433V47.7868H80.6582V47.7869Z" fill="black"/>
<path d="M88.724 47.9436C87.7578 47.9436 87.0174 47.6257 86.5023 46.9906C85.9873 46.3561 85.7305 45.3751 85.7305 44.0495C85.7305 43.3728 85.8031 42.8002 85.9504 42.3327C86.0962 41.8656 86.3008 41.4847 86.5623 41.1921C86.8237 40.8988 87.1325 40.6876 87.4887 40.5588C87.8447 40.4298 88.233 40.3647 88.6531 40.3647C89.0008 40.3647 89.3258 40.4056 89.6269 40.4853C89.9282 40.5659 90.1735 40.6653 90.3632 40.7833L90.0424 41.5684C89.8524 41.4572 89.6485 41.3666 89.4304 41.2967C89.2125 41.2269 88.961 41.192 88.6762 41.192C88.0425 41.192 87.5831 41.4237 87.2981 41.8876C87.0127 42.3518 86.8702 43.0721 86.8702 44.0493C86.8702 45.0331 87.0206 45.7908 87.3218 46.3206C87.6233 46.8508 88.1137 47.1161 88.7952 47.1161C89.1192 47.1161 89.3832 47.081 89.5849 47.0112C89.7867 46.9413 89.9828 46.8508 90.1724 46.7395L90.47 47.4827C90.2872 47.6082 90.0481 47.7172 89.7511 47.8074C89.4551 47.898 89.1118 47.9436 88.724 47.9436Z" fill="black"/>
<path d="M94.5645 40.5322C94.7541 41.055 94.9424 41.5835 95.1283 42.1172C95.3138 42.651 95.4963 43.2112 95.6741 43.7972C95.8523 44.3839 96.0302 45.0044 96.2083 45.6605C96.3859 46.3172 96.5653 47.0255 96.7447 47.7868H95.6752C95.6143 47.472 95.5493 47.1618 95.4833 46.8544C95.4172 46.5476 95.3485 46.2409 95.2781 45.9335H92.6805C92.6015 46.2403 92.5298 46.5471 92.466 46.8544C92.4025 47.1613 92.3391 47.4721 92.2777 47.7862H91.2441C91.4192 47.0258 91.5977 46.3178 91.7806 45.6622C91.9629 45.006 92.1434 44.3853 92.323 43.7991C92.5015 43.2132 92.6839 42.6537 92.8714 42.1201C93.0573 41.5859 93.247 41.0567 93.4384 40.5323H94.5643V40.5322H94.5645ZM93.9825 41.6002C93.7896 42.1816 93.602 42.7645 93.4196 43.3502C93.2363 43.9355 93.0618 44.535 92.8949 45.1483H95.0511C94.8934 44.5346 94.7235 43.9348 94.5416 43.3489C94.3602 42.763 94.1736 42.18 93.9825 41.6002Z" fill="black"/>
<path d="M103.172 44.1544C103.172 44.8308 103.091 45.4051 102.929 45.8761C102.766 46.347 102.532 46.7286 102.228 47.0219C101.923 47.3156 101.555 47.528 101.123 47.6606C100.691 47.793 100.21 47.8594 99.6794 47.8594C99.1407 47.8594 98.5706 47.7966 97.9688 47.6713V40.6372C98.2701 40.5818 98.5629 40.536 98.8477 40.5011C99.1328 40.4661 99.4062 40.449 99.6679 40.449C100.206 40.449 100.692 40.5156 101.123 40.6478C101.555 40.7803 101.923 40.9933 102.228 41.2864C102.532 41.5794 102.766 41.9613 102.929 42.4324C103.091 42.9035 103.172 43.4776 103.172 44.1544ZM102.032 44.1544C102.032 43.6378 101.988 43.1982 101.901 42.8351C101.814 42.4726 101.68 42.1762 101.498 41.9456C101.315 41.7151 101.076 41.5479 100.779 41.4434C100.482 41.3391 100.127 41.2865 99.7159 41.2865C99.6049 41.2865 99.4942 41.2897 99.3833 41.297C99.2721 41.3039 99.1575 41.3147 99.0387 41.3281V46.9808C99.1575 46.9946 99.272 47.0053 99.3833 47.0118C99.4942 47.0192 99.6013 47.0223 99.704 47.0223C100.124 47.0223 100.48 46.9703 100.773 46.8654C101.067 46.7606 101.306 46.5947 101.492 46.3686C101.678 46.1416 101.814 45.8467 101.902 45.4834C101.988 45.1208 102.032 44.6777 102.032 44.1544Z" fill="black"/>
<path d="M104.822 47.7869V40.5322H108.517V41.3387H105.892V43.5889H108.268V44.3738H105.892V46.9807H108.707V47.7868H104.822V47.7869Z" fill="black"/>
<path d="M112.918 40.5322C113.108 41.055 113.296 41.5835 113.482 42.1172C113.668 42.651 113.85 43.2112 114.027 43.7972C114.205 44.3839 114.383 45.0044 114.561 45.6605C114.74 46.3172 114.919 47.0255 115.098 47.7868H114.029C113.967 47.472 113.903 47.1618 113.837 46.8544C113.77 46.5476 113.702 46.2409 113.632 45.9335H111.034C110.955 46.2403 110.884 46.5471 110.82 46.8544C110.756 47.1613 110.693 47.4721 110.631 47.7862H109.598C109.773 47.0258 109.952 46.3178 110.134 45.6622C110.317 45.006 110.497 44.3853 110.676 43.7991C110.855 43.2132 111.038 42.6537 111.225 42.1201C111.411 41.5859 111.601 41.0567 111.792 40.5323H112.918V40.5322H112.918ZM112.336 41.6002C112.143 42.1816 111.956 42.7645 111.773 43.3502C111.59 43.9355 111.415 44.535 111.248 45.1483H113.405C113.247 44.5346 113.077 43.9348 112.895 43.3489C112.714 42.763 112.527 42.18 112.336 41.6002Z" fill="black"/>
<path d="M118.39 47.9437C117.621 47.9437 117.046 47.7518 116.662 47.3679C116.277 46.9836 116.086 46.377 116.086 45.5463V40.5323H117.155V45.4627C117.155 46.0142 117.245 46.4272 117.428 46.7032C117.61 46.979 117.939 47.1161 118.414 47.1161C118.905 47.1161 119.24 46.9747 119.418 46.6923C119.597 46.41 119.685 46.0002 119.685 45.4626V40.5322H120.754V45.5466C120.754 46.3626 120.557 46.9669 120.16 47.3576C119.764 47.7482 119.174 47.9437 118.39 47.9437Z" fill="black"/>
<path d="M130.775 40.5322C130.965 41.055 131.152 41.5835 131.339 42.1172C131.524 42.651 131.706 43.2112 131.885 43.7972C132.063 44.3839 132.24 45.0044 132.419 45.6605C132.597 46.3172 132.776 47.0255 132.955 47.7868H131.885C131.824 47.472 131.759 47.1618 131.694 46.8544C131.628 46.5476 131.559 46.2409 131.489 45.9335H128.891C128.812 46.2403 128.74 46.5471 128.676 46.8544C128.613 47.1613 128.55 47.4721 128.489 47.7862H127.455C127.63 47.0258 127.809 46.3178 127.991 45.6622C128.174 45.006 128.355 44.3853 128.534 43.7991C128.712 43.2132 128.895 42.6537 129.082 42.1201C129.269 41.5859 129.458 41.0567 129.649 40.5323H130.775V40.5322H130.775ZM130.193 41.6002C130 42.1816 129.812 42.7645 129.63 43.3502C129.447 43.9355 129.271 44.535 129.105 45.1483H131.261C131.103 44.5346 130.933 43.9348 130.752 43.3489C130.57 42.763 130.384 42.18 130.193 41.6002Z" fill="black"/>
<path d="M134.189 40.637C134.743 40.5185 135.278 40.4595 135.793 40.4595C136.205 40.4595 136.577 40.5009 136.91 40.5849C137.243 40.6687 137.527 40.8011 137.765 40.9828C138.003 41.1639 138.186 41.3977 138.318 41.6841C138.448 41.9702 138.514 42.3157 138.514 42.7203C138.514 43.2222 138.405 43.6294 138.188 43.9398C137.97 44.2504 137.675 44.4854 137.303 44.6462C137.398 44.7861 137.518 44.9756 137.665 45.2166C137.811 45.4576 137.961 45.7226 138.115 46.012C138.27 46.302 138.42 46.6004 138.568 46.9069C138.714 47.2146 138.838 47.5075 138.941 47.7869H137.864C137.777 47.5772 137.669 47.3398 137.539 47.0748C137.409 46.8093 137.273 46.5461 137.132 46.2847C136.99 46.0227 136.848 45.772 136.706 45.5308C136.564 45.2899 136.438 45.086 136.328 44.9184C136.201 44.9327 136.07 44.9428 135.936 44.95C135.801 44.9568 135.667 44.9602 135.532 44.9602H135.235V47.7869H134.189V40.637ZM135.235 44.1854H135.686C136.233 44.1854 136.652 44.0759 136.945 43.856C137.239 43.6362 137.385 43.2576 137.385 42.7202C137.385 42.4481 137.347 42.2195 137.272 42.0346C137.196 41.8498 137.09 41.7034 136.952 41.5952C136.813 41.4866 136.646 41.4085 136.452 41.3592C136.258 41.3104 136.042 41.2862 135.804 41.2862C135.599 41.2862 135.409 41.2967 135.234 41.3176V44.1854H135.235Z" fill="black"/>
<path d="M144.015 40.5322V41.3387H142.187V47.7862H141.117V41.3385H139.287V40.5322H144.015Z" fill="black"/>
<path d="M145.18 40.5322H146.248V47.7862H145.18V40.5322Z" fill="black"/>
<path d="M152.951 40.5323C152.777 40.7697 152.58 41.0306 152.363 41.3166C152.145 41.6025 151.922 41.8969 151.693 42.2001C151.463 42.5034 151.231 42.8011 150.998 43.0942C150.764 43.3873 150.54 43.6586 150.327 43.9098C150.565 44.1193 150.822 44.3829 151.099 44.7008C151.375 45.0187 151.649 45.354 151.918 45.7066C152.186 46.0595 152.441 46.4173 152.677 46.7804C152.915 47.1438 153.105 47.4792 153.248 47.787H152.049C151.883 47.4648 151.69 47.1374 151.473 46.8009C151.254 46.4656 151.025 46.1425 150.783 45.8314C150.541 45.5198 150.295 45.2319 150.046 44.9664C149.797 44.7007 149.553 44.477 149.316 44.2954V47.7863H148.246V40.5324H149.316V43.73C149.521 43.5004 149.739 43.2389 149.968 42.9466C150.197 42.6539 150.426 42.3613 150.651 42.0689C150.876 41.7764 151.089 41.496 151.287 41.2274C151.484 40.9585 151.651 40.7273 151.785 40.5322H152.951V40.5323Z" fill="black"/>
<path d="M154.365 47.7869V40.5322H158.06V41.3387H155.434V43.5889H157.81V44.3738H155.434V46.9807H158.25V47.7868H154.365V47.7869Z" fill="black"/>
<path d="M163.453 46.9806V47.7869H159.781V40.5322H160.851V46.9806H163.453Z" fill="black"/>
<path d="M164.734 47.7869V40.5322H168.43V41.3387H165.804V43.5889H168.18V44.3738H165.804V46.9807H168.62V47.7868H164.734V47.7869Z" fill="black"/>
<path d="M174.191 47.7869C174.002 47.3747 173.786 46.93 173.544 46.4522C173.303 45.9743 173.049 45.493 172.784 45.0074C172.519 44.5225 172.248 44.0409 171.97 43.5628C171.692 43.085 171.419 42.64 171.15 42.2284V47.7868H170.152V40.5323H171.044C171.344 40.9652 171.635 41.4083 171.916 41.8618C172.198 42.3157 172.465 42.7637 172.718 43.2064C172.972 43.6498 173.212 44.0862 173.437 44.5147C173.662 44.944 173.87 45.3505 174.061 45.734V40.5322H175.059V47.7862H174.191V47.7867H174.191V47.7869Z" fill="black"/>
<path d="M7.85938 57.6241C7.85938 56.7933 7.93116 56.0864 8.07538 55.5006C8.21922 54.9162 8.42577 54.4389 8.69344 54.0707C8.96147 53.7016 9.28576 53.4355 9.66601 53.2699C10.0456 53.1048 10.4721 53.0217 10.944 53.0217C11.3044 53.0217 11.6324 53.0748 11.9284 53.1809C12.2243 53.2866 12.4646 53.4083 12.6489 53.5436L12.3129 54.4969C12.1289 54.3614 11.9289 54.2491 11.7127 54.1599C11.4961 54.0707 11.2485 54.0268 10.9686 54.0268C10.2722 54.0268 9.77195 54.3256 9.46797 54.9228C9.1639 55.5206 9.0121 56.4212 9.0121 57.6246C9.0121 58.2691 9.05749 58.82 9.15015 59.2778C9.24186 59.7355 9.37242 60.1088 9.53976 60.3968C9.70803 60.6851 9.91224 60.8974 10.1524 61.0325C10.3925 61.1684 10.6602 61.236 10.9566 61.236C11.2044 61.236 11.4167 61.2062 11.5926 61.1469V57.7015H12.6729V61.8459C12.4569 61.9561 12.1889 62.0494 11.8688 62.1255C11.5486 62.2024 11.2126 62.2403 10.8603 62.2403C10.4276 62.2403 10.0281 62.1487 9.65983 61.967C9.29193 61.7852 8.9742 61.5048 8.7057 61.1278C8.43766 60.7506 8.23008 60.2717 8.08165 59.691C7.93303 59.1101 7.85938 58.4211 7.85938 57.6241Z" fill="black"/>
<path d="M14.5098 62.0362V53.2258H18.2431V54.2049H15.5901V56.939H17.9911V57.8923H15.5901V61.0585H18.4354V62.0374H14.5098V62.0362Z" fill="black"/>
<path d="M19.9844 53.3525C20.5441 53.2086 21.0922 53.1365 21.6289 53.1365C22.0448 53.1365 22.4227 53.1896 22.7631 53.2959C23.1032 53.4013 23.3952 53.5672 23.6393 53.7913C23.8832 54.0158 24.0719 54.3064 24.2038 54.6624C24.3357 55.0184 24.4013 55.4468 24.4013 55.9466C24.4013 56.4554 24.3331 56.8898 24.1976 57.2496C24.0618 57.6099 23.8694 57.9023 23.6212 58.1268C23.3735 58.3513 23.0756 58.5148 22.7276 58.616C22.3791 58.7184 21.9929 58.7684 21.5688 58.7684H21.0643V62.0356H19.9845L19.9844 53.3525ZM21.0647 57.7639H21.4974C21.7692 57.7639 22.0152 57.7329 22.2355 57.6691C22.4554 57.6056 22.6416 57.5017 22.7939 57.3576C22.9457 57.2138 23.0619 57.0276 23.1419 56.7988C23.2218 56.5698 23.2619 56.2858 23.2619 55.9465C23.2619 55.6077 23.2219 55.3216 23.1419 55.0878C23.062 54.8551 22.9519 54.6687 22.8119 54.5282C22.671 54.3887 22.5013 54.2891 22.3013 54.2294C22.1013 54.1704 21.8813 54.1402 21.6411 54.1402C21.4326 54.1402 21.2401 54.1534 21.0648 54.1786V57.7639H21.0647Z" fill="black"/>
<path d="M25.8047 62.0362V53.2258H29.5381V54.2049H26.885V56.939H29.286V57.8923H26.885V61.0585H29.7303V62.0374H25.8047V62.0362Z" fill="black"/>
<path d="M31.2776 53.3525C31.838 53.2086 32.3778 53.1365 32.8979 53.1365C33.3141 53.1365 33.6904 53.1874 34.027 53.2893C34.3632 53.3903 34.6511 53.5517 34.8913 53.7723C35.131 53.9925 35.3167 54.2766 35.4491 54.6242C35.5816 54.9714 35.6473 55.392 35.6473 55.8825C35.6473 56.4929 35.5371 56.987 35.3167 57.3637C35.0965 57.7408 34.7986 58.0271 34.4228 58.2219C34.5187 58.3917 34.6407 58.6228 34.7892 58.9144C34.9366 59.2065 35.0889 59.5291 35.245 59.8809C35.401 60.2327 35.5528 60.5952 35.7008 60.968C35.8492 61.341 35.975 61.6968 36.079 62.0354H34.9906C34.9031 61.7813 34.7938 61.4933 34.6625 61.1708C34.5311 60.849 34.3939 60.5287 34.2502 60.211C34.1073 59.8936 33.9637 59.5881 33.8208 59.2958C33.677 59.0032 33.5499 58.7553 33.4388 58.5527C33.3102 58.5692 33.1787 58.5822 33.0425 58.5903C32.9063 58.5991 32.7701 58.6031 32.6339 58.6031H32.3341V62.0354H31.2773L31.2776 53.3525ZM32.3344 57.6624H32.7902C33.3425 57.6624 33.7671 57.5289 34.063 57.2619C34.3586 56.9949 34.5065 56.5348 34.5065 55.8822C34.5065 55.5516 34.4687 55.2746 34.393 55.0496C34.3169 54.8249 34.2087 54.6468 34.0686 54.5154C33.9287 54.3838 33.7603 54.2886 33.5647 54.2291C33.3684 54.1701 33.1504 54.1398 32.9103 54.1398C32.7021 54.1398 32.5103 54.153 32.3344 54.1782V57.6624Z" fill="black"/>
<path d="M38.481 61.2478C38.913 61.2478 39.2473 61.1214 39.4833 60.8668C39.7187 60.6123 39.8368 60.269 39.8368 59.8367C39.8368 59.6077 39.801 59.4043 39.7291 59.2263C39.6572 59.0483 39.563 58.8877 39.4468 58.7431C39.3309 58.5992 39.1966 58.4677 39.0445 58.3492C38.8923 58.2306 38.7362 58.1116 38.5765 57.9928C38.3925 57.8569 38.2002 57.7129 38.0006 57.5607C37.8001 57.4082 37.6177 57.2302 37.454 57.0267C37.29 56.8238 37.1561 56.5864 37.0522 56.3152C36.9476 56.0441 36.8962 55.7261 36.8962 55.3614C36.8962 55.0058 36.9538 54.6833 37.07 54.3949C37.1854 54.1068 37.3458 53.8606 37.5499 53.6579C37.7542 53.4546 37.9977 53.2975 38.2823 53.1871C38.566 53.0767 38.8725 53.022 39.2005 53.022C39.5206 53.022 39.8161 53.065 40.0885 53.1488C40.3608 53.2339 40.5887 53.3354 40.7727 53.4541L40.4365 54.3566C40.2686 54.2381 40.0862 54.1474 39.8904 54.0833C39.6943 54.0195 39.4881 53.9883 39.2725 53.9883C38.8799 53.9883 38.566 54.1007 38.3297 54.3246C38.0938 54.5493 37.9761 54.8777 37.9761 55.3101C37.9761 55.5472 38.0143 55.7548 38.0905 55.9329C38.1661 56.1111 38.2664 56.2723 38.3903 56.4162C38.5147 56.5599 38.6588 56.6916 38.823 56.8101C38.9869 56.9285 39.1611 57.052 39.3454 57.1791C39.5294 57.3063 39.7179 57.4458 39.9094 57.5984C40.1019 57.7512 40.2754 57.9268 40.432 58.1265C40.588 58.3264 40.7157 58.5588 40.8159 58.8258C40.9161 59.0929 40.9662 59.4089 40.9662 59.7728C40.9662 60.1038 40.918 60.4172 40.8215 60.7138C40.726 61.011 40.5758 61.271 40.3714 61.4957C40.1675 61.7202 39.911 61.8982 39.6036 62.0296C39.2953 62.161 38.9331 62.2265 38.517 62.2265C38.1331 62.2265 37.7975 62.18 37.5086 62.0871C37.2196 61.994 36.9645 61.8706 36.7402 61.7179L37.0759 60.8023C37.2845 60.9382 37.4986 61.0464 37.7189 61.1264C37.9391 61.2078 38.193 61.2478 38.481 61.2478Z" fill="black"/>
<path d="M47.9508 57.637C47.9508 58.3239 47.8931 58.9492 47.7772 59.5127C47.6614 60.077 47.4808 60.5592 47.2369 60.9623C46.993 61.3649 46.6846 61.6765 46.313 61.8967C45.9409 62.1177 45.5026 62.2278 44.9986 62.2278C44.4947 62.2278 44.0558 62.1177 43.6838 61.8967C43.3116 61.6766 43.0033 61.3649 42.7594 60.9623C42.5155 60.5592 42.3339 60.077 42.2138 59.5127C42.0938 58.9492 42.0332 58.3239 42.0332 57.637C42.0332 56.9506 42.0937 56.3232 42.2138 55.755C42.3339 55.1878 42.5154 54.7027 42.7594 54.2997C43.0033 53.897 43.3117 53.5831 43.6838 53.3593C44.0557 53.1347 44.4946 53.022 44.9986 53.022C45.5027 53.022 45.9404 53.1347 46.313 53.3593C46.685 53.5831 46.9929 53.8976 47.2369 54.2997C47.4809 54.7027 47.6615 55.1881 47.7772 55.755C47.8931 56.3232 47.9508 56.9504 47.9508 57.637ZM46.7989 57.637C46.7989 57.1037 46.7668 56.616 46.703 56.175C46.6383 55.734 46.5352 55.3545 46.3905 55.0363C46.2467 54.7182 46.0605 54.4708 45.8326 54.2931C45.6046 54.1149 45.3267 54.0257 44.9986 54.0257C44.67 54.0257 44.3924 54.1149 44.164 54.2931C43.9357 54.4708 43.7504 54.7194 43.6056 55.0363C43.4618 55.3545 43.3554 55.7334 43.2879 56.175C43.2193 56.6154 43.1857 57.1029 43.1857 57.637C43.1857 58.1712 43.2192 58.6586 43.2879 59.0992C43.3554 59.5396 43.4614 59.9171 43.6056 60.2306C43.7503 60.5445 43.9357 60.7879 44.164 60.9618C44.3924 61.1353 44.67 61.222 44.9986 61.222C45.3267 61.222 45.6047 61.1353 45.8326 60.9618C46.0605 60.7879 46.2464 60.5446 46.3905 60.2306C46.5351 59.9173 46.6381 59.5396 46.703 59.0992C46.7669 58.6586 46.7989 58.171 46.7989 57.637Z" fill="black"/>
<path d="M53.7147 62.0362C53.5228 61.5369 53.3042 60.9965 53.0603 60.415C52.8163 59.835 52.5601 59.2501 52.292 58.6601C52.0238 58.0714 51.7497 57.4859 51.4697 56.9052C51.1895 56.3253 50.9137 55.7848 50.6414 55.2849V62.0355H49.6328V53.2253H50.5327C50.8371 53.7508 51.1313 54.2892 51.4147 54.8398C51.6994 55.3916 51.9694 55.9351 52.2252 56.4732C52.4815 57.0118 52.7236 57.5416 52.9514 58.063C53.1797 58.5839 53.3902 59.0781 53.5822 59.544V53.2253H54.5907V62.0357H53.7146L53.7147 62.0362Z" fill="black"/>
<path d="M59.1943 53.2253C59.3857 53.8602 59.5765 54.5013 59.7641 55.1501C59.9523 55.7984 60.1356 56.4791 60.3154 57.1912C60.495 57.9026 60.6757 58.6577 60.8553 59.4548C61.035 60.2511 61.2157 61.1116 61.3972 62.0362H60.3174C60.2549 61.6548 60.1907 61.2778 60.1231 60.9042C60.0555 60.532 59.9865 60.1584 59.9155 59.7858H57.2914C57.2111 60.1587 57.1391 60.5317 57.0748 60.9042C57.0105 61.2778 56.9472 61.6546 56.8848 62.0357H55.8398C56.0167 61.1121 56.1972 60.2524 56.3817 59.4557C56.566 58.6589 56.7495 57.9055 56.9302 57.1933C57.111 56.4814 57.2951 55.8012 57.4839 55.153C57.6724 54.5046 57.8641 53.8619 58.0574 53.2253H59.1943ZM58.6066 54.522C58.4117 55.2282 58.2218 55.9364 58.0373 56.6474C57.8529 57.3583 57.6761 58.0869 57.5069 58.8321H59.6858C59.5259 58.0858 59.3547 57.3573 59.1712 56.6459C58.9876 55.9343 58.7995 55.2261 58.6066 54.522Z" fill="black"/>
<path d="M66.3517 61.0575V62.0362H62.6426V53.2258H63.7224V61.0581H66.3516L66.3517 61.0575Z" fill="black"/>
<path d="M67.6504 53.2253H68.7309V62.0357H67.6504V53.2253Z" fill="black"/>
<path d="M71.7785 61.2478C72.2113 61.2478 72.5449 61.1214 72.7804 60.8668C73.0168 60.6123 73.1346 60.269 73.1346 59.8367C73.1346 59.6077 73.0981 59.4043 73.0263 59.2263C72.9543 59.0483 72.8609 58.8877 72.7445 58.7431C72.6282 58.5992 72.494 58.4677 72.3422 58.3492C72.1903 58.2306 72.0334 58.1116 71.8736 57.9928C71.6903 57.8569 71.4977 57.7129 71.2977 57.5607C71.0972 57.4082 70.9153 57.2302 70.7517 57.0267C70.5876 56.8238 70.4533 56.5864 70.3493 56.3152C70.2452 56.0441 70.1933 55.7261 70.1933 55.3614C70.1933 55.0058 70.2515 54.6833 70.3674 54.3949C70.4827 54.1068 70.6434 53.8606 70.8476 53.6579C71.0519 53.4546 71.2954 53.2975 71.5795 53.1871C71.8631 53.0767 72.1696 53.022 72.4976 53.022C72.8183 53.022 73.1137 53.065 73.3857 53.1488C73.6579 53.2339 73.8858 53.3354 74.0702 53.4541L73.734 54.3566C73.5662 54.2381 73.3836 54.1474 73.188 54.0833C72.9917 54.0195 72.7856 53.9883 72.5695 53.9883C72.1772 53.9883 71.8631 54.1007 71.6277 54.3246C71.3914 54.5493 71.2736 54.8777 71.2736 55.3101C71.2736 55.5472 71.312 55.7548 71.3876 55.9329C71.4641 56.1111 71.5634 56.2723 71.6883 56.4162C71.8121 56.5599 71.9559 56.6916 72.1204 56.8101C72.2844 56.9285 72.458 57.052 72.6424 57.1791C72.8268 57.3063 73.015 57.4458 73.2069 57.5984C73.3988 57.7512 73.5728 57.9268 73.7289 58.1265C73.8858 58.3264 74.0126 58.5588 74.1128 58.8258C74.2129 59.0929 74.2632 59.4089 74.2632 59.7728C74.2632 60.1038 74.2149 60.4172 74.1189 60.7138C74.0228 61.011 73.8725 61.271 73.6682 61.4957C73.465 61.7202 73.2079 61.8982 72.9004 62.0296C72.5922 62.161 72.2299 62.2265 71.8139 62.2265C71.43 62.2265 71.0943 62.18 70.8058 62.0871C70.5174 61.994 70.2613 61.8706 70.0371 61.7179L70.3733 60.8023C70.5819 60.9382 70.7955 61.0464 71.0159 61.1264C71.2362 61.2078 71.4896 61.2478 71.7785 61.2478Z" fill="black"/>
<path d="M75.5488 62.0362V53.2258H79.2822V54.2049H76.6298V56.939H79.0298V57.8923H76.6294V61.0585H79.4743V62.0374H75.549V62.0362H75.5488Z" fill="black"/>
<path d="M81.0216 62.0362V53.2258H84.7544V54.2049H82.1021V56.939H84.5029V57.8923H82.1021V61.0585H84.9473V62.0374H81.0215L81.0216 62.0362Z" fill="black"/>
<path d="M86.4952 53.3525C87.0549 53.2086 87.5954 53.1365 88.1159 53.1365C88.532 53.1365 88.9085 53.1874 89.2441 53.2893C89.5799 53.3909 89.8684 53.5517 90.1085 53.7723C90.3486 53.9925 90.5349 54.2766 90.6664 54.6242C90.7976 54.9714 90.8645 55.392 90.8645 55.8825C90.8645 56.4929 90.7544 56.987 90.534 57.3637C90.3137 57.7408 90.0163 58.0271 89.6395 58.2219C89.7352 58.3917 89.8573 58.6228 90.0063 58.9144C90.1538 59.2072 90.3056 59.5291 90.4615 59.8809C90.6182 60.2327 90.7698 60.5952 90.9178 60.968C91.0654 61.341 91.1915 61.6968 91.2961 62.0354H90.2075C90.1197 61.7813 90.0099 61.4933 89.8784 61.1708C89.7471 60.849 89.6099 60.5287 89.4662 60.211C89.3234 59.8936 89.1797 59.5881 89.0368 59.2958C88.8931 59.0032 88.7655 58.7553 88.6549 58.5527C88.5263 58.5692 88.3937 58.5822 88.2585 58.5903C88.1223 58.5991 87.9863 58.6031 87.8501 58.6031H87.5503V62.0354H86.4941V53.3525H86.4952ZM87.5513 57.6624H88.0072C88.5594 57.6624 88.9832 57.5289 89.2801 57.2619C89.5756 56.9949 89.7236 56.5348 89.7236 55.8822C89.7236 55.5516 89.6856 55.2746 89.61 55.0496C89.5339 54.8249 89.4256 54.6468 89.2857 54.5154C89.1458 54.3838 88.9774 54.2886 88.7814 54.2291C88.5855 54.1701 88.3674 54.1398 88.1273 54.1398C87.9186 54.1398 87.7274 54.153 87.5513 54.1782V57.6624Z" fill="black"/>
<path d="M97.9102 57.6242C97.9102 58.4465 97.8288 59.1435 97.6644 59.716C97.4997 60.2879 97.2642 60.7521 96.9559 61.1078C96.6476 61.4643 96.2759 61.7224 95.8391 61.8837C95.4032 62.0448 94.9172 62.1252 94.3808 62.1252C93.8363 62.1252 93.2603 62.0488 92.6523 61.8962V53.3525C92.9558 53.2846 93.253 53.2297 93.5403 53.1874C93.8287 53.1454 94.1046 53.1235 94.3688 53.1235C94.9132 53.1235 95.4032 53.2049 95.8391 53.3656C96.2751 53.5267 96.6474 53.7853 96.9559 54.1405C97.2642 54.4968 97.4997 54.9606 97.6644 55.5332C97.8288 56.1057 97.9102 56.8028 97.9102 57.6242ZM96.7582 57.6242C96.7582 56.997 96.714 56.4629 96.626 56.0224C96.5379 55.582 96.4018 55.2216 96.2184 54.942C96.0341 54.6623 95.7919 54.4586 95.4922 54.3314C95.1913 54.2044 94.833 54.1406 94.4171 54.1406C94.3053 54.1406 94.1928 54.1454 94.0812 54.1538C93.9687 54.1621 93.8532 54.1752 93.7332 54.1917V61.0576C93.8532 61.075 93.9688 61.0873 94.0812 61.0953C94.1929 61.1041 94.3016 61.1078 94.4056 61.1078C94.8293 61.1078 95.1896 61.0451 95.4856 60.9171C95.7816 60.7901 96.0237 60.589 96.2118 60.3136C96.4001 60.038 96.5379 59.6797 96.6261 59.2386C96.7141 58.7983 96.7582 58.2604 96.7582 57.6242Z" fill="black"/>
<path d="M99.5781 62.0362V53.2258H103.311V54.2049H100.659V56.939H103.059V57.8923H100.659V61.0585H103.504V62.0374H99.5783L99.5781 62.0362Z" fill="black"/>
<path d="M104.334 57.7134H106.554V58.7434H104.334V57.7134Z" fill="black"/>
<path d="M107.129 57.7134H109.349V58.7434H107.129V57.7134Z" fill="black"/>
<path d="M110.646 62.0362V53.2258H114.379V54.2049H111.726V56.9764H114.079V57.9302H111.726V62.0367H110.647L110.646 62.0362Z" fill="black"/>
<path d="M121.222 57.637C121.222 58.3239 121.164 58.9492 121.048 59.5127C120.932 60.077 120.753 60.5592 120.509 60.9623C120.264 61.3649 119.955 61.6765 119.584 61.8967C119.212 62.1177 118.773 62.2278 118.269 62.2278C117.765 62.2278 117.328 62.1177 116.955 61.8967C116.582 61.6766 116.275 61.3649 116.031 60.9623C115.786 60.5592 115.605 60.077 115.484 59.5127C115.364 58.9492 115.305 58.3239 115.305 57.637C115.305 56.9506 115.364 56.3232 115.484 55.755C115.605 55.1878 115.786 54.7027 116.031 54.2997C116.275 53.897 116.583 53.5831 116.955 53.3593C117.326 53.1347 117.765 53.022 118.269 53.022C118.773 53.022 119.212 53.1347 119.584 53.3593C119.956 53.5831 120.264 53.8976 120.509 54.2997C120.752 54.7027 120.932 55.1881 121.048 55.755C121.164 56.3232 121.222 56.9504 121.222 57.637ZM120.07 57.637C120.07 57.1037 120.038 56.616 119.973 56.175C119.909 55.734 119.805 55.3545 119.661 55.0363C119.518 54.7182 119.331 54.4708 119.103 54.2931C118.875 54.1149 118.597 54.0257 118.269 54.0257C117.94 54.0257 117.663 54.1149 117.434 54.2931C117.206 54.4708 117.02 54.7194 116.876 55.0363C116.733 55.3545 116.626 55.7334 116.559 56.175C116.491 56.6154 116.457 57.1029 116.457 57.637C116.457 58.1712 116.491 58.6586 116.559 59.0992C116.626 59.5396 116.733 59.9171 116.876 60.2306C117.02 60.5445 117.206 60.7879 117.434 60.9618C117.663 61.1353 117.94 61.222 118.269 61.222C118.597 61.222 118.875 61.1353 119.103 60.9618C119.332 60.7879 119.518 60.5446 119.661 60.2306C119.805 59.9173 119.909 59.5396 119.973 59.0992C120.038 58.6586 120.07 58.171 120.07 57.637Z" fill="black"/>
<path d="M126.481 53.2253V54.2043H124.632V62.0362H123.552V54.2043H121.703V53.2253H126.481Z" fill="black"/>
<path d="M132.878 57.637C132.878 58.3239 132.82 58.9492 132.704 59.5127C132.588 60.077 132.409 60.5592 132.165 60.9623C131.92 61.3649 131.612 61.6765 131.24 61.8967C130.868 62.1177 130.43 62.2278 129.925 62.2278C129.421 62.2278 128.984 62.1177 128.611 61.8967C128.238 61.6766 127.931 61.3649 127.687 60.9623C127.442 60.5592 127.261 60.077 127.141 59.5127C127.021 58.9492 126.961 58.3239 126.961 57.637C126.961 56.9506 127.021 56.3232 127.141 55.755C127.261 55.1878 127.442 54.7027 127.687 54.2997C127.931 53.897 128.239 53.5831 128.611 53.3593C128.983 53.1347 129.421 53.022 129.925 53.022C130.43 53.022 130.867 53.1347 131.24 53.3593C131.612 53.5831 131.92 53.8976 132.165 54.2997C132.409 54.7027 132.588 55.1881 132.704 55.755C132.82 56.3232 132.878 56.9504 132.878 57.637ZM131.726 57.637C131.726 57.1037 131.694 56.616 131.63 56.175C131.566 55.734 131.462 55.3545 131.318 55.0363C131.173 54.7182 130.987 54.4708 130.759 54.2931C130.531 54.1149 130.253 54.0257 129.925 54.0257C129.596 54.0257 129.319 54.1149 129.09 54.2931C128.862 54.4708 128.677 54.7194 128.533 55.0363C128.389 55.3545 128.282 55.7334 128.215 56.175C128.146 56.6154 128.112 57.1029 128.112 57.637C128.112 58.1712 128.146 58.6586 128.215 59.0992C128.283 59.5396 128.389 59.9171 128.533 60.2306C128.677 60.5445 128.863 60.7879 129.09 60.9618C129.319 61.1353 129.596 61.222 129.925 61.222C130.253 61.222 130.532 61.1353 130.759 60.9618C130.988 60.7879 131.173 60.5446 131.318 60.2306C131.462 59.9173 131.566 59.5396 131.63 59.0992C131.694 58.6586 131.726 58.171 131.726 57.637Z" fill="black"/>
<path d="M137.234 62.2275C136.257 62.2275 135.509 61.8416 134.989 61.0704C134.469 60.299 134.209 59.1078 134.209 57.4975C134.209 56.6757 134.283 55.9802 134.431 55.4125C134.579 54.845 134.785 54.383 135.05 54.0268C135.313 53.6704 135.625 53.4142 135.986 53.2574C136.345 53.1006 136.737 53.0225 137.162 53.0225C137.514 53.0225 137.842 53.0713 138.147 53.1687C138.45 53.2668 138.699 53.3875 138.891 53.5313L138.566 54.4848C138.375 54.3489 138.168 54.2397 137.948 54.1542C137.728 54.0693 137.474 54.0273 137.187 54.0273C136.546 54.0273 136.082 54.3093 135.794 54.8727C135.505 55.4372 135.362 56.3116 135.362 57.4981C135.362 58.6935 135.513 59.6125 135.817 60.2567C136.121 60.9006 136.618 61.223 137.306 61.223C137.634 61.223 137.9 61.1809 138.104 61.0965C138.307 61.0119 138.506 60.9011 138.699 60.766L138.997 61.669C138.814 61.8209 138.572 61.9531 138.271 62.0629C137.972 62.1716 137.625 62.2275 137.234 62.2275Z" fill="black"/>
<path d="M143.133 53.2253C143.325 53.8602 143.514 54.5013 143.704 55.1501C143.891 55.7984 144.075 56.4791 144.255 57.1912C144.435 57.9026 144.614 58.6577 144.795 59.4548C144.975 60.2511 145.155 61.1116 145.337 62.0362H144.257C144.194 61.6548 144.129 61.2778 144.063 60.9042C143.995 60.532 143.927 60.1584 143.855 59.7858H141.231C141.15 60.1587 141.078 60.5317 141.013 60.9042C140.95 61.2778 140.886 61.6546 140.823 62.0357H139.779C139.955 61.1121 140.136 60.2524 140.321 59.4557C140.506 58.6589 140.688 57.9055 140.869 57.1933C141.049 56.4814 141.235 55.8012 141.424 55.153C141.612 54.5046 141.803 53.8619 141.997 53.2253H143.133ZM142.545 54.522C142.351 55.2282 142.161 55.9364 141.976 56.6474C141.792 57.3583 141.615 58.0869 141.446 58.8321H143.625C143.465 58.0858 143.293 57.3573 143.111 56.6459C142.927 55.9343 142.739 55.2261 142.545 54.522Z" fill="black"/>
<path d="M151.832 57.6242C151.832 58.4465 151.751 59.1435 151.586 59.716C151.421 60.2879 151.186 60.7521 150.878 61.1078C150.569 61.4643 150.198 61.7224 149.761 61.8837C149.325 62.0448 148.839 62.1252 148.303 62.1252C147.758 62.1252 147.182 62.0488 146.574 61.8962V53.3525C146.878 53.2846 147.175 53.2297 147.462 53.1874C147.75 53.1454 148.027 53.1235 148.29 53.1235C148.835 53.1235 149.325 53.2049 149.761 53.3656C150.197 53.5267 150.569 53.7853 150.878 54.1405C151.185 54.4968 151.422 54.9606 151.586 55.5332C151.751 56.1057 151.832 56.8028 151.832 57.6242ZM150.679 57.6242C150.679 56.997 150.635 56.4629 150.548 56.0224C150.46 55.582 150.323 55.2216 150.14 54.942C149.956 54.6623 149.714 54.4586 149.414 54.3314C149.113 54.2044 148.755 54.1406 148.339 54.1406C148.227 54.1406 148.115 54.1454 148.003 54.1538C147.891 54.1621 147.774 54.1752 147.655 54.1917V61.0576C147.774 61.075 147.891 61.0873 148.003 61.0953C148.115 61.1041 148.223 61.1078 148.327 61.1078C148.751 61.1078 149.111 61.0451 149.407 60.9171C149.703 60.7901 149.945 60.589 150.133 60.3136C150.322 60.038 150.46 59.6797 150.548 59.2386C150.636 58.7983 150.679 58.2604 150.679 57.6242Z" fill="black"/>
<path d="M153.5 62.0362V53.2258H157.233V54.2049H154.581V56.939H156.981V57.8923H154.581V61.0585H157.425V62.0374H153.5L153.5 62.0362Z" fill="black"/>
<path d="M161.68 53.2253C161.872 53.8602 162.062 54.5013 162.25 55.1501C162.438 55.7984 162.622 56.4791 162.802 57.1912C162.981 57.9026 163.161 58.6577 163.342 59.4548C163.521 60.2511 163.702 61.1116 163.883 62.0362H162.804C162.741 61.6548 162.676 61.2778 162.61 60.9042C162.542 60.532 162.474 60.1584 162.403 59.7858H159.777C159.697 60.1587 159.625 60.5317 159.561 60.9042C159.497 61.2778 159.433 61.6546 159.37 62.0357H158.326C158.502 61.1121 158.683 60.2524 158.868 59.4557C159.052 58.6589 159.236 57.9055 159.416 57.1933C159.596 56.4814 159.781 55.8012 159.971 55.153C160.159 54.5046 160.35 53.8619 160.544 53.2253H161.68ZM161.093 54.522C160.898 55.2282 160.708 55.9364 160.523 56.6474C160.338 57.3583 160.162 58.0869 159.993 58.8321H162.172C162.012 58.0858 161.841 57.3573 161.657 56.6459C161.475 55.9343 161.285 55.2261 161.093 54.522Z" fill="black"/>
<path d="M167.208 62.2273C166.432 62.2273 165.849 61.9944 165.461 61.5275C165.073 61.0615 164.879 60.3243 164.879 59.3155V53.2253H165.96V59.2133C165.96 59.8833 166.052 60.3855 166.236 60.7198C166.419 61.0549 166.751 61.2222 167.232 61.2222C167.728 61.2222 168.067 61.0503 168.246 60.7075C168.427 60.3645 168.517 59.8662 168.517 59.2133V53.2253H169.597V59.3155C169.597 60.3077 169.397 61.0401 168.996 61.5151C168.596 61.9896 168 62.2273 167.208 62.2273Z" fill="black"/>
<path d="M172.573 61.2478C173.005 61.2478 173.339 61.1214 173.575 60.8668C173.81 60.6123 173.929 60.269 173.929 59.8367C173.929 59.6077 173.893 59.4043 173.821 59.2263C173.749 59.0483 173.654 58.8877 173.539 58.7431C173.423 58.5992 173.288 58.4677 173.136 58.3492C172.985 58.2306 172.828 58.1116 172.668 57.9928C172.483 57.8569 172.292 57.7129 172.092 57.5607C171.892 57.4082 171.71 57.2302 171.546 57.0267C171.382 56.8238 171.248 56.5864 171.144 56.3152C171.04 56.0441 170.988 55.7261 170.988 55.3614C170.988 55.0058 171.045 54.6833 171.161 54.3949C171.278 54.1068 171.438 53.8606 171.642 53.6579C171.846 53.4546 172.09 53.2975 172.374 53.1871C172.658 53.0767 172.964 53.022 173.292 53.022C173.612 53.022 173.908 53.065 174.18 53.1488C174.452 53.2339 174.68 53.3354 174.865 53.4541L174.529 54.3566C174.36 54.2381 174.178 54.1474 173.982 54.0833C173.786 54.0195 173.58 53.9883 173.365 53.9883C172.972 53.9883 172.658 54.1007 172.422 54.3246C172.186 54.5493 172.068 54.8777 172.068 55.3101C172.068 55.5472 172.106 55.7548 172.182 55.9329C172.258 56.1111 172.358 56.2723 172.482 56.4162C172.606 56.5599 172.75 56.6916 172.914 56.8101C173.078 56.9285 173.252 57.052 173.437 57.1791C173.621 57.3063 173.809 57.4458 174.001 57.5984C174.192 57.7516 174.367 57.9268 174.523 58.1265C174.679 58.3264 174.807 58.5588 174.907 58.8258C175.006 59.0929 175.057 59.4089 175.057 59.7728C175.057 60.1038 175.009 60.4172 174.914 60.7138C174.817 61.0103 174.667 61.271 174.463 61.4957C174.258 61.7202 174.003 61.8982 173.695 62.0296C173.386 62.161 173.024 62.2265 172.608 62.2265C172.224 62.2265 171.888 62.18 171.6 62.0871C171.312 61.994 171.055 61.8706 170.832 61.7179L171.168 60.8023C171.376 60.9382 171.59 61.0464 171.81 61.1264C172.031 61.2078 172.285 61.2478 172.573 61.2478Z" fill="black"/>
<path d="M32.373 5.59473C31.9211 5.71143 31.8023 6.31727 31.4259 6.52362C31.2239 6.63493 31.0854 6.39148 30.8569 6.66023C30.7438 6.7919 30.5264 7.40128 30.3264 7.40128C30.1885 7.40128 30.1885 6.83831 30.1781 6.74671C30.1671 6.65474 30.1578 6.49675 30.0537 6.45128C29.7028 6.29979 29.6413 7.49204 29.4258 6.88852C29.3891 6.78828 28.7933 5.3602 28.9559 5.91434C29.0402 6.2041 29.5369 7.55072 28.7968 7.39291C28.5625 7.34335 28.3527 7.18628 28.1386 7.08678C28.0834 7.0613 28.0287 7.03545 27.9734 7.0096C27.7974 6.9286 26.8979 6.43798 26.7548 6.58184C26.6984 6.63791 26.7685 6.72476 26.8084 6.76568C27.1734 7.14732 28.4292 7.15476 28.6223 7.58494C28.6916 7.73903 27.4312 9.12154 27.2311 9.37485C25.9864 10.9525 24.9503 12.6669 24.0227 14.4275C23.8094 14.831 22.7099 17.5327 22.5196 17.5918C22.383 17.6337 22.0702 17.5911 22.1141 17.3986C22.2184 16.9321 22.8976 16.6874 22.9635 16.2052C23.0187 15.8028 22.0751 16.5588 22.4665 15.8979C22.5782 15.7099 22.7022 15.5296 22.8045 15.336C22.8096 15.3262 22.893 15.1396 22.8847 15.1396C22.826 15.1396 22.6582 15.4896 22.6278 15.5359C22.4624 15.7878 22.1716 16.0516 22.0848 16.3388C22.0812 16.3501 22.0784 16.3615 22.0778 16.3729C22.0553 16.6117 22.8791 16.1023 22.6126 16.4553C22.5753 16.5044 22.5337 16.5498 22.4917 16.594C22.476 16.6111 22.4598 16.6279 22.4439 16.6442L22.3936 16.6955L22.342 16.7468C22.2572 16.8333 22.1716 16.9195 22.0915 17.0087C21.9647 17.1506 21.6129 17.5138 21.8133 17.7108C21.9553 17.8518 22.2873 17.8011 22.3335 18.0396C22.3354 18.0548 22.337 18.0695 22.337 18.0837C22.3346 18.375 22.0037 18.5995 21.8905 18.8521C21.8148 19.0203 21.8367 19.2032 21.8001 19.3773C21.6963 19.8598 21.5171 20.2649 21.2722 20.6931C21.0853 21.0186 20.8573 21.3526 20.7107 21.6936C20.551 22.0628 20.4963 22.4406 20.2991 22.7995C20.2371 22.9113 19.4856 24.1979 19.98 23.7407C20.7188 23.0584 20.8548 21.8746 21.2468 21.0087C21.5418 20.3534 21.8358 19.7439 22.0696 19.0612C22.1686 18.7674 22.4098 18.547 22.5476 18.2713C22.7497 17.868 22.8685 17.4197 23.0549 17.0073C24.0196 14.867 27.2045 9.23759 28.9479 7.85778C29.3714 7.52264 29.3699 8.14503 29.4706 8.38941C29.5488 8.5807 29.623 8.3923 29.738 8.44902C29.8343 8.49775 29.8642 8.61687 29.987 8.62803C30.5206 8.67936 31.4516 7.38584 31.6528 6.98217C31.8491 6.58667 32.1099 6.24167 32.3236 5.85613C32.3668 5.78164 32.345 5.63146 32.373 5.59473Z" fill="black" stroke="black" stroke-width="0.3025" stroke-miterlimit="22.9256" stroke-linejoin="round"/>
<path d="M34.3111 5.85498C33.5295 6.071 32.7822 6.85409 32.276 7.4271C31.7271 8.04801 31.2108 8.71327 30.8323 9.44307C30.743 9.61529 30.8943 9.45953 30.9444 9.40346C31.4729 8.82114 31.8946 8.12938 32.5062 7.61699C32.8555 7.32369 34.3927 6.22565 34.5062 5.90854C34.5365 5.82011 34.2989 5.87386 34.3111 5.85498Z" fill="black" stroke="black" stroke-width="0.3025" stroke-miterlimit="22.9256" stroke-linejoin="round"/>
<path d="M32.6125 5.89673C32.4744 6.02887 32.3744 6.17784 32.2271 6.31807L32.1719 6.37089V6.42362C32.3285 6.42362 32.4798 6.0763 32.5575 6.002C32.5964 5.9661 32.735 5.89673 32.6125 5.89673Z" fill="black" stroke="black" stroke-width="0.3025" stroke-miterlimit="22.9256" stroke-linejoin="round"/>
<path d="M33.0896 6.01123C32.8559 6.14756 32.647 6.35521 32.4576 6.54054C32.3987 6.5982 31.428 7.70517 31.727 7.58317C32.4069 7.3067 32.7009 6.4602 33.0896 6.01123Z" fill="black" stroke="black" stroke-width="0.3025" stroke-miterlimit="22.9256" stroke-linejoin="round"/>
<path d="M35.394 6.11303C34.9333 6.24005 34.5067 6.55018 34.1575 6.85259C34.07 6.9281 33.9837 7.00398 33.8992 7.08117C33.4225 7.52009 34.5297 6.94186 34.7544 6.89955C34.9106 6.8698 35.0616 6.9189 35.2186 6.9108C35.7747 6.88384 36.2864 6.55604 36.8418 6.49141C36.9427 6.48072 37.0706 6.5022 36.9243 6.58068C36.6398 6.7344 36.2912 6.74733 36.0145 6.91741C35.5715 7.19118 36.4772 7.09223 36.5397 7.11483C36.6103 7.14049 36.427 7.3209 36.5119 7.4019C36.6468 7.53422 36.8934 7.61131 37.0515 7.74132C37.4074 8.03415 38.061 7.86602 38.4906 7.98793C38.6563 8.03554 38.646 8.12165 38.4922 8.17475C38.3963 8.20823 37.9019 8.34353 38.2206 8.45261C38.3339 8.49213 38.6788 8.60754 38.796 8.56281C38.8541 8.54142 38.7422 8.43308 38.7786 8.38352C39.4321 7.49991 38.3796 8.02383 38.1621 7.65976C38.0976 7.55403 38.5648 7.46662 38.3732 7.31207C38.3038 7.25608 37.882 7.22633 37.8806 7.14952C37.8791 7.0714 38.1489 6.97767 38.2002 6.9096C38.4096 6.62941 37.5439 6.737 37.6779 6.56023C37.759 6.45356 37.9308 6.40456 37.9709 6.26646C38.103 5.8149 36.319 6.47244 36.0999 6.43348C35.9446 6.40744 36.1487 6.14818 35.9406 6.11777C35.799 6.09871 35.6075 6.11777 35.4615 6.12065C35.4495 6.1213 35.3652 6.14511 35.394 6.11303Z" fill="black"/>
<path d="M26.0935 7.54097C25.5356 7.75523 27.0712 7.68279 26.5618 7.87658C26.4991 7.9003 26.4335 7.91889 26.3684 7.93656C26.2596 7.96725 26.1499 7.99496 26.0414 8.02779C25.8931 8.07075 25.1903 8.21749 25.1903 8.41063C25.1903 8.5915 26.1645 8.17927 25.9931 8.36395C25.6869 8.69705 23.7514 9.21762 24.0509 9.54207C24.2871 9.79807 25.3365 8.94822 25.5442 8.83607C26.3218 8.41845 26.8903 7.79001 27.7919 7.60198C27.8016 7.59975 27.9837 7.55827 27.9694 7.54088C27.8523 7.40651 26.2455 7.66279 26.0935 7.54097Z" fill="black" stroke="black" stroke-width="0.3025" stroke-miterlimit="22.9256" stroke-linejoin="round"/>
<path d="M36.1973 8.19897C36.2426 8.29011 38.6265 10.6012 38.9408 10.9299C40.1207 12.1607 41.2439 13.512 42.1235 14.9542C42.4534 15.4983 42.7512 16.0416 42.9649 16.6359C42.9753 16.6654 43.0309 16.8791 43.0748 16.8791C43.0946 16.8791 43.0738 16.7768 43.0728 16.7701C43.0068 16.4056 42.884 16.0382 42.7482 15.6919C41.7901 13.2745 38.4084 9.65709 36.1973 8.19897Z" fill="black" stroke="black" stroke-width="0.3025" stroke-miterlimit="22.9256" stroke-linejoin="round"/>
<path d="M39.7807 9.16333C39.7006 9.16733 39.625 9.19625 39.5464 9.20834C39.4831 9.21996 38.9297 9.2155 38.9297 9.27455C38.9296 9.50173 39.6637 9.24442 39.7807 9.16333Z" fill="black" stroke="black" stroke-width="0.3025" stroke-miterlimit="22.9256" stroke-linejoin="round"/>
<path d="M26.0879 9.28003C25.6815 9.35461 24.9404 9.69673 24.5548 9.87871C24.5025 9.90354 24.4526 9.92939 24.4048 9.96027C24.3369 10.0016 24.2494 10.0625 24.2352 10.1442C24.1835 10.4411 25.3511 9.95524 24.806 10.3747C24.6905 10.4645 24.5629 10.5407 24.4392 10.6194C24.1437 10.8062 23.4839 11.0906 23.3775 11.4378C23.3551 11.5115 23.4214 11.5231 23.4811 11.5067C23.5494 11.4891 23.6118 11.4541 23.6715 11.4169C24.1652 11.1232 24.7419 10.7414 25.1259 10.3217C25.2486 10.1874 25.2646 10.0208 25.369 9.88262C25.5218 9.67989 25.8849 9.44621 26.0879 9.28003Z" fill="black" stroke="black" stroke-width="0.3025" stroke-miterlimit="22.9256" stroke-linejoin="round"/>
<path d="M38.9525 9.86108C38.9227 9.94199 39.0267 9.98644 39.0948 10.0177C39.7341 10.3192 40.3403 10.4514 40.8683 10.9536C40.8847 10.9694 41.1085 11.2007 41.1256 11.1542C41.2323 10.8465 40.2135 10.3474 40.0372 10.1609C39.9431 10.063 40.1665 9.94905 40.0857 9.92255C39.7954 9.8303 39.1217 9.9245 38.9525 9.86108Z" fill="black" stroke="black" stroke-width="0.3025" stroke-miterlimit="22.9256" stroke-linejoin="round"/>
<path d="M23.9875 12.4399C23.7933 12.5149 23.6086 12.717 23.4586 12.8515C22.6142 13.6155 24.0166 13.0535 23.4648 13.6667C23.2749 13.8775 23.0115 14.0361 22.8598 14.275C22.8164 14.3444 22.7681 14.6767 22.9573 14.5882C23.0398 14.5511 23.0887 14.38 23.1486 14.3108C23.3467 14.0815 23.7268 13.7029 23.7474 13.4C23.7717 13.0384 23.2926 13.1032 23.9875 12.4399Z" fill="black" stroke="black" stroke-width="0.3025" stroke-miterlimit="22.9256" stroke-linejoin="round"/>
<path d="M34.061 14.877C33.9754 14.8867 33.892 14.8937 33.8081 14.8982C33.2952 14.9286 32.7875 14.9942 32.2795 15.0734C32.0618 15.1074 31.6461 15.1902 32.12 15.1474C32.7027 15.0971 33.7265 14.9224 34.061 14.877Z" fill="black" stroke="black" stroke-width="0.3025" stroke-miterlimit="22.9256" stroke-linejoin="round"/>
<path d="M36.4727 15.0864C36.4941 15.1021 36.5126 15.1005 36.5416 15.103C36.7382 15.1216 36.9465 15.1222 37.1436 15.1045C37.3205 15.0884 36.7154 15.0631 36.6176 15.0704C36.5728 15.0744 36.5288 15.0902 36.4727 15.0864Z" fill="black" stroke="black" stroke-width="0.3025" stroke-miterlimit="22.9256" stroke-linejoin="round"/>
<path d="M33.8809 16.5862C33.8809 16.6753 33.9363 16.7412 33.9363 16.8496C33.9363 17.0509 33.9363 17.2286 33.9363 16.9017C33.9363 16.8246 33.8809 16.8213 33.8809 16.7446C33.8809 16.692 33.8809 16.6393 33.8809 16.5862Z" fill="black" stroke="black" stroke-width="0.3025" stroke-miterlimit="22.9256" stroke-linejoin="round"/>
<path d="M31.1703 18.0117C31.0551 18.0341 30.9446 18.0733 30.837 18.1141C30.571 18.2162 30.3173 18.3458 30.0713 18.4844C29.7281 18.6796 29.3994 18.905 29.0847 19.1392C29.024 19.1838 28.6816 19.4571 28.9426 19.3193C29.4384 19.0567 29.9025 18.7385 30.4026 18.479C30.6262 18.3628 31.0541 18.0709 31.1703 18.0117Z" fill="black" stroke="black" stroke-width="0.3025" stroke-miterlimit="22.9256" stroke-linejoin="round"/>
<path d="M36.5514 18.0078C36.3653 18.0489 35.2871 18.5058 35.2871 18.6518C35.2871 18.6698 35.6724 18.5162 35.7027 18.5029C35.9842 18.3832 36.3733 18.2752 36.6016 18.0711C36.6762 18.0048 36.5133 18.0364 36.5514 18.0078Z" fill="black" stroke="black" stroke-width="0.3025" stroke-miterlimit="22.9256" stroke-linejoin="round"/>
<path d="M29.7833 18.1326C29.3639 18.3059 28.9362 18.7087 28.5911 18.9901C28.5573 19.0175 28.2803 19.2761 28.4612 19.1684C28.9399 18.884 29.3524 18.4918 29.7833 18.1326Z" fill="black" stroke="black" stroke-width="0.3025" stroke-miterlimit="22.9256" stroke-linejoin="round"/>
<path d="M37.2953 18.1057C37.0791 18.1397 35.7832 18.5921 35.7832 18.7369C35.7832 18.7709 36.1735 18.6742 36.2121 18.6712C36.3682 18.6629 36.4035 18.834 36.5584 18.8526C36.8627 18.8902 37.2105 18.6871 37.5071 18.7849C37.6334 18.8263 37.4432 19.0739 37.6599 19.1707C38.0409 19.34 38.7138 19.2966 39.2887 19.5423C39.3068 19.5507 39.3255 19.5585 39.3435 19.5669C39.4626 19.6199 40.1098 19.9243 40.1128 19.9196C40.1424 19.8785 39.8616 19.6814 39.8349 19.6604C39.4111 19.3396 38.9331 19.177 38.4295 19.0096C38.3842 18.9944 38.2852 18.9661 38.2921 18.9029C38.2926 18.8948 38.2952 18.8876 38.2992 18.8797C38.3653 18.7305 38.5848 18.5696 38.2755 18.511C38.1904 18.4959 38.1039 18.4942 38.0186 18.4955C37.9484 18.4959 37.8787 18.5006 37.8089 18.5012C37.6561 18.5039 37.567 18.4886 37.5926 18.3308C37.6059 18.2485 37.5895 18.1752 37.5009 18.1402C37.4346 18.1148 37.2822 18.1787 37.2953 18.1057Z" fill="black" stroke="black" stroke-width="0.3025" stroke-miterlimit="22.9256" stroke-linejoin="round"/>
<path d="M28.6756 18.2937C28.5766 18.3404 28.49 18.4185 28.4055 18.4829C28.2443 18.6049 28.0835 18.7268 27.9295 18.8561L27.878 18.9L27.8272 18.9446C27.7234 19.0348 27.054 19.711 27.3 19.5182C27.4381 19.4098 27.5664 19.291 27.6984 19.1753C27.8446 19.0477 27.9916 18.9211 28.1389 18.7938C28.319 18.6382 28.4884 18.4613 28.6756 18.2937Z" fill="black" stroke="black" stroke-width="0.3025" stroke-miterlimit="22.9256" stroke-linejoin="round"/>
<path d="M31.4141 18.459C31.1922 18.4758 30.984 18.6063 30.7901 18.7035C30.4669 18.8661 30.2996 18.9165 30.7273 18.8821C30.9926 18.8615 31.4966 19.0246 31.6978 18.7683C31.7613 18.6883 31.4009 18.4745 31.4141 18.459Z" fill="black" stroke="black" stroke-width="0.3025" stroke-miterlimit="22.9256" stroke-linejoin="round"/>
<path d="M34.841 20.4631C34.543 20.7632 34.4708 21.4612 34.416 21.8526C34.3629 22.2301 34.4801 24.6983 34.9759 24.1449C35.0949 24.0111 35.8342 23.7214 35.8075 23.6048C35.7834 23.5046 35.5093 23.5224 35.4327 23.4732C35.2465 23.3562 35.4049 23.1165 35.5589 23.0584C35.7431 22.9885 35.9527 23.0165 36.1421 22.9522C36.6993 22.7604 36.9648 22.1073 37.058 21.5935C37.172 20.9642 38.1278 20.6621 37.4562 22.3247C37.162 23.0513 37.8996 22.2521 38.0237 21.3867C38.1141 20.7535 39.6395 21.0985 39.6972 21.2345L39.7029 21.2593L39.6972 21.2867C39.6216 21.5044 39.1964 21.6762 39.0135 21.8004C38.8109 21.9369 38.609 22.0746 38.4069 22.2111C37.7943 22.6268 37.1981 23.0565 36.5761 23.4596C36.3539 23.6036 36.8068 23.4415 36.8625 23.4167C37.3821 23.1841 37.8281 22.8242 38.2965 22.5127C39.1577 21.9398 39.7555 21.5939 40.7009 21.1852C40.8716 21.1117 40.9806 20.9658 41.1706 20.8994C41.4482 20.802 41.7498 20.7336 42.0455 20.7072C42.0735 20.7049 42.352 20.7072 42.352 20.6633C42.352 20.6168 42.1772 20.5865 42.1484 20.5804C41.4419 20.4296 40.9416 20.8876 40.2836 20.9603C39.9289 20.9999 39.5291 20.8657 39.1808 20.8095C38.3989 20.6837 37.5699 20.7192 36.8063 20.9181C35.9894 21.1312 35.2593 21.6535 34.8742 22.3814C34.8354 22.4542 34.7226 22.8303 34.6175 22.8303C34.5537 22.8303 34.5514 22.6708 34.5493 22.6343C34.5018 21.9563 34.623 21.1144 34.841 20.4631Z" fill="black" stroke="black" stroke-width="0.3025" stroke-miterlimit="22.9256" stroke-linejoin="round"/>
<path d="M32.147 20.9076C31.9991 21.1888 32.5326 21.808 32.2315 22.0827C32.0974 22.2042 31.6565 21.7159 31.5605 21.6432C30.9541 21.192 30.1172 20.9467 29.3549 20.9124C28.5315 20.8764 27.7249 20.924 26.9261 21.1184C25.9034 21.3685 25.6531 21.6525 24.4971 21.5812C23.8524 21.5422 23.1994 21.5355 22.5659 21.4163C22.3378 21.3739 22.1173 21.3109 21.9049 21.2237C21.8815 21.2146 21.5955 21.0973 21.5955 21.1092C21.6019 21.2894 22.4036 21.5379 22.5654 21.5739C23.3771 21.759 24.2703 21.8466 25.104 21.7857C25.5816 21.751 26.1787 21.5761 26.6478 21.6618C27.2619 21.7741 29.514 23.182 30.2915 23.5532C30.5616 23.6822 32.1955 24.2084 32.2144 24.3134C32.2697 24.6188 31.5563 25.7608 31.4044 26.1168C31.1878 26.6232 31.0637 27.1352 30.8802 27.6455C30.3978 28.989 29.8998 30.2866 29.6511 31.699C29.469 32.7269 29.2994 33.763 29.2994 34.8063C29.2994 35.1085 29.3279 35.8983 29.2207 35.8983C29.1026 35.8983 28.7411 34.6732 28.8418 35.1899C28.8785 35.3808 29.2028 36.3348 29.1416 36.438C29.1082 36.4947 29.0119 36.3299 29.0033 36.3148C28.7434 35.885 28.5139 35.4413 28.2424 35.0168C27.6792 34.1375 26.6754 32.5589 25.6019 32.234C25.4662 32.1931 25.2562 32.1869 25.2267 32.3584C25.2114 32.442 25.2461 32.5268 25.2877 32.5971C25.5096 32.9751 27.5756 34.5792 27.4543 34.8142C27.3197 35.0739 25.9048 34.0453 25.5686 33.6945C24.9034 33.0005 24.2632 32.1012 24.3173 31.1194C24.392 29.769 26.5639 29.1685 27.6977 28.8786L27.7528 28.8655L27.8084 28.8517C28.2489 28.7444 28.9126 28.7259 29.2884 28.4663C29.3186 28.4466 29.3699 28.3991 29.3366 28.3605C29.0498 28.0371 25.2542 29.6179 27.0343 28.4235C27.2286 28.2927 27.4249 28.1688 27.6306 28.0519C28.1682 27.7456 27.433 27.8612 27.1989 27.9841C26.3567 28.4285 25.612 29.0676 24.8822 29.6584C23.1939 31.0258 21.1019 33.2953 20.5519 35.3826C20.5172 35.5131 20.3459 35.8138 20.3957 35.9442C20.4044 35.9684 20.459 35.8793 20.4606 35.8764C20.6047 35.6466 20.7546 35.5612 21.0185 35.4783C21.4684 35.3357 21.9003 35.1425 22.3429 34.9805C22.4024 34.9585 23.7862 34.46 23.2549 34.8673C23.0572 35.0196 22.8341 35.1437 22.6181 35.269C22.5451 35.3118 22.4708 35.3533 22.3984 35.3944C22.272 35.4665 21.4619 35.9 21.5382 36.0432C21.5688 36.1034 21.6924 36.0615 21.7367 36.0432C21.8282 36.0058 21.825 35.8902 21.9016 35.8253C22.0822 35.6705 22.3043 35.552 22.5077 35.4265C22.6365 35.3487 22.7659 35.2687 22.8933 35.1862C23.0334 35.0944 23.1772 35.0031 23.3116 34.9013C23.8676 34.4825 23.044 34.6203 22.7838 34.7014C22.6769 34.7347 22.1174 34.99 22.0305 34.8846C21.9816 34.8247 22.4784 34.495 22.5261 34.425C22.7048 34.1574 22.0485 34.369 22.0852 34.3038C22.112 34.2569 23.4707 33.4343 22.9337 33.7043C22.8462 33.7487 22.7595 33.7946 22.6719 33.8388C22.2837 34.0369 21.889 34.2735 21.4717 34.4105C21.4261 34.4258 21.3678 34.4486 21.3196 34.4335C21.2171 34.4047 21.3347 34.2136 21.3615 34.1692C21.62 33.732 22.1609 33.5568 22.6191 33.3681C23.0693 33.1838 23.55 33.0326 23.9907 32.8295C24.1131 32.7728 23.6236 32.891 23.556 32.913C23.1634 33.0424 22.7766 33.1812 22.3983 33.3412C22.3436 33.364 22.2876 33.3885 22.233 33.4114C20.9722 33.9525 23.6479 31.2283 23.8036 31.1532C24.0351 31.0415 24.0986 31.8627 24.1482 32.0107C24.4382 32.888 24.9924 33.5696 25.709 34.1759C26.1596 34.5588 26.675 34.9076 27.254 35.0882C27.5037 35.1668 27.8293 35.1326 28.0439 35.2875C28.4207 35.5599 28.6437 36.1653 28.8998 36.5384C29.1843 36.9533 30.3988 38.2772 30.17 38.7417C29.987 39.1134 29.7319 38.3963 29.631 38.3329C29.511 38.258 29.3297 38.6335 29.0823 38.5057C28.8272 38.3767 28.6052 37.681 28.4432 38.1794C28.4007 38.3086 28.3289 38.471 28.1736 38.4996C27.5404 38.6155 27.679 37.0837 27.1728 37.772C26.9313 38.099 26.988 37.1061 26.7478 37.3377C26.6496 37.432 26.4803 37.8469 26.2957 37.7851C26.1129 37.724 26.1134 37.3487 25.9804 37.219C25.8024 37.0461 25.5247 37.1667 25.3489 37.0242C25.2471 36.9426 25.3448 36.7795 25.2094 36.7143C25.0816 36.6529 24.9011 36.7049 24.7699 36.7302C24.7275 36.7383 24.3981 36.8246 24.3971 36.7393C24.3952 36.6615 24.8475 36.3576 24.5702 36.3628C24.0956 36.3709 23.6632 36.688 23.196 36.7305C23.0214 36.7472 22.6773 36.6293 22.6062 36.9107C22.5969 36.9461 22.6404 36.9556 22.6676 36.9569C23.0711 36.9797 23.4865 36.7093 23.8709 36.623C23.8959 36.6173 24.0673 36.5795 24.031 36.6544C23.9705 36.7764 23.7885 36.8158 23.745 36.9511C23.6863 37.1351 24.1338 37.0236 24.0458 37.2294C23.8188 37.7645 22.9998 38.1055 23.0188 38.7853C23.0199 38.8557 23.4108 38.4236 23.4571 38.3707C23.7793 38.0002 24.3317 37.2841 24.8509 37.7485C25.3744 38.2186 25.8449 38.7462 26.3686 39.2189C27.7091 40.4318 29.2832 41.5487 30.9518 42.3168C31.8954 42.751 32.8579 43.0487 33.8698 43.2912C33.962 43.3137 34.2491 43.4271 34.0729 43.5467C34.004 43.5939 33.9141 43.5748 33.846 43.6283C33.7979 43.6675 33.5903 43.9726 33.7192 44.007C33.7426 44.0131 33.7728 44.0012 33.7952 43.993C33.9037 43.9544 34.0113 44.0169 34.1035 43.9826C34.342 43.893 34.3026 43.5143 34.5646 43.4204C34.7885 43.3409 35.0759 43.3889 35.3116 43.3666C35.916 43.3101 36.519 43.1725 37.0773 42.9426C38.8965 42.1963 39.9408 41.0463 41.3833 39.8413C41.4872 39.7541 41.6286 39.7571 41.7249 39.6737C42.2252 39.2397 43.0972 37.5994 43.7075 37.4708C44.1251 37.3832 44.5215 37.9984 44.6955 38.2778C44.9331 38.6599 44.9593 38.9635 44.7954 39.3794C44.5617 39.9725 43.8745 40.0612 43.6027 40.5961C43.5938 40.6132 43.5848 40.6314 43.5778 40.6485C43.5378 40.7395 42.9434 42.1174 43.4043 41.6632C43.5857 41.483 43.6706 41.2568 43.7905 41.0394C43.8241 40.9769 43.8689 40.8983 43.9553 40.9099C44.1051 40.9318 44.5081 40.7679 44.599 40.6418C44.7628 40.4138 45.4285 38.3439 45.3696 38.0705C45.3505 37.9843 45.2157 37.624 45.0604 37.6901C44.981 37.7241 45.1443 38.1757 44.93 37.9246L44.8979 37.886L44.8662 37.8432C44.8295 37.796 44.7952 37.7473 44.7583 37.6996C44.6773 37.5933 44.5824 37.49 44.5145 37.3748C44.4886 37.3323 44.4585 37.2681 44.5061 37.2281C44.617 37.1353 46.277 37.0002 46.5093 37.0266C46.6901 37.0479 46.8189 37.1289 46.9247 37.271C46.9298 37.281 47.0076 37.4068 47.0261 37.393C47.0636 37.3644 47.0295 36.9795 47.0145 36.928C46.9615 36.7332 46.7378 36.5658 46.6445 36.3804C45.8049 34.7295 44.7513 33.3094 43.6754 31.8006C43.4607 31.5004 43.3427 31.1447 43.103 30.8604C42.8259 30.5326 39.9347 28.0759 39.7108 28.1269C39.6148 28.1494 39.9277 28.4329 39.9511 28.4534C40.326 28.7925 40.933 29.1642 41.1782 29.6043C41.1991 29.6432 41.2162 29.6998 41.1532 29.7078C41.0862 29.7161 39.1654 29.1909 40.1682 29.5626C41.1855 29.9409 43.6423 31.0893 43.0529 32.4324C42.9042 32.7727 42.6454 33.0612 42.3719 33.3173C42.091 33.5807 39.5343 35.4946 39.385 35.4472C39.2601 35.4083 39.5968 35.0835 39.6268 35.0555C39.9892 34.717 40.4001 34.4197 40.8296 34.1613C41.8504 33.5459 41.2979 33.5441 40.6637 33.908C40.4519 34.0295 39.9997 34.509 39.7493 34.4807C39.6285 34.468 39.7207 34.1787 39.7319 34.1175C39.7861 33.8223 39.8442 33.4974 39.8234 33.1958C39.8224 33.1803 39.8198 33.0808 39.7887 33.0808C39.757 33.0808 39.7423 33.1793 39.7386 33.1958C39.6664 33.5106 39.5955 33.8132 39.4822 34.1175C39.449 34.2055 39.4158 34.2941 39.3807 34.3807C38.2525 37.1853 34.5555 41.081 31.1702 38.8523C30.3627 38.3216 29.5299 37.2131 29.3419 36.2753C29.2633 35.889 29.3629 35.4555 29.3916 35.0663C29.5859 32.4134 30.3393 29.3187 31.3621 26.8511C31.8101 25.7703 32.3589 24.7424 32.8637 23.6912C33.0636 23.2746 33.318 22.8856 33.5575 22.4895C33.7049 22.2469 33.6551 22.2213 33.477 22.4419C33.1975 22.7853 32.9597 23.1585 32.7337 23.534C32.6355 23.6967 32.5244 23.9075 32.3147 23.9517C31.9527 24.0297 29.8913 23.1956 29.9743 22.8841C30.0519 22.5896 30.5434 22.2106 30.7442 21.9647C31.1836 21.4266 32.0213 22.2953 32.1783 22.7444C32.2088 22.8328 32.1228 23.3658 32.1852 23.3863C32.3495 23.4423 32.4713 22.8286 32.4814 22.7438C32.5971 21.8955 32.5883 21.632 32.147 20.9076Z" fill="black" stroke="black" stroke-width="0.3025" stroke-miterlimit="22.9256" stroke-linejoin="round"/>
<path d="M28.3477 21.1992C28.2544 21.2064 28.162 21.2128 28.0698 21.2202C27.5755 21.2608 27.0838 21.3302 26.605 21.4553C26.1361 21.5777 26.8998 21.5313 27.092 21.5787L27.1465 21.5929L27.2012 21.6076C27.6784 21.7413 28.778 21.5923 28.5224 21.2479C28.4862 21.1992 28.2915 21.2426 28.3477 21.1992Z" fill="white" stroke="black" stroke-width="0.3025" stroke-miterlimit="22.9256" stroke-linejoin="round"/>
<path d="M29.7009 21.3595C29.5564 21.4958 29.4934 21.7211 29.41 21.8953C29.3315 22.0606 28.9849 22.2133 28.9654 22.3505C28.9147 22.7057 29.6359 22.5813 29.8082 22.4301C30.0342 22.2324 30.2787 22.0047 30.4446 21.7567C30.4862 21.6952 30.5432 21.6061 30.5008 21.5303C30.411 21.3697 30.0265 21.3167 29.8591 21.3376C29.8222 21.342 29.7194 21.3924 29.7009 21.3595Z" fill="white" stroke="black" stroke-width="0.3025" stroke-miterlimit="22.9256" stroke-linejoin="round"/>
<path d="M41.6615 21.3562C41.4747 21.3875 41.292 21.4308 41.1101 21.482C39.5612 21.9192 41.8963 21.5201 42.6017 21.6272C42.6453 21.6331 43.016 21.7298 43.016 21.6421C43.016 21.2304 41.724 21.4395 41.6615 21.3562Z" fill="black" stroke="black" stroke-width="0.3025" stroke-miterlimit="22.9256" stroke-linejoin="round"/>
<path d="M36.1779 21.5522C35.556 21.6466 34.1786 23.4723 34.8354 23.5817C35.0232 23.6134 35.3068 22.0033 35.6327 22.0674C35.7717 22.0957 35.7145 22.3886 35.9567 22.2089C36.2479 21.9934 36.1109 21.642 36.1779 21.5522Z" fill="white" stroke="black" stroke-width="0.3025" stroke-miterlimit="22.9256" stroke-linejoin="round"/>
<path d="M26.176 21.9114C25.0214 21.8484 23.7212 22.3049 22.621 22.592C22.3912 22.6531 22.1574 22.7016 21.9267 22.7602C21.5962 22.844 22.0921 22.7742 22.1808 22.763C23.5111 22.5908 24.9598 22.3213 26.176 21.9114Z" fill="black" stroke="black" stroke-width="0.3025" stroke-miterlimit="22.9256" stroke-linejoin="round"/>
<path d="M41.4467 22.1994C40.8308 22.2958 42.3291 22.427 42.4718 22.4476C42.9073 22.5136 42.2422 22.117 41.5089 22.197L41.4511 22.2041L41.4467 22.1994Z" fill="black" stroke="black" stroke-width="0.3025" stroke-miterlimit="22.9256" stroke-linejoin="round"/>
<path d="M25.9988 22.792C24.7887 22.8197 23.439 23.4161 22.515 24.1274C22.4665 24.1649 22.2598 24.2878 22.2598 24.3551C22.2598 24.3751 22.3317 24.3406 22.3345 24.3395C22.7181 24.1684 23.0652 23.93 23.4476 23.7542C24.2696 23.3756 25.1532 23.2052 25.9852 22.8673C26.0085 22.858 25.9633 22.8059 25.9988 22.792Z" fill="black" stroke="black" stroke-width="0.3025" stroke-miterlimit="22.9256" stroke-linejoin="round"/>
<path d="M17.0283 22.8906C13.0846 23.1111 11.4244 31.8654 14.324 34.4822C14.6476 34.7754 15.0794 35.0824 15.5345 35.1427C15.7017 35.1658 15.8739 35.1448 16.0253 35.072C16.0555 35.058 16.3873 34.8503 16.3276 34.8027C16.2809 34.7665 15.9397 34.8906 15.8653 34.8916C15.5048 34.8978 15.1488 34.7101 14.8736 34.5052C12.0192 32.3849 13.0889 25.9821 15.5044 23.8634C17.0558 22.5027 18.5543 23.3509 19.4164 24.9062C19.6191 25.2721 19.87 25.7487 19.8788 26.1705C19.8876 26.6843 18.6207 28.5725 18.3139 29.1731C18.1753 29.4425 17.4188 31.3209 17.3002 31.3664C17.0997 31.4423 16.9075 30.3073 16.886 30.1199C16.8499 29.8303 16.8386 29.5184 16.8778 29.2287C16.9929 28.3887 17.4071 29.1799 17.6977 29.2692C18.4557 29.5037 17.6364 26.7598 17.5376 26.4339C17.4032 25.9937 17.1761 25.2386 16.7016 25.0301C16.4196 24.9072 16.6105 25.0756 16.6556 25.1813C16.6805 25.2423 16.6689 25.3018 16.6237 25.3498C16.5277 25.4522 16.369 25.5024 16.2566 25.5853C15.8705 25.8697 15.6371 26.3216 15.4726 26.7493C14.9369 28.1432 14.8746 29.6193 15.1922 31.0667C15.2295 31.2384 15.2287 31.5351 15.3318 31.682C15.3318 31.683 15.3425 31.4391 15.3228 31.2775C15.2663 30.8166 15.1315 30.1467 15.2922 29.6965C15.34 29.5612 15.4141 29.7092 15.4392 29.772C15.9168 30.9893 15.9324 31.0605 16.9753 31.903C17.0221 31.9421 17.0542 31.9875 17.0694 32.0451C17.1142 32.2177 16.6814 34.4101 16.6487 34.86C16.613 35.3473 16.7088 35.8517 16.7829 36.333C17.0391 38.0185 17.9001 39.7669 19.0493 41.0644C19.1746 41.2062 19.4503 41.4521 19.2831 41.6497C18.9064 42.092 17.6267 42.4053 17.0887 42.6985C16.7704 42.8722 16.6682 43.2387 16.3552 43.4287C13.1623 45.3777 10.1932 47.6043 7.25574 49.8836C6.76534 50.2645 6.2549 50.6608 5.8243 51.1029C5.79061 51.1376 5.66876 51.2511 5.74578 51.299C6.00147 51.4625 6.43506 51.0237 6.59397 50.8907C7.57235 50.0717 15.8121 43.7244 16.4102 43.7763C16.5092 43.7859 16.4835 43.9207 16.4729 43.9806C16.321 44.8041 16.0872 45.6231 15.9128 46.4424C15.5973 47.9178 15.274 49.4566 15.3137 50.9679C15.3216 51.3195 15.6568 51.4071 15.693 51.0173C15.7052 50.8801 15.7007 50.7411 15.7023 50.6029C15.7124 49.7149 15.9046 48.8463 16.0331 47.9697C16.1478 47.185 16.784 43.5767 17.196 43.1179C17.5077 42.7736 18.2095 42.614 18.6277 42.3947C18.9441 42.2303 19.404 41.8683 19.7875 41.9202C20.1023 41.9648 22.1056 43.531 22.6026 43.8284C23.3968 44.305 24.2826 44.6973 25.1413 45.0585C25.6021 45.2528 26.9918 45.673 27.2908 45.9356C27.4836 46.1054 27.6509 46.4634 27.7179 46.7007C27.8043 47.0061 28.1979 47.4225 28.3171 46.8933C28.4034 46.5049 28.7528 46.2667 28.5962 46.8142C28.5357 47.027 28.3357 47.3902 28.4706 47.605C28.7002 47.9704 29.0286 47.1434 29.154 47.1434C29.2692 47.1434 29.2812 48.179 29.6986 48.2147C29.8084 48.2247 29.8928 48.109 30.0027 48.1467C30.1763 48.2076 30.8746 48.8417 31.3655 48.9511C31.576 48.9986 31.517 48.5768 31.7324 48.7975C31.7936 48.8611 31.849 48.9303 31.9155 48.9905C31.9844 49.0524 32.0694 49.0915 32.1424 49.1475C32.1711 49.1704 32.1942 49.1997 32.178 49.2366C32.1244 49.3629 29.8284 49.8401 29.5015 49.9302C28.9523 50.0832 26.1763 51.1465 25.9123 51.0834C24.9612 50.8562 23.2072 48.5166 22.6502 47.7064C22.1128 46.9264 21.6503 46.0904 21.2696 45.2319C21.09 44.8302 20.931 44.4154 20.7305 44.0229C20.7007 43.9667 20.4569 43.6039 20.4547 43.6369C20.4376 43.8991 20.6117 44.2485 20.6953 44.4944C21.4482 46.7318 22.7567 48.8646 24.5124 50.5168C24.8535 50.8389 25.237 51.2857 25.7479 51.3302C26.8795 51.4316 28.7246 50.1416 29.701 50.2254C30.1374 50.2628 29.925 51.2819 30.3031 51.2819C30.6073 51.2819 30.1296 50.3196 30.2277 50.1323C30.3245 49.948 31.5075 49.6912 31.7427 49.7021C32.5103 49.7367 33.5146 51.2687 33.6516 51.2348C33.6756 51.2287 33.6721 51.1986 33.6696 51.1805C33.5691 50.5977 32.8845 50.1047 32.465 49.7364C32.3877 49.6693 32.3463 49.5841 32.4661 49.5364C32.5828 49.4898 33.229 49.4302 33.3546 49.4512C33.4437 49.4672 33.3989 49.6251 33.5257 49.6236C33.7439 49.6197 33.8606 49.3698 34.0555 49.3126C34.2479 49.2559 34.1082 49.6578 34.5368 49.3636C34.7471 49.22 34.6859 49.4477 34.8794 49.4316C35.3469 49.393 35.4153 49.2486 35.7166 49.1792C35.8016 49.1601 35.886 49.1935 35.9708 49.1611C36.1794 49.0838 36.3149 48.6184 36.521 48.6184C36.6883 48.6184 36.4423 49.4313 36.7459 49.393C37.0435 49.3563 37.2173 48.7667 37.3105 48.5494C37.4139 48.3061 37.5064 48.0588 37.6168 47.8178C37.6547 47.7347 37.7149 47.6427 37.7309 47.5523V47.5428H37.7235C37.5426 47.6447 37.4156 48.0625 37.325 48.2346C37.2788 48.3225 37.2344 48.4099 37.1899 48.4971C37.1362 48.6018 37.0835 48.7061 37.0226 48.8066C36.6038 49.5041 37.0679 47.7738 36.4105 48.1083C36.2729 48.1781 36.1921 48.3802 36.1149 48.4994C35.9403 48.7686 35.5662 49.2226 35.5247 49.0553C35.5005 48.9596 35.5569 48.8548 35.5497 48.7557C35.5165 48.3732 34.9377 48.4422 34.6773 48.4786C34.3817 48.521 33.6608 49.174 33.4571 48.7591C33.2197 48.2783 33.0768 49.0998 32.7546 49.1583C32.2077 49.2588 32.0836 47.8757 31.8701 47.5718C31.7106 47.3444 32.3022 49.3958 31.7517 48.4941C31.6283 48.2921 31.4542 47.7732 31.2137 47.6813C30.9655 47.5864 31.4586 48.7456 31.0837 48.2631C30.9052 48.0349 30.8064 47.7617 30.6469 47.5211C30.2694 46.9584 30.7592 48.1959 30.7732 48.2263C30.8063 48.3045 30.8543 48.4868 30.6972 48.4175C30.6142 48.3812 30.545 48.3163 30.4821 48.2559C30.1704 47.9606 29.9949 47.6037 29.776 47.2492C29.6784 47.0901 29.231 46.9139 29.4814 46.6798C29.6389 46.5341 30.0916 46.7022 30.2734 46.7418C30.3109 46.7507 30.8099 46.8533 30.8099 46.8385C30.8099 46.8325 29.7836 46.4498 29.6118 46.3856C29.2876 46.2636 28.939 46.1758 28.6268 46.0296C28.5077 45.9743 28.4124 45.8395 28.2958 45.7987C28.1904 45.7625 28.069 45.8053 27.9578 45.7645C27.7456 45.6863 27.7667 45.538 27.6429 45.4042C27.5937 45.3519 27.4606 45.4389 27.3765 45.3438C27.2947 45.2514 27.2466 45.1308 27.1949 45.0228C26.9572 44.5264 26.9014 44.3486 27.1023 45.0091C27.1202 45.0666 27.1544 45.2398 27.0532 45.1223C26.7439 44.7646 26.6669 44.2723 26.3828 43.9065C26.3617 43.8804 26.3372 43.8514 26.3049 43.8371C26.0733 43.7426 26.4057 44.5739 26.3949 44.8789C26.394 44.9008 26.3898 44.976 26.3453 44.9504C26.0681 44.7923 25.9556 43.305 25.7714 43.305C25.7485 43.305 25.7377 43.3326 25.7326 43.3483C25.7295 43.3587 25.7273 43.3692 25.7254 43.3796C25.664 43.7838 25.884 44.1897 25.9118 44.5875C25.9366 44.9263 25.7313 44.5637 25.6943 44.4407C25.6154 44.1854 25.5708 43.9195 25.5156 43.659C25.5086 43.627 25.4431 43.3774 25.4364 43.4254C25.3994 43.6703 25.8469 44.9003 25.4535 44.7938C24.5246 44.5426 23.5999 43.9191 22.7675 43.4637C19.2219 41.5251 16.6739 38.0196 17.0401 34.0161C17.1501 32.811 17.5731 31.6156 18.0061 30.4871C18.3573 29.5746 18.8829 28.1557 19.4494 27.3689C19.4708 27.3371 19.5334 27.2556 19.5748 27.3127C19.5831 27.3249 20.0131 29.091 20.1099 29.3829C20.1892 29.6272 20.2603 29.8715 20.3288 30.1194C20.357 30.2208 20.3796 30.595 20.4686 30.6575C20.4799 30.6653 20.4996 30.3559 20.4996 30.3292C20.4926 29.957 20.4015 29.5848 20.3019 29.2251C20.1248 28.5967 19.8643 27.9376 19.9009 27.2798C19.9166 27 20.084 26.901 20.1995 26.6708C20.2947 26.4809 20.303 26.2708 20.4318 26.0917C21.0568 25.2204 22.4012 24.7297 23.3734 24.32C24.3874 23.893 25.4805 23.5548 26.5754 23.3788C26.8785 23.33 27.183 23.2879 27.4876 23.2456C27.4929 23.2452 27.6077 23.2335 27.6077 23.2281C27.6077 23.2201 27.209 23.2274 27.1803 23.2281C26.087 23.2589 24.9492 23.5408 23.9252 23.892C22.7486 24.2974 21.6054 24.7851 20.6138 25.5254C20.5116 25.6025 20.3255 25.7665 20.1808 25.6999C20.0044 25.6211 19.9481 25.2721 19.876 25.1169C19.6095 24.5488 19.2689 23.9863 18.7851 23.5583C18.3627 23.1856 17.8634 22.9398 17.2872 22.9046C17.2542 22.9022 17.0333 22.9133 17.0283 22.8906Z" fill="black" stroke="black" stroke-width="0.3025" stroke-miterlimit="22.9256" stroke-linejoin="round"/>
<path d="M29.2422 23.9966C29.3215 24.1652 29.68 24.2525 29.8512 24.2877C29.9775 24.3142 30.1054 24.3224 30.2349 24.3196C30.2777 24.3189 30.5956 24.3196 30.5956 24.2464C30.5955 24.0771 29.3952 24.06 29.2422 23.9966Z" fill="black" stroke="black" stroke-width="0.3025" stroke-miterlimit="22.9256" stroke-linejoin="round"/>
<path d="M34.8089 24.781C34.7966 25.0017 35.1685 25.3605 35.2881 25.5395C35.8451 26.3791 36.3391 27.251 36.7329 28.1721C37.1057 29.0467 37.3874 29.9472 37.652 30.8556C37.7152 31.0765 37.8173 31.3678 37.7264 30.9572C37.6873 30.7828 37.652 30.6085 37.6126 30.4344C37.4546 29.7358 37.2331 29.048 36.9613 28.3816C36.4206 27.0577 35.6452 25.9527 34.8089 24.781Z" fill="#096FB7" stroke="black" stroke-width="0.3025" stroke-miterlimit="22.9256" stroke-linejoin="round"/>
<path d="M16.7469 25.8098C16.2192 25.9919 15.9763 26.7599 15.8191 27.2189C15.6186 27.8058 16.2351 26.8427 16.3614 26.7105L16.4082 26.6637L16.4566 26.619C16.5526 26.5328 16.6682 26.4422 16.8001 26.4142C17.1856 26.3326 16.6297 27.0003 16.5777 27.0678C16.2544 27.4843 15.9861 27.9253 15.8679 28.4351C15.7456 28.9641 15.8338 29.5583 16.0221 30.068C16.1092 30.3076 16.7821 31.7383 17.1075 31.5696C17.2439 31.4999 16.7557 30.0461 16.7464 29.4899C16.7187 28.0355 17.5013 28.7279 17.7268 28.6524C17.934 28.5829 17.4662 26.7345 17.3432 26.3849C17.2481 26.1164 17.1406 25.8208 16.7854 25.8343L16.7372 25.839L16.7469 25.8098Z" fill="white" stroke="black" stroke-width="0.3025" stroke-miterlimit="22.9256" stroke-linejoin="round"/>
<path d="M43.5923 32.3628C43.4784 32.4232 43.4306 32.5945 43.3757 32.7021C42.9622 33.5214 44.0558 32.839 43.6433 33.2999C43.5583 33.3965 43.4336 33.4657 43.3172 33.5218C43.2186 33.5694 43.1178 33.6093 43.0178 33.6526C42.6954 33.7927 43.397 33.6736 43.4835 33.6593C43.5749 33.6447 44.2375 33.5256 44.1047 33.7789C44.0908 33.8061 43.9339 33.934 43.9559 33.9515C44.0509 34.0269 44.758 34.0959 44.7729 33.9455C44.8009 33.6322 43.6003 32.417 43.5923 32.3628Z" fill="white" stroke="black" stroke-width="0.3025" stroke-miterlimit="22.9256" stroke-linejoin="round"/>
<path d="M43.3342 33.3169C43.2414 33.3334 42.7949 33.4149 42.7949 33.5394C42.7949 33.5697 42.9417 33.5158 42.9518 33.5122C43.0916 33.4635 43.1956 33.3784 43.3342 33.3169Z" fill="#096FB7" stroke="black" stroke-width="0.3025" stroke-miterlimit="22.9256" stroke-linejoin="round"/>
<path d="M43.1452 33.9901C42.8778 33.9175 42.4712 33.9438 42.2155 34.0434C41.7922 34.2093 39.3329 35.8271 39.0005 36.1573C38.6563 36.4989 38.4321 36.9597 38.1236 37.3326C37.0818 38.5885 35.5254 39.6467 33.826 39.8363C32.8267 39.9471 31.8361 39.749 31.0123 39.1911C30.8796 39.1008 30.6951 38.8914 30.5293 38.8667C30.4184 38.851 30.3107 39.1297 30.1213 39.1216C29.7283 39.1079 29.1201 38.6914 28.7131 38.618C28.4708 38.5751 28.3084 38.849 28.0299 38.7637C27.6838 38.6594 27.6567 38.2931 27.3937 38.153C27.3022 38.1049 27.1548 38.2284 27.0439 38.2008C26.9091 38.1689 26.8333 37.9973 26.7001 37.9874C26.534 37.9739 26.4122 38.1388 26.2318 38.0837C25.8978 37.9845 26.037 37.4013 25.6876 37.38C25.5164 37.3694 25.3636 37.4794 25.1927 37.4816C25.1497 37.4816 25.0516 37.4504 25.0136 37.4733C24.9712 37.5002 25.0804 37.6096 25.0945 37.6257C25.5695 38.1723 26.1619 38.6412 26.7065 39.1203C28.415 40.6282 30.5031 41.9507 32.7235 42.6515C33.891 43.0207 35.0538 43.1755 36.2563 42.8619C39.0568 42.1322 41.1436 39.8254 42.8914 37.7597C43.355 37.2129 42.6301 37.3633 42.923 37.0871C42.9713 37.0409 44.3941 36.3896 44.3972 36.3896C44.7492 36.4176 44.3684 36.8403 44.4591 36.8698C44.5539 36.9013 44.6984 36.8136 44.7873 36.7891C45.0372 36.7211 45.3242 36.7534 45.5837 36.7534C45.745 36.7534 46.3443 36.8397 46.4317 36.6701C46.5405 36.4611 45.6816 36.1809 45.5397 36.0979C45.397 36.0166 44.5494 35.3217 44.4919 35.2024C44.4319 35.0806 44.5838 34.9574 44.4664 34.8572C44.3631 34.7699 44.0137 34.3195 43.9771 34.3074C43.8606 34.2681 43.0957 34.1266 43.1452 33.9901Z" fill="white" stroke="black" stroke-width="0.3025" stroke-miterlimit="22.9256" stroke-linejoin="round"/>
<path d="M44.9762 34.3452C44.0925 34.3593 45.3929 35.083 45.6087 35.5185C45.6427 35.5881 45.9547 35.8312 45.9104 35.6436C45.8665 35.4605 45.7116 35.2789 45.6087 35.1224C45.4645 34.9021 45.325 34.609 45.1082 34.443C45.0772 34.4203 44.9674 34.3858 44.9762 34.3452Z" fill="white" stroke="black" stroke-width="0.216" stroke-miterlimit="22.9256" stroke-linejoin="round"/>
<path d="M21.8697 34.6562C21.8273 34.6694 21.7874 34.6815 21.7471 34.6973C21.4959 34.7983 21.1835 34.9036 20.9829 35.0815C20.9752 35.0884 20.9225 35.1333 20.945 35.1485C21.0272 35.2033 21.7738 34.7075 21.8697 34.6562Z" fill="#096FB7" stroke="black" stroke-width="0.3025" stroke-miterlimit="22.9256" stroke-linejoin="round"/>
<path d="M23.3996 35.6328C23.3305 35.6571 23.268 35.6928 23.2056 35.7278C22.866 35.9219 22.4018 36.112 22.1426 36.4022C22.0086 36.5521 22.2232 36.5256 22.3058 36.4489C22.477 36.2893 22.6416 36.1507 22.842 36.0221C23.0236 35.9066 23.2231 35.7468 23.3996 35.6328Z" fill="#096FB7" stroke="black" stroke-width="0.3025" stroke-miterlimit="22.9256" stroke-linejoin="round"/>
<path d="M24.7919 36.9045C24.7367 36.9144 24.6716 36.9236 24.622 36.9522C24.5613 36.988 24.6677 36.9851 24.6886 36.9822C24.7849 36.9702 24.7434 36.9359 24.7919 36.9045Z" fill="#096FB7" stroke="black" stroke-width="0.3025" stroke-miterlimit="22.9256" stroke-linejoin="round"/>
<path d="M41.7975 37.2809C41.6186 37.3209 41.1268 37.2441 41.0106 37.3585C40.9036 37.4619 41.2695 37.6215 40.9257 37.6215C40.644 37.6215 40.061 37.3956 39.8176 37.519C39.7835 37.5366 39.7794 37.5694 39.7922 37.6009C39.8229 37.6786 39.9888 37.8006 39.9042 37.8882C39.7613 38.0384 39.3789 37.9116 39.1968 37.9203C38.9473 37.9341 39.0536 38.1208 38.9088 38.2176C38.8001 38.2905 38.6216 38.1842 38.5044 38.185C38.2356 38.1903 38.4951 38.5371 37.9829 38.3508C37.7558 38.2679 37.8554 38.3993 37.986 38.4817C38.295 38.6786 38.9153 38.6086 39.2307 38.4299C39.3452 38.365 39.379 38.2273 39.5043 38.1736C39.6865 38.0954 39.9015 38.1411 40.0857 38.0554C40.2365 37.9853 40.3129 37.8199 40.4803 37.7771C40.7519 37.7062 41.0496 37.8124 41.3272 37.7886C41.6039 37.7653 41.9216 37.5956 42.1803 37.4942C42.2122 37.4823 42.4686 37.3645 42.408 37.3061C42.373 37.2741 42.2951 37.2702 42.2502 37.2654C42.1983 37.2612 42.147 37.2573 42.0964 37.2573C42.0543 37.258 41.8105 37.3027 41.7975 37.2809Z" fill="black" stroke="black" stroke-width="0.3025" stroke-miterlimit="22.9256" stroke-linejoin="round"/>
<path d="M23.7346 38.9453C23.5771 39.1559 23.5961 39.5613 23.4803 39.8094C23.3852 40.0133 23.2618 40.2026 23.1348 40.3874C22.5166 41.2851 23.597 40.2503 23.7361 39.4946C23.7709 39.3049 23.7328 39.1324 23.7346 38.9453Z" fill="#096FB7" stroke="black" stroke-width="0.3025" stroke-miterlimit="22.9256" stroke-linejoin="round"/>
<path d="M24.1568 39.8923C23.9721 40.0891 22.86 41.4316 22.8771 41.4761C22.8874 41.5056 22.9155 41.5169 22.9456 41.5169C22.99 41.5169 23.0349 41.4965 23.0734 41.4763C23.4634 41.27 23.7158 40.8608 24.1526 40.7188C24.3373 40.6588 24.4306 40.7546 24.3587 40.9271C24.1648 41.3929 23.4362 41.8889 23.4617 42.4149C23.4792 42.7833 24.063 42.2124 24.1389 42.1443C24.6283 41.7088 24.3658 42.482 24.2887 42.7052C24.2171 42.906 24.1368 43.1147 24.1042 43.3255C24.0016 43.9684 24.6528 42.8804 24.6727 42.8576C24.6941 42.8337 24.7514 42.7656 24.7927 42.7898C24.9005 42.8562 24.6052 43.8013 24.7316 44.044C24.8888 44.3495 25.1356 43.9381 25.186 43.7883C25.2827 43.5001 25.0312 43.9861 24.9431 43.8718C24.7682 43.6464 25.0132 43.0091 25.0551 42.7593C25.0721 42.6588 25.0913 42.5369 25.0485 42.4397C24.9049 42.1137 24.3416 43.1452 24.4477 42.6396C24.4849 42.4587 24.7166 41.9537 24.4774 41.8259C24.4115 41.7896 24.1008 41.8839 24.0979 41.8249C24.0831 41.5014 24.5521 41.1607 24.6038 40.8162C24.6098 40.7701 24.6117 40.7224 24.6038 40.6757C24.5098 40.1654 23.9179 40.9014 24.1568 39.8923Z" fill="black" stroke="black" stroke-width="0.3025" stroke-miterlimit="22.9256" stroke-linejoin="round"/>
<path d="M42.4392 40.0505C41.8897 40.4045 41.3036 41.2645 40.8571 41.7555C38.5973 44.244 35.7759 47.2933 31.9501 46.0201C29.8098 45.3088 28.2357 43.2777 27.3259 41.3873C27.1873 41.1006 27.0731 40.8077 26.978 40.5064C26.9705 40.4859 26.9312 40.3102 26.9004 40.3102C26.8686 40.3102 26.9433 40.6793 26.9501 40.7055C26.9761 40.8304 27.0078 40.953 27.0483 41.072C27.1362 41.3407 27.2468 41.6034 27.3602 41.8615C27.6895 42.6136 28.1427 43.3316 28.6745 43.9686C29.2298 44.6341 29.8767 45.2281 30.6261 45.693C35.1045 48.4755 39.0112 44.5833 41.5652 41.3344C41.8798 40.9338 42.1316 40.4498 42.4392 40.0505Z" fill="black" stroke="black" stroke-width="0.3025" stroke-miterlimit="22.9256" stroke-linejoin="round"/>
<path d="M43.6353 40.9824C43.56 41.0724 43.3997 41.577 43.5569 41.2655C43.6029 41.1735 43.6069 41.0692 43.6353 40.9824Z" fill="#096FB7" stroke="black" stroke-width="0.3025" stroke-miterlimit="22.9256" stroke-linejoin="round"/>
<path d="M39.5682 45.616C39.467 45.7613 39.5614 46.1153 39.5642 46.2861C39.5856 48.0291 39.7808 48.0683 40.3532 46.3984C40.5315 45.8773 40.651 46.4518 40.739 46.6847C40.7453 46.7009 40.8393 46.8808 40.8448 46.8694C40.9118 46.7228 40.7494 46.1854 40.699 46.0308C40.6515 45.8904 40.5232 45.6891 40.3688 45.8618C40.3019 45.9372 39.887 47.3106 39.8158 47.1144C39.6883 46.7633 39.7825 46.2959 39.7161 45.9229C39.6942 45.8008 39.5935 45.7113 39.5682 45.616Z" fill="black" stroke="black" stroke-width="0.3025" stroke-miterlimit="22.9256" stroke-linejoin="round"/>
<path d="M39.3043 45.6848C39.2795 45.7191 39.2343 46.7853 39.246 46.7987C39.2528 46.8078 39.3043 46.7687 39.3238 46.7729C39.3713 46.785 39.3692 46.9375 39.3964 46.8972C39.4772 46.7738 39.3212 45.8731 39.3043 45.6848Z" fill="#096FB7" stroke="black" stroke-width="0.3025" stroke-miterlimit="22.9256" stroke-linejoin="round"/>
<path d="M28.9846 46.5437C28.8927 46.6413 28.8853 46.7941 28.8638 46.9196C28.7156 47.7357 29.2096 46.8929 29.14 46.6504C29.112 46.5565 29.0008 46.595 28.9846 46.5437Z" fill="#096FB7" stroke="black" stroke-width="0.3025" stroke-miterlimit="22.9256" stroke-linejoin="round"/>
<path d="M29.6419 47.3174C29.6256 47.4402 29.6743 47.5841 29.7104 47.6989C29.8623 48.1909 29.6695 47.4602 29.6419 47.3174Z" fill="#096FB7" stroke="black" stroke-width="0.3025" stroke-miterlimit="22.9256" stroke-linejoin="round"/>
<path d="M38.0746 47.3699C38.0213 47.4793 37.8408 48.2926 38.0639 48.2645C38.1253 48.2574 38.0203 48.1529 38.0145 48.0934C37.9905 47.8653 38.0545 47.6104 38.0746 47.3699Z" fill="#096FB7" stroke="black" stroke-width="0.3025" stroke-miterlimit="22.9256" stroke-linejoin="round"/>
<path d="M28.1348 47.5027C28.1664 47.5724 28.2367 47.6334 28.2897 47.688C28.502 47.9103 28.2104 47.5811 28.1348 47.5027Z" fill="#096FB7" stroke="black" stroke-width="0.3025" stroke-miterlimit="22.9256" stroke-linejoin="round"/>
<path d="M38.5195 47.6523C38.4825 47.6876 38.2286 48.1135 38.2428 48.1262C38.2979 48.1794 38.5195 47.7329 38.5195 47.6523Z" fill="#096FB7" stroke="black" stroke-width="0.3025" stroke-miterlimit="22.9256" stroke-linejoin="round"/>
<path d="M29.4634 48.5022C29.456 48.5427 29.5268 48.5738 29.5595 48.5933C29.6147 48.6285 29.6718 48.66 29.7313 48.69C30.1419 48.905 29.5927 48.5738 29.4634 48.5022Z" fill="#096FB7" stroke="black" stroke-width="0.3025" stroke-miterlimit="22.9256" stroke-linejoin="round"/>
<path d="M31.8164 49.7524C31.4568 49.7826 31.0835 49.8987 30.7377 49.9955C30.1041 50.1756 30.595 51.1408 30.7424 51.2498C30.8869 51.3579 31.1122 51.3394 31.2849 51.3394C32.7684 51.3394 31.4343 50.8882 31.4011 50.3276C31.3941 50.226 31.4939 50.2117 31.5767 50.2357C31.689 50.2686 31.7866 50.3467 31.8725 50.4195C32.1175 50.6316 32.3137 50.8879 32.5502 51.1085C32.7239 51.2725 32.9199 51.3322 33.1602 51.3378C34.2525 51.363 32.459 49.96 32.1029 49.8254C32.0082 49.7901 31.7735 49.8463 31.8164 49.7524Z" fill="white" stroke="black" stroke-width="0.3025" stroke-miterlimit="22.9256" stroke-linejoin="round"/>
<path d="M29.8627 50.2765C29.3684 50.2188 27.7208 50.8864 27.2027 51.094C27.141 51.1192 26.7871 51.2231 26.7871 51.3035C26.7871 51.3479 26.9685 51.3321 26.9918 51.3312C27.831 51.3054 28.6768 51.3382 29.5192 51.3382C29.6721 51.3382 30.0019 51.3898 30.1088 51.2497C30.2406 51.0739 30.0776 50.4869 29.9241 50.3502C29.8991 50.3279 29.8392 50.318 29.8627 50.2765Z" fill="white" stroke="black" stroke-width="0.3025" stroke-miterlimit="22.9256" stroke-linejoin="round"/>
<path d="M31.4457 50.2778C31.4398 50.2938 31.4305 50.3101 31.4286 50.3267C31.4108 50.4707 31.6778 50.713 31.7632 50.8137C31.8986 50.9752 32.0459 51.1797 32.2469 51.2703C32.8902 51.5649 31.8546 50.2109 31.5012 50.2972L31.4753 50.3092L31.4457 50.2778Z" fill="white" stroke="black" stroke-width="0.3025" stroke-miterlimit="22.9256" stroke-linejoin="round"/>
<path d="M41.1628 11.7822C40.6572 11.9819 42.4195 13.3804 42.3724 13.6396C42.3605 13.7005 42.2676 13.7093 42.2246 13.7415C42.0412 13.8821 43.0806 15.1338 43.2015 15.4812C43.3063 15.7823 43.1415 16.0753 43.2267 16.3768C43.3362 16.7701 43.6259 17.1115 43.7965 17.4828C43.8836 17.6746 44.0824 19.2508 44.0824 19.5097C44.0824 19.625 44.0235 19.6625 43.9176 19.6092C43.5392 19.4194 43.7418 20.0338 43.7917 20.222C44.0078 21.0454 44.5378 22.3251 44.9005 23.1174C44.9734 23.2774 45.3804 23.7448 45.2701 23.9205C45.1882 24.0517 44.8367 23.8244 44.7537 23.7829C44.3053 23.5629 43.8558 23.3619 43.3762 23.2127L43.3208 23.1955L43.2653 23.1793C42.1441 22.8569 42.4053 23.0165 43.4312 23.4365C43.486 23.4599 43.541 23.4818 43.5966 23.5053C44.0924 23.718 44.871 23.9726 45.1547 24.4474C45.27 24.6411 45.2229 25.0404 45.4018 25.1852C45.4349 25.2122 45.4359 25.0631 45.4379 25.0514C45.4509 24.9207 45.5059 24.7385 45.6852 24.7926C46.4688 25.0313 47.3767 26.8413 47.4816 27.5935C47.5389 28.0046 47.6145 28.5153 47.142 27.974C47.1147 27.9438 46.7009 27.5711 46.7365 27.7427C46.9033 28.5485 47.6765 28.3692 47.2319 29.6485C46.8525 30.7396 46.5857 31.5277 46.6002 31.5323C46.6431 31.5491 46.7117 31.435 46.7275 31.4103C46.9083 31.1507 47.5405 29.3477 47.8243 29.6941C48.3756 30.3685 48.6222 31.4667 48.8462 32.2798C50.1065 36.8787 47.9991 40.4061 44.4769 43.4329C44.0155 43.8301 42.7866 44.9989 42.2376 45.1331C42.1432 45.1564 42.0528 45.1342 42.0179 45.0416C41.978 44.9392 42.1806 43.4382 42.2206 43.2333C42.2616 43.0285 42.293 42.8145 42.3706 42.6173C42.4125 42.5109 42.6215 42.4152 42.6307 42.3806C42.6537 42.2856 42.5993 42.0451 42.4496 42.107C42.4134 42.1224 42.3855 42.1505 42.3611 42.1795C42.2282 42.3396 42.1888 42.5676 42.1404 42.7596C42.067 43.0517 41.9986 44.0499 41.8583 43.9177C41.7673 43.8335 41.7614 43.6901 41.6746 43.6002C41.305 43.2188 41.2479 44.4028 41.2211 44.601C41.2065 44.7115 41.1657 45.1924 41.2819 44.8444C41.3249 44.7168 41.3578 44.5862 41.4087 44.4604C41.5465 44.1116 41.6089 44.3881 41.5827 44.6058C41.5681 44.7277 41.5576 44.8491 41.5544 44.971C41.551 45.0758 41.5526 45.1816 41.5526 45.2854C41.5526 45.5518 41.5649 46.0984 41.5485 46.0888C41.3751 45.9994 41.3716 45.5401 41.131 45.5401C40.9333 45.5401 40.9501 46.1679 40.9501 46.2836C40.9493 46.31 40.9432 46.619 40.979 46.619C40.9936 46.619 40.9965 46.5228 40.9972 46.5156C41.0102 46.3177 40.9672 45.926 41.1069 45.7629C41.1833 45.6728 41.4337 46.1219 41.4907 46.1712C41.7043 46.3616 41.7512 45.8349 41.8102 45.7267C42.1087 45.1768 43.0327 44.7754 43.5412 44.4084C45.8586 42.7372 48.127 40.6009 49.0608 37.9129C49.8145 35.7459 49.5953 33.2518 48.8031 31.1201C48.5284 30.3843 47.9402 29.6255 47.8193 28.8565C47.7687 28.5442 47.8462 28.2251 47.8223 27.91C47.7993 27.6252 47.6891 27.2868 47.7334 27.004C47.7602 26.8323 47.9572 26.7678 47.9312 26.5763C47.8817 26.212 47.6164 25.8434 47.5037 25.4877C47.4337 25.2712 47.3888 25.0458 47.3039 24.8341C47.0791 24.2829 47.2449 25.5873 47.2564 25.6375C47.3623 26.1518 46.9388 25.5741 46.8285 25.4355C46.4549 24.969 45.6888 24.3359 45.9684 23.6465C46.0514 23.4416 46.2251 23.2573 46.4161 23.1339C48.0331 22.0898 48.5016 26.0532 48.5016 26.8558C48.5016 27.1113 48.535 27.5637 48.3967 27.7904C48.3328 27.8943 48.0831 27.8369 48.0991 27.9746C48.103 28.0152 48.12 28.0539 48.1389 28.0893C48.212 28.2427 48.3109 28.383 48.3767 28.5396C48.3827 28.5566 48.3902 28.5734 48.3976 28.5904C48.4257 28.6659 48.4456 28.743 48.4756 28.8171C48.5094 28.9035 48.5655 28.9722 48.6198 29.047C48.6274 29.0584 48.6353 29.0701 48.6433 29.0811C48.7751 29.2812 48.8042 29.5195 48.8461 29.7458C48.85 29.7694 48.8851 30.0223 48.9289 30.0032C48.9809 29.9828 48.9938 29.8373 49.0034 29.7948C49.1107 29.2528 48.7861 28.847 48.7298 28.3293C48.6893 27.9659 48.7771 27.5888 48.7821 27.2232C48.7952 26.0901 48.6731 22.5394 46.8518 22.6501C46.3389 22.6812 46.1362 23.1083 45.7156 23.2761C45.5886 23.3268 45.4922 23.2425 45.4234 23.1486C45.0902 22.697 44.1352 20.7246 44.1093 20.2014C44.0997 20.0212 44.2423 19.8705 44.2472 19.6855C44.2563 19.3356 44.1123 18.9901 44.085 18.641C44.0631 18.3581 44.153 18.0784 44.0925 17.7981C43.9782 17.28 43.5641 16.88 43.4253 16.376C43.3343 16.0417 43.4628 15.7168 43.3383 15.3755C43.185 14.9599 42.8159 14.6504 42.6673 14.2446C42.5822 14.0164 42.7931 13.8777 42.6352 13.6343C42.4554 13.3601 42.1806 13.1558 41.989 12.8899C41.8123 12.6471 41.7342 12.3578 41.5424 12.12C41.4605 12.0197 41.2073 11.8828 41.1628 11.7822Z" fill="black" stroke="black" stroke-width="0.3025" stroke-miterlimit="22.9256" stroke-linejoin="round"/>
</g>
<defs>
<clipPath id="clip0_1577_8073">
<rect width="181" height="69" fill="white" transform="translate(0.339844)"/>
</clipPath>
</defs>
</svg>
