<svg width="169" height="52" viewBox="0 0 169 52" fill="none" xmlns="http://www.w3.org/2000/svg">
<g clip-path="url(#clip0_1577_8201)">
<path d="M18.1043 1.05396V37.0524C18.1043 51.7157 0.222656 51.7157 0.222656 51.7157C0.594421 51.7157 5.24597 46.7977 5.24597 39.8421V1.05396H18.1043ZM27.9532 20.4623V40.5623H40.7301L27.9532 20.4623ZM27.9535 1.05423L53.2352 40.5623L60.3731 29.4243L42.187 1.05423H27.9535ZM65.7671 1.05423H78.5236V40.5623H65.7671V1.05423Z" fill="black"/>
<path d="M97.0337 7.33091C97.0337 9.43663 96.1403 10.7969 93.6289 10.7969C92.6185 10.7969 91.8546 10.5884 91.0391 10.1171L91.7253 8.25962C92.2432 8.58639 92.9427 8.76966 93.5643 8.76966C94.4572 8.76966 94.833 8.20749 94.833 7.13501V1.05214H97.0337V7.33091ZM104.567 10.7972C101.628 10.7972 99.7512 8.6654 99.7512 5.85292C99.7512 3.02754 101.719 0.895479 104.658 0.895479C107.584 0.895479 109.473 3.02754 109.473 5.85292C109.473 8.6654 107.493 10.7972 104.567 10.7972ZM104.606 2.88405C103.104 2.88405 102.094 4.12636 102.094 5.85292C102.094 7.56631 103.104 8.82234 104.606 8.82234C106.108 8.82234 107.118 7.56631 107.118 5.85292C107.118 4.12636 106.108 2.88405 104.606 2.88405ZM118.108 1.05214V4.80678H114.457V1.05214H112.255V10.6405H114.457V6.79535H118.108V10.6405H120.309V1.05214H118.108ZM123.712 0.869141L123.414 0.921818V10.6405H125.615V5.63014L131.338 10.8233L131.558 10.7848V1.05214H129.356V6.02303L123.712 0.869141ZM141.653 0.974221L137.187 10.6405H139.426L140.138 8.90108H143.414L144.126 10.6405H146.417L141.951 0.974221H141.653ZM141.782 4.89814L142.714 7.20059H140.837L141.782 4.89814ZM149.355 8.6783C149.489 8.6775 149.623 8.70368 149.747 8.75534C149.872 8.807 149.985 8.8831 150.08 8.97924C150.175 9.07537 150.25 9.18963 150.301 9.31538C150.353 9.44113 150.378 9.57588 150.378 9.71182C150.378 9.84772 150.352 9.98242 150.301 10.1081C150.25 10.2338 150.175 10.348 150.08 10.4441C149.985 10.5402 149.872 10.6163 149.747 10.6679C149.623 10.7195 149.489 10.7456 149.355 10.7448C148.798 10.7448 148.345 10.2872 148.345 9.71182C148.345 9.13593 148.798 8.6783 149.355 8.6783ZM99.1052 25.5022L98.989 20.7933L96.3597 24.1553H96.1275L93.4736 20.7933L93.3826 25.5022H91.2593L91.6995 15.8487L91.9974 15.8224L96.2954 21.3031L100.49 15.8224L100.788 15.8487L101.241 25.5022H99.1052ZM109.991 25.5022L109.279 23.7627H106.004L105.292 25.5022H103.052L107.518 15.8358H107.816L112.282 25.5022H109.991ZM107.648 19.7598L106.702 22.0622H108.58L107.648 19.7598ZM119.247 25.5022L117.629 22.3764C117.499 22.389 117.383 22.389 117.253 22.389C116.93 22.389 116.748 22.3764 116.437 22.3629V25.5022H114.237V16.0057C115.165 15.8988 116.098 15.8464 117.032 15.8487C119.984 15.8487 121.15 17.2746 121.15 19.0275C121.15 20.165 120.542 21.1856 119.519 21.8005L121.746 25.5022H119.247ZM117.292 17.837C116.955 17.837 116.748 17.8499 116.437 17.9026V20.5447C116.722 20.5711 116.878 20.5837 117.137 20.5837C118.185 20.5837 118.858 20.0739 118.858 19.1054C118.858 18.3081 118.237 17.837 117.292 17.837ZM126.43 25.6591C125.356 25.6591 124.061 25.2275 123.232 24.678L123.841 22.6633C124.605 23.2258 125.602 23.5923 126.495 23.5923C127.272 23.5923 127.569 23.2258 127.569 22.7552C127.569 22.2581 127.324 21.9179 125.873 21.3294C124.204 20.6495 123.621 19.6684 123.621 18.5175C123.621 17.1177 124.747 15.7574 126.962 15.7574C127.997 15.7574 129.058 16.1239 129.615 16.5028L129.058 18.4908C128.515 18.1117 127.634 17.7062 126.962 17.7062C126.159 17.7062 125.835 18.0859 125.835 18.4779C125.835 19.1054 126.314 19.3148 127.505 19.8256C129.278 20.5837 129.81 21.4474 129.81 22.6768C129.81 24.2069 128.709 25.6591 126.43 25.6591ZM138.237 25.5022V21.6567H134.586V25.5022H132.384V15.9143H134.586V19.6684H138.237V15.9143H140.437V25.5022H138.237ZM149.317 25.5022L148.606 23.7627H145.33L144.618 25.5022H142.378L146.844 15.8358H147.142L151.609 25.5022H149.317ZM146.974 19.7598L146.029 22.0622H147.906L146.974 19.7598ZM153.549 25.5022V15.9143H155.75V23.4749H159.557V25.5022H153.549ZM161.86 15.914V25.5022H167.867V23.4749H164.061V15.914H161.86ZM96.5805 40.5207C93.4866 40.5207 91.3891 38.4147 91.3891 35.5759C91.3891 32.7247 93.4866 30.6187 96.5805 30.6187C97.6814 30.6187 98.6908 30.9458 99.5451 31.4558L98.8722 33.3387C98.1735 32.9472 97.3835 32.6984 96.6066 32.6984C94.833 32.6984 93.7324 33.7969 93.7324 35.5759C93.7324 37.3557 94.833 38.4537 96.6066 38.4537C97.3835 38.4537 98.2636 38.1928 98.9757 37.7472L99.6366 39.6315C98.8076 40.1805 97.6686 40.5207 96.5805 40.5207ZM106.224 40.5207C103.285 40.5207 101.408 38.3884 101.408 35.5759C101.408 32.7511 103.376 30.6187 106.315 30.6187C109.241 30.6187 111.131 32.7511 111.131 35.5759C111.131 38.3884 109.15 40.5207 106.224 40.5207ZM106.263 32.607C104.762 32.607 103.751 33.8496 103.751 35.5759C103.751 37.2896 104.762 38.5456 106.263 38.5456C107.765 38.5456 108.775 37.2896 108.775 35.5759C108.775 33.8496 107.765 32.607 106.263 32.607ZM113.874 38.4016C114.008 38.4007 114.142 38.4269 114.266 38.4785C114.391 38.5302 114.504 38.6063 114.599 38.7024C114.694 38.7985 114.769 38.9128 114.82 39.0386C114.871 39.1644 114.897 39.2991 114.896 39.4351C114.897 39.571 114.871 39.7057 114.82 39.8315C114.769 39.9572 114.694 40.0714 114.599 40.1676C114.504 40.2637 114.39 40.3398 114.266 40.3915C114.142 40.4431 114.008 40.4694 113.874 40.4686C113.317 40.4686 112.864 40.0104 112.864 39.4351C112.864 38.8592 113.317 38.4016 113.874 38.4016Z" fill="black"/>
</g>
<defs>
<clipPath id="clip0_1577_8201">
<rect width="167.824" height="51.0313" fill="white" transform="translate(0.222656 0.816162)"/>
</clipPath>
</defs>
</svg>
