<svg width="20" height="20" viewBox="0 0 20 20" fill="none" xmlns="http://www.w3.org/2000/svg">
<path d="M10 0C8.02219 0 6.08879 0.58649 4.4443 1.6853C2.79981 2.78412 1.51809 4.3459 0.761209 6.17316C0.00433288 8.00043 -0.1937 10.0111 0.192152 11.9509C0.578004 13.8907 1.53041 15.6725 2.92894 17.0711C4.32746 18.4696 6.10929 19.422 8.0491 19.8078C9.98891 20.1937 11.9996 19.9957 13.8268 19.2388C15.6541 18.4819 17.2159 17.2002 18.3147 15.5557C19.4135 13.9112 20 11.9778 20 10C19.9969 7.34879 18.9423 4.80707 17.0676 2.93239C15.1929 1.0577 12.6512 0.0031277 10 0ZM10 18.1818C8.38179 18.1818 6.79992 17.702 5.45443 16.8029C4.10894 15.9039 3.06025 14.6261 2.44099 13.131C1.82173 11.636 1.6597 9.99092 1.9754 8.40381C2.29109 6.81669 3.07034 5.35883 4.21458 4.21458C5.35883 3.07033 6.81669 2.29109 8.40381 1.97539C9.99093 1.6597 11.636 1.82172 13.131 2.44099C14.6261 3.06025 15.9039 4.10893 16.8029 5.45442C17.702 6.79992 18.1818 8.38179 18.1818 10C18.1792 12.1691 17.3163 14.2487 15.7825 15.7825C14.2487 17.3163 12.1691 18.1792 10 18.1818ZM10.9091 14.0909V15.9091H9.09091V14.0909H10.9091ZM13.6364 7.72727C13.6373 8.27248 13.5152 8.81088 13.2791 9.30231C13.043 9.79374 12.699 10.2255 12.2727 10.5655C11.5842 11.099 11.1185 11.8696 10.9664 12.7273H9.11909C9.19948 12.0264 9.41938 11.3487 9.76584 10.7342C10.1123 10.1196 10.5783 9.58067 11.1364 9.14909C11.3603 8.96985 11.5387 8.74016 11.6569 8.4788C11.7751 8.21743 11.8298 7.93181 11.8165 7.64527C11.8032 7.35873 11.7223 7.0794 11.5804 6.83011C11.4385 6.58081 11.2396 6.36863 11 6.21091C10.733 6.03636 10.4257 5.93304 10.1075 5.91076C9.78922 5.88849 9.47057 5.948 9.18182 6.08364C8.87382 6.23127 8.61534 6.4652 8.43781 6.75699C8.26028 7.04879 8.17134 7.38588 8.18182 7.72727C8.18182 7.96838 8.08604 8.19961 7.91555 8.3701C7.74507 8.54058 7.51384 8.63636 7.27273 8.63636C7.03162 8.63636 6.80039 8.54058 6.62991 8.3701C6.45942 8.19961 6.36364 7.96838 6.36364 7.72727C6.35011 7.02858 6.54289 6.3414 6.91787 5.7517C7.29284 5.16199 7.83336 4.69594 8.47182 4.41182C9.03778 4.15889 9.65831 4.05254 10.2762 4.10259C10.8941 4.15264 11.4894 4.35746 12.0073 4.69818C12.5077 5.02945 12.9183 5.47941 13.2026 6.00795C13.4868 6.53648 13.6359 7.12715 13.6364 7.72727Z" fill="black"/>
</svg>
