<svg width="99" height="27" viewBox="0 0 99 27" fill="none" xmlns="http://www.w3.org/2000/svg">
<path fill-rule="evenodd" clip-rule="evenodd" d="M23.5718 6.5745L23.7594 6.912C23.9957 7.32214 24.1204 7.78779 24.1212 8.26194V18.7244C24.1174 19.1982 23.9928 19.6631 23.7594 20.0744L23.5584 20.4119C23.3289 20.8251 22.9903 21.1662 22.5802 21.3974L13.5883 26.6354C13.1811 26.8733 12.719 26.999 12.2482 26.9999H11.873C11.4016 27.0044 10.9381 26.8783 10.5329 26.6354L1.52768 21.4109C1.12631 21.1682 0.790357 20.8298 0.549431 20.4254L0.361821 20.0879C0.125627 19.6777 0.00083673 19.2122 0 18.7379V8.27544C0.00083673 7.80129 0.125627 7.33564 0.361821 6.9255L0.549431 6.588C0.784284 6.17892 1.1216 5.83905 1.52768 5.6025L10.5195 0.3645C10.9267 0.126571 11.3889 0.000856098 11.8596 0H12.2482C12.719 0.000856098 13.1811 0.126571 13.5883 0.3645L22.5802 5.589C22.9886 5.82713 23.3299 6.16634 23.5718 6.5745ZM12.2482 2.69994H11.8596L4.02023 7.26294L12.0606 11.9339L20.1011 7.26294L12.2482 2.69994ZM21.2401 19.062L13.4007 23.625V14.283L21.4411 9.59857V18.7245L21.2401 19.062ZM59.0669 19.9801H56.2881V5.20576H59.0669V19.9801ZM33.9923 20.2968H37.0991V14.9314H38.4499L41.7497 20.2968H45.0688L41.4217 14.3871C43.0427 13.9011 44.2584 12.793 44.2584 10.6935V10.6157C44.2584 7.73862 42.1936 6.39725 38.9324 6.39725H33.9923V20.2968ZM37.0991 12.793V8.80782H38.8552C40.3604 8.80782 41.2095 9.29382 41.2095 10.7129V10.7907C41.2095 12.1321 40.4183 12.793 38.8552 12.793H37.0991ZM50.1148 20.1934C52.8743 20.1934 54.611 18.9687 54.939 16.772H52.2954C52.1217 17.6274 51.4849 18.1911 50.192 18.1911C48.6676 18.1911 47.7606 17.2191 47.6834 15.5279H54.9584V14.7503C54.9584 11.115 52.6427 9.57924 50.0376 9.57924C47.1045 9.57924 44.8467 11.6593 44.8467 14.8669V15.0224C44.8467 18.2689 47.0659 20.1934 50.1148 20.1934ZM47.722 13.7977C47.9342 12.3591 48.7833 11.5232 50.0376 11.5232C51.3692 11.5232 52.141 12.2619 52.2375 13.7977H47.722ZM64.3975 20.1942C66.0572 20.1942 67.0796 19.4166 67.6006 18.3864V19.9804H70.3795V9.81333H67.6006V15.7814C67.6006 17.2783 66.6743 18.017 65.4977 18.017C64.3014 18.017 63.7412 17.356 63.7412 15.9758V9.81333H60.9627V16.3646C60.9627 19.0278 62.4292 20.1942 64.3975 20.1942ZM75.075 19.9796H72.2765V9.8125H75.075V11.3677C75.5764 10.4151 76.6569 9.57924 78.1624 9.57924C79.494 9.57924 80.4974 10.143 80.9798 11.3483C81.7904 10.1235 83.1024 9.57924 84.3758 9.57924C86.2479 9.57924 87.6952 10.7651 87.6952 13.4672V19.9796H84.9164V13.7783C84.9164 12.4757 84.3372 11.8925 83.3338 11.8925C82.2532 11.8925 81.3851 12.5924 81.3851 13.9727V19.9796H78.6063V13.7783C78.6063 12.4757 78.0081 11.8925 77.0237 11.8925C75.9431 11.8925 75.075 12.5924 75.075 13.9727V19.9796ZM94.1561 20.1934C96.916 20.1934 98.6529 18.9687 98.9804 16.772H96.3368C96.1629 17.6274 95.5263 18.1911 94.2332 18.1911C92.7088 18.1911 91.8022 17.2191 91.725 15.5279H99V14.7503C99 11.115 96.684 9.57924 94.079 9.57924C91.1458 9.57924 88.888 11.6593 88.888 14.8669V15.0224C88.888 18.2689 91.1073 20.1934 94.1561 20.1934ZM91.7636 13.7977C91.976 12.3591 92.8252 11.5232 94.079 11.5232C95.4106 11.5232 96.1826 12.2619 96.2793 13.7977H91.7636Z" fill="black"/>
</svg>
