<svg width="22" height="23" viewBox="0 0 22 23" fill="none" xmlns="http://www.w3.org/2000/svg">
<path d="M20.7731 21.4211L15.6276 16.2756M9.51296 18.6837C10.6322 18.6837 11.7404 18.4632 12.7745 18.0349C13.8085 17.6066 14.748 16.9789 15.5394 16.1874C16.3308 15.396 16.9586 14.4565 17.3869 13.4225C17.8152 12.3884 18.0357 11.2802 18.0357 10.161C18.0357 9.04175 17.8152 7.93349 17.3869 6.89946C16.9586 5.86544 16.3308 4.9259 15.5394 4.13449C14.748 3.34308 13.8085 2.7153 12.7745 2.287C11.7404 1.85869 10.6322 1.63824 9.51296 1.63824C7.25259 1.63824 5.0848 2.53617 3.48648 4.13449C1.88816 5.73281 0.990234 7.9006 0.990234 10.161C0.990234 12.4213 1.88816 14.5891 3.48648 16.1874C5.0848 17.7858 7.25259 18.6837 9.51296 18.6837Z" stroke="white" stroke-width="1.8" stroke-linecap="round" stroke-linejoin="round"/>
</svg>
