<svg width="20" height="21" viewBox="0 0 20 21" fill="none" xmlns="http://www.w3.org/2000/svg">
<path d="M4.16431 17.5L6.17514 15.3886M6.17514 15.3886C6.51904 15.7497 6.92731 16.0361 7.37663 16.2315C7.82596 16.427 8.30754 16.5275 8.79389 16.5275C9.28024 16.5275 9.76182 16.427 10.2111 16.2315C10.6605 16.0361 11.0687 15.7497 11.4126 15.3886C11.7565 15.0275 12.0293 14.5988 12.2155 14.127C12.4016 13.6552 12.4974 13.1496 12.4974 12.6389C12.4974 12.1282 12.4016 11.6226 12.2155 11.1508C12.0293 10.679 11.7565 10.2503 11.4126 9.8892C10.7181 9.15994 9.77611 8.75024 8.79389 8.75024C7.81167 8.75024 6.86968 9.15994 6.17514 9.8892C5.4806 10.6185 5.09042 11.6076 5.09042 12.6389C5.09042 13.6702 5.4806 14.6593 6.17514 15.3886Z" stroke="black" stroke-width="1.3" stroke-linecap="round" stroke-linejoin="round"/>
<path d="M2.4974 13.29C1.94998 12.2997 1.66243 11.1747 1.66407 10.0297C1.66407 6.42386 4.4624 3.50049 7.91407 3.50049H12.0807C15.5324 3.50049 18.3307 6.42386 18.3307 10.0297C18.3307 12.8735 16.5916 15.292 14.1641 16.188" stroke="black" stroke-width="1.3" stroke-linecap="round" stroke-linejoin="round"/>
</svg>
