<svg width="29" height="28" viewBox="0 0 29 28" fill="none" xmlns="http://www.w3.org/2000/svg">
<g clip-path="url(#clip0_2041_21637)">
<path d="M7.046 14.0006V9.39828C7.05976 8.49363 7.25315 7.60056 7.61507 6.77026C7.97699 5.93995 8.50033 5.18873 9.15512 4.55962C9.8099 3.93052 10.5833 3.4359 11.4309 3.10411C12.2785 2.77233 13.1837 2.60989 14.0946 2.62611C15.0055 2.60989 15.9107 2.77233 16.7583 3.10411C17.606 3.4359 18.3793 3.93052 19.0341 4.55962C19.6889 5.18873 20.2122 5.93995 20.5741 6.77026C20.9361 7.60056 21.1294 8.49363 21.1432 9.39828V14.0006M17.6189 23.1876C18.5536 23.1876 19.45 22.8189 20.111 22.1625C20.7719 21.5062 21.1432 20.616 21.1432 19.6878V15.7505M17.6189 23.1876C17.6189 23.7677 17.3868 24.3241 16.9738 24.7343C16.5607 25.1445 16.0004 25.375 15.4162 25.375H12.773C12.1888 25.375 11.6285 25.1445 11.2155 24.7343C10.8024 24.3241 10.5703 23.7677 10.5703 23.1876C10.5703 22.6075 10.8024 22.0511 11.2155 21.6409C11.6285 21.2307 12.1888 21.0002 12.773 21.0002H15.4162C16.0004 21.0002 16.5607 21.2307 16.9738 21.6409C17.3868 22.0511 17.6189 22.6075 17.6189 23.1876ZM4.40278 11.3757H6.16493C6.3986 11.3757 6.62271 11.4679 6.78794 11.6319C6.95317 11.796 7.046 12.0186 7.046 12.2506V17.5004C7.046 17.7324 6.95317 17.955 6.78794 18.1191C6.62271 18.2832 6.3986 18.3753 6.16493 18.3753H4.40278C3.93542 18.3753 3.48721 18.191 3.15675 17.8628C2.82628 17.5346 2.64062 17.0895 2.64062 16.6254V13.1256C2.64062 12.6615 2.82628 12.2164 3.15675 11.8882C3.48721 11.56 3.93542 11.3757 4.40278 11.3757ZM23.7864 18.3753H22.0243C21.7906 18.3753 21.5665 18.2832 21.4013 18.1191C21.236 17.955 21.1432 17.7324 21.1432 17.5004V12.2506C21.1432 12.0186 21.236 11.796 21.4013 11.6319C21.5665 11.4679 21.7906 11.3757 22.0243 11.3757H23.7864C24.2538 11.3757 24.702 11.56 25.0325 11.8882C25.3629 12.2164 25.5486 12.6615 25.5486 13.1256V16.6254C25.5486 17.0895 25.3629 17.5346 25.0325 17.8628C24.702 18.191 24.2538 18.3753 23.7864 18.3753Z" stroke="#2E2B2B" stroke-width="1.4" stroke-linecap="round" stroke-linejoin="round"/>
</g>
<defs>
<clipPath id="clip0_2041_21637">
<rect width="28.1944" height="28" fill="white"/>
</clipPath>
</defs>
</svg>
