<svg width="28" height="28" viewBox="0 0 28 28" fill="none" xmlns="http://www.w3.org/2000/svg">
<g clip-path="url(#clip0_1630_43)">
<path d="M13.376 17.4103L19.6529 23.6872C20.1912 24.2083 20.9128 24.497 21.662 24.4909C22.4113 24.4848 23.1281 24.1845 23.6578 23.6547C24.1876 23.1249 24.488 22.4081 24.494 21.6589C24.5001 20.9097 24.2115 20.1881 23.6904 19.6498L17.3629 13.3223M13.376 17.4103L16.0634 14.1481C16.4047 13.7346 16.8601 13.4741 17.364 13.3234C17.9561 13.1468 18.6161 13.121 19.2406 13.1726C20.0823 13.2449 20.9283 13.0958 21.6947 12.7402C22.461 12.3845 23.121 11.8346 23.6092 11.1451C24.0974 10.4556 24.3968 9.65037 24.4777 8.8094C24.5586 7.96842 24.4182 7.12092 24.0704 6.35097L20.5433 9.87916C19.9532 9.7427 19.4133 9.44329 18.985 9.01501C18.5567 8.58673 18.2573 8.0468 18.1208 7.45669L21.648 3.92958C20.878 3.58179 20.0305 3.44137 19.1895 3.52227C18.3486 3.60317 17.5434 3.90257 16.8538 4.39077C16.1643 4.87896 15.6144 5.53898 15.2588 6.30532C14.9031 7.07166 14.754 7.91768 14.8263 8.75944C14.9243 9.91792 14.7498 11.197 13.853 11.9356L13.7432 12.0271M13.376 17.4103L8.36423 23.4966C8.12133 23.7927 7.81912 24.0347 7.47707 24.2069C7.13501 24.3791 6.76068 24.4779 6.37817 24.4967C5.99566 24.5155 5.61344 24.454 5.25612 24.3162C4.8988 24.1784 4.5743 23.9673 4.3035 23.6965C4.03269 23.4257 3.82159 23.1012 3.68378 22.7439C3.54596 22.3866 3.48449 22.0043 3.50332 21.6218C3.52214 21.2393 3.62085 20.865 3.79309 20.5229C3.96532 20.1809 4.20727 19.8787 4.50336 19.6358L11.8644 13.5742L7.44262 9.15242H5.92562L3.50315 5.11498L5.11813 3.5L9.15557 5.92246V7.43947L13.7421 12.026L11.8633 13.5731M20.8642 20.861L18.0379 18.0348M6.32075 21.6685H6.32936V21.6771H6.32075V21.6685Z" stroke="#9A9A9A" stroke-width="1.5" stroke-linecap="round" stroke-linejoin="round"/>
</g>
<defs>
<clipPath id="clip0_1630_43">
<rect width="28" height="28" fill="white"/>
</clipPath>
</defs>
</svg>
