<svg width="14" height="14" viewBox="0 0 14 14" fill="none" xmlns="http://www.w3.org/2000/svg">
<path d="M7.71302 3.33962H6.94823C6.87827 3.33962 6.82103 3.39667 6.82103 3.46639V7.82868C6.82103 7.86988 6.84011 7.90791 6.8735 7.93167L9.50176 9.84424C9.559 9.88544 9.6385 9.87434 9.67984 9.8173L10.1346 9.19932C10.1775 9.14069 10.1648 9.06147 10.1075 9.02185L7.84022 7.38817V3.46639C7.84022 3.39667 7.78298 3.33962 7.71302 3.33962ZM11.2078 4.53121L13.7009 5.1381C13.7804 5.15711 13.8583 5.0969 13.8583 5.01609L13.8711 2.45702C13.8711 2.35086 13.7486 2.29064 13.6659 2.35719L11.1601 4.30779C11.1412 4.32239 11.1268 4.34202 11.1185 4.36442C11.1103 4.38683 11.1085 4.41109 11.1135 4.43443C11.1185 4.45777 11.13 4.47924 11.1467 4.49636C11.1634 4.51348 11.1846 4.52556 11.2078 4.53121ZM13.8742 9.30232L12.9727 8.99333C12.9413 8.98259 12.9069 8.98454 12.8769 8.99875C12.8469 9.01297 12.8236 9.03832 12.8121 9.06939C12.7819 9.1502 12.7501 9.22943 12.7167 9.30866C12.4337 9.97576 12.0283 10.5763 11.5099 11.0913C10.9973 11.6037 10.3899 12.0121 9.72118 12.294C9.02846 12.5858 8.28384 12.7356 7.53176 12.7345C6.77174 12.7345 6.03558 12.5871 5.34234 12.294C4.67366 12.0121 4.06619 11.6037 3.5536 11.0913C3.03686 10.5763 2.63141 9.97576 2.3468 9.30866C2.05553 8.61793 1.9063 7.87597 1.90796 7.12672C1.90796 6.3693 2.05583 5.63406 2.34998 4.9432C2.633 4.2761 3.03845 3.67555 3.55678 3.16057C4.06937 2.64815 4.67684 2.23971 5.34552 1.95789C6.03558 1.66474 6.77333 1.51738 7.53335 1.51738C8.29337 1.51738 9.02953 1.66474 9.72277 1.95789C10.3915 2.23971 10.9989 2.64815 11.5115 3.16057C11.6737 3.32378 11.8263 3.49332 11.9662 3.67238L12.9171 2.9308C11.6657 1.33674 9.718 0.311528 7.53017 0.313112C3.72055 0.314697 0.661412 3.39825 0.699572 7.19644C0.737732 10.9281 3.78256 13.9403 7.53335 13.9403C10.4828 13.9403 12.995 12.0769 13.9521 9.46711C13.976 9.40056 13.941 9.32609 13.8742 9.30232Z" fill="#737373"/>
</svg>
