<svg width="29" height="28" viewBox="0 0 29 28" fill="none" xmlns="http://www.w3.org/2000/svg">
<path d="M6.63336 11.6363L8.98642 10.2865C9.05325 10.2476 9.12716 10.2222 9.20391 10.2117C9.28066 10.2013 9.35873 10.2061 9.43362 10.2257C9.50851 10.2454 9.57875 10.2796 9.64028 10.3263C9.70182 10.3731 9.75344 10.4314 9.79217 10.498C9.83091 10.5647 9.85599 10.6382 9.86597 10.7145C9.87596 10.7908 9.87065 10.8683 9.85035 10.9425C9.83005 11.0168 9.79517 11.0863 9.74771 11.1471C9.70025 11.2079 9.64114 11.2588 9.5738 11.2968L6.01426 13.3385C5.94741 13.377 5.87357 13.402 5.79697 13.4121C5.72037 13.4222 5.64252 13.4171 5.56788 13.3973C5.49324 13.3775 5.42327 13.3432 5.36198 13.2965C5.30069 13.2497 5.24929 13.1915 5.21072 13.125L3.15488 9.5888C3.1157 9.52244 3.09013 9.44903 3.07963 9.37281C3.06914 9.29659 3.07393 9.21906 3.09373 9.14469C3.11353 9.07031 3.14795 9.00056 3.195 8.93945C3.24206 8.87834 3.30082 8.82707 3.3679 8.78861C3.43499 8.75014 3.50907 8.72523 3.58589 8.71532C3.66271 8.7054 3.74074 8.71067 3.8155 8.73083C3.89026 8.75099 3.96027 8.78563 4.02149 8.83276C4.08271 8.8799 4.13394 8.93859 4.17222 9.00547L5.50911 11.3003C6.10858 9.19417 7.39279 7.34416 9.16161 6.03859C10.9304 4.73302 13.0845 4.04526 15.288 4.08249C17.4915 4.11972 19.6207 4.87985 21.3438 6.24442C23.0669 7.60898 24.287 9.50131 24.814 11.6265C25.341 13.7516 25.1452 15.9902 24.2572 17.9934C23.3692 19.9965 21.8389 21.6516 19.9048 22.7008C17.9706 23.7499 15.7413 24.1342 13.5643 23.7936C11.3873 23.453 9.38493 22.4068 7.86922 20.818C7.76204 20.7057 7.70418 20.5556 7.70836 20.401C7.71255 20.2463 7.77844 20.0996 7.89154 19.9931C8.00464 19.8867 8.15568 19.8292 8.31144 19.8334C8.4672 19.8376 8.61492 19.903 8.7221 20.0153C10.06 21.4179 11.8278 22.3413 13.7496 22.6414C15.6714 22.9416 17.6392 22.6016 19.346 21.6746C21.0529 20.7475 22.4028 19.2856 23.1852 17.5167C23.9676 15.7478 24.1385 13.7715 23.6712 11.8961C23.204 10.0206 22.1248 8.35145 20.6021 7.14898C19.0795 5.94651 17.1988 5.27833 15.2536 5.24867C13.3084 5.21902 11.4081 5.82955 9.84891 6.98503C8.28977 8.14051 7.15837 9.77598 6.63336 11.6363Z" fill="black"/>
<path d="M15.1186 8.75C15.2744 8.75 15.4238 8.81146 15.534 8.92085C15.6441 9.03025 15.706 9.17862 15.706 9.33333V13.7585L17.884 15.9203C17.9943 16.0297 18.0564 16.1781 18.0565 16.3329C18.0566 16.4877 17.9948 16.6362 17.8846 16.7458C17.7745 16.8553 17.625 16.9169 17.4692 16.917C17.3133 16.9171 17.1638 16.8557 17.0535 16.7463L14.7039 14.413C14.6492 14.3588 14.6058 14.2945 14.5762 14.2236C14.5465 14.1527 14.5313 14.0767 14.5312 14V9.33333C14.5312 9.17862 14.5931 9.03025 14.7033 8.92085C14.8134 8.81146 14.9628 8.75 15.1186 8.75Z" fill="black"/>
</svg>
