<svg width="22" height="20" viewBox="0 0 22 20" fill="none" xmlns="http://www.w3.org/2000/svg">
<path d="M10.1639 2.20196C10.42 1.50659 10.5481 1.15891 10.7375 1.06255C10.9013 0.979149 11.0986 0.979149 11.2626 1.06255C11.4519 1.15891 11.5799 1.50659 11.8361 2.20196L13.5293 6.79908C13.6022 6.99699 13.6386 7.09594 13.7044 7.16963C13.7623 7.23473 13.8364 7.28547 13.9199 7.31742C14.0144 7.3536 14.1254 7.35573 14.3473 7.36L19.5033 7.45916C20.2832 7.47416 20.6731 7.48167 20.8288 7.62186C20.9635 7.74318 21.0244 7.92032 20.991 8.09319C20.9525 8.29296 20.6417 8.51528 20.0201 8.96012L15.9106 11.9004C15.7336 12.027 15.6452 12.0903 15.5912 12.172C15.5435 12.2442 15.5153 12.3263 15.5089 12.4111C15.5017 12.5072 15.5338 12.6074 15.5981 12.808L17.0915 17.4664C17.3173 18.1711 17.4303 18.5234 17.3371 18.7063C17.2565 18.8648 17.0968 18.9742 16.9122 18.9977C16.699 19.0247 16.3789 18.8145 15.7386 18.394L11.5056 15.6142C11.3234 15.4945 11.2323 15.4347 11.1333 15.4114C11.0457 15.3909 10.9542 15.3909 10.8668 15.4114C10.7678 15.4347 10.6766 15.4945 10.4944 15.6142L6.26143 18.394C5.62114 18.8145 5.301 19.0247 5.08778 18.9977C4.90325 18.9742 4.74359 18.8648 4.66294 18.7063C4.56975 18.5234 4.6827 18.1711 4.90859 17.4664L6.40193 12.808C6.46622 12.6074 6.49836 12.5072 6.49112 12.4111C6.48473 12.3263 6.45647 12.2442 6.40879 12.172C6.35483 12.0903 6.26637 12.027 6.08945 11.9004L1.97999 8.96012C1.35837 8.51528 1.04757 8.29296 1.00898 8.09319C0.97558 7.92032 1.03657 7.74318 1.17126 7.62186C1.32687 7.48167 1.71682 7.47417 2.49672 7.45916L7.65265 7.36C7.87461 7.35573 7.9856 7.3536 8.08016 7.31742C8.16368 7.28547 8.23768 7.23473 8.2957 7.16963C8.36138 7.09594 8.39782 6.99699 8.47072 6.79908L10.1639 2.20196Z" stroke="black" stroke-width="1.7" stroke-linecap="round" stroke-linejoin="round"/>
</svg>
