<svg width="15" height="15" viewBox="0 0 15 15" fill="none" xmlns="http://www.w3.org/2000/svg">
<path d="M1 7.75683C1 11.4886 3.91005 14.5137 7.5 14.5137C11.0899 14.5137 14 11.4886 14 7.75683C14 4.02503 11.0899 1 7.5 1C3.91005 1 1 4.02503 1 7.75683Z" stroke="white" stroke-opacity="0.7" stroke-width="0.75" stroke-linecap="round" stroke-linejoin="round"/>
<path d="M8.15066 1.03333C8.15066 1.03333 10.1007 3.70227 10.1007 7.75637C10.1007 11.8105 8.15066 14.4794 8.15066 14.4794M6.85066 14.4794C6.85066 14.4794 4.90066 11.8105 4.90066 7.75637C4.90066 3.70227 6.85066 1.03333 6.85066 1.03333M1.41016 10.1213H13.5912M1.41016 5.39148H13.5912" stroke="white" stroke-opacity="0.7" stroke-width="0.75" stroke-linecap="round" stroke-linejoin="round"/>
</svg>
